<svg width="17" height="17" viewBox="0 0 17 17" fill="none" xmlns="http://www.w3.org/2000/svg">
<path d="M15.8854 9.25767C16.1261 9.25767 16.2742 9.41501 16.2742 9.78523L16.2742 9.90555L16.376 9.90555L16.376 7.96191L16.2742 7.96191L16.2742 8.08223C16.2742 8.45245 16.1261 8.60979 15.8854 8.60979L0.855039 8.60979C0.614398 8.60979 0.466312 8.45245 0.466312 8.08223L0.466312 7.96191L0.364502 7.96191L0.364502 9.90555L0.466312 9.90555L0.466312 9.78523C0.466312 9.41501 0.614398 9.25767 0.855039 9.25767L15.8854 9.25767Z" fill="#DFD4BF"/>
<path d="M8.69517 1.41827C8.69517 1.17763 8.85251 1.02954 9.22273 1.02954H9.34305V0.927734L7.39941 0.927734V1.02954H7.51973C7.88995 1.02954 8.04729 1.17763 8.04729 1.41827L8.04729 16.4487C8.04729 16.6893 7.88995 16.8374 7.51973 16.8374H7.39941V16.9392H9.34305V16.8374H9.22273C8.85251 16.8374 8.69517 16.6893 8.69517 16.4487L8.69517 1.41827Z" fill="#DFD4BF"/>
</svg>
