<svg width="254" height="254" viewBox="0 0 254 254" fill="none" xmlns="http://www.w3.org/2000/svg">
<circle cx="127" cy="127" r="125.04" fill="#181818" stroke="#DFD4BF" stroke-width="2.06371"/>
<circle cx="127" cy="127" r="121.18" fill="#181818" stroke="#DFD4BF" stroke-width="2"/>
<path d="M137.935 140.33L161.542 135.32V142.606C160.812 142.606 160.24 142.7 159.669 142.7C148.039 142.7 136.418 142.766 124.797 142.7C119.808 142.708 114.87 141.702 110.282 139.744C105.694 137.785 101.551 134.914 98.106 131.306C94.6608 127.697 91.9848 123.426 90.2404 118.752C88.4959 114.077 87.7194 109.097 87.9579 104.114C88.604 87.1431 102.004 72.2705 118.86 69.8074C138.319 66.9415 156.598 79.6787 160.362 98.7003C161.976 106.857 160.773 115.321 156.95 122.705C153.128 130.089 146.912 135.956 139.321 139.347C138.796 139.581 138.281 139.843 137.766 140.087L137.935 140.33ZM128.571 139.581C142.57 139.731 152.506 131.658 154.912 119.698C156.608 111.161 155.239 102.299 151.045 94.6731C145.117 83.3313 136.343 75.4267 123.448 72.7575C112.97 70.5941 102.547 74.9397 97.163 83.9963C92.7618 91.4232 92.3872 99.487 94.2694 107.691C96.2126 116.152 100.711 123.81 107.155 129.626C113.728 135.685 121.323 139.366 128.599 139.581H128.571Z" fill="#DFD4BF"/>
<path d="M159.138 117.918L129.494 112.261V139.977L129.549 140.626L129.56 141.268V183.577L166.084 177.921V184.595H117.457C118.862 183.153 119.955 181.823 121.228 180.73C121.865 180.185 122.36 179.494 122.672 178.716C122.984 177.938 123.103 177.096 123.019 176.261C122.962 157.445 122.962 138.629 123.019 119.812C123.084 118.912 122.939 118.009 122.596 117.175C122.252 116.341 121.719 115.597 121.039 115.005C119.814 113.939 118.645 112.827 117.448 111.733L117.759 111.271H159.138V117.918Z" fill="#DFD4BF"/>
</svg>
