<svg width="41" height="59" viewBox="0 0 41 59" fill="none" xmlns="http://www.w3.org/2000/svg">
<path d="M25.9806 36.2485L37.918 33.7148V37.3994C37.5487 37.3994 37.2598 37.4467 36.971 37.4467C31.0899 37.4467 25.2135 37.4799 19.3371 37.4467C16.8145 37.4509 14.3173 36.9423 11.9972 35.9519C9.67714 34.9615 7.58246 33.5098 5.84036 31.6851C4.09827 29.8604 2.7451 27.7006 1.86297 25.3369C0.980849 22.9732 0.58818 20.4549 0.708796 17.9348C1.03553 9.35338 7.8116 1.83277 16.335 0.58723C26.1747 -0.861954 35.4178 5.57887 37.3214 15.1975C38.1372 19.3222 37.5289 23.6018 35.596 27.3357C33.6631 31.0696 30.52 34.0367 26.6814 35.7513C26.4162 35.8697 26.1558 36.0023 25.8953 36.1254L25.9806 36.2485ZM21.2454 35.8697C28.3245 35.9454 33.3485 31.8631 34.5655 25.8154C35.4231 21.4985 34.7306 17.0175 32.6098 13.161C29.6125 7.42586 25.1756 3.42877 18.6552 2.07904C13.3565 0.985043 8.08625 3.1825 5.36351 7.76211C3.13796 11.5177 2.94856 15.5953 3.90033 19.7439C4.88296 24.0221 7.15771 27.8944 10.416 30.8354C13.7401 33.8995 17.5803 35.7607 21.2596 35.8697H21.2454Z" fill="#DFD4BF"/>
<path d="M36.7021 24.915L21.7122 22.0548V36.0697L21.74 36.398L21.7456 36.7228V58.1169L40.2148 55.2567V58.6317H15.6257C16.3359 57.9024 16.8888 57.2302 17.5322 56.6773C17.8543 56.4017 18.1049 56.0522 18.2626 55.6587C18.4203 55.2653 18.4804 54.8395 18.4378 54.4177C18.4092 44.9029 18.4092 35.388 18.4378 25.8732C18.471 25.4181 18.3978 24.9615 18.2241 24.5395C18.0504 24.1176 17.7809 23.7418 17.4369 23.442C16.8173 22.9034 16.2263 22.3409 15.621 21.7879L15.7783 21.5543H36.7021V24.915Z" fill="#DFD4BF"/>
</svg>
