<svg width="78" height="58" viewBox="0 0 78 58" fill="none" xmlns="http://www.w3.org/2000/svg">
<path d="M59.0223 22.1923C59.6552 22.1923 60.0447 22.6061 60.0447 23.5798L60.0447 23.8963L60.3125 23.8963L60.3125 18.7842L60.0447 18.7842L60.0447 19.1006C60.0447 20.0744 59.6552 20.4882 59.0223 20.4882L19.4896 20.4882C18.8567 20.4882 18.4672 20.0744 18.4672 19.1006L18.4672 18.7842L18.1994 18.7842L18.1994 23.8963L18.4672 23.8963L18.4672 23.5798C18.4672 22.6061 18.8567 22.1923 19.4896 22.1923L59.0223 22.1923Z" fill="#DFD4BF"/>
<path d="M59.0223 28.9169C59.6552 28.9169 60.0447 29.3307 60.0447 30.3044L60.0447 30.6209L60.3125 30.6209L60.3125 25.5088L60.0447 25.5088L60.0447 25.8253C60.0447 26.799 59.6552 27.2128 59.0223 27.2128L19.4896 27.2128C18.8567 27.2128 18.4672 26.799 18.4672 25.8253L18.4672 25.5088L18.1994 25.5088L18.1994 30.6209L18.4672 30.6209L18.4672 30.3044C18.4672 29.3307 18.8567 28.9169 19.4896 28.9169L59.0223 28.9169Z" fill="#DFD4BF"/>
<path d="M59.0223 35.6415C59.6552 35.6415 60.0447 36.0553 60.0447 37.029L60.0447 37.3455L60.3125 37.3455L60.3125 32.2334L60.0447 32.2334L60.0447 32.5499C60.0447 33.5236 59.6552 33.9374 59.0223 33.9374L19.4896 33.9374C18.8567 33.9374 18.4672 33.5236 18.4672 32.5499L18.4672 32.2334L18.1994 32.2334L18.1994 37.3455L18.4672 37.3455L18.4672 37.029C18.4672 36.0553 18.8567 35.6415 19.4896 35.6415L59.0223 35.6415Z" fill="#DFD4BF"/>
<mask id="path-4-inside-1_4_3" fill="white">
<path d="M1.03171 32.0364C0.950133 31.8696 1.07229 31.581 0.929442 31.3244C0.833663 31.1531 0.915228 30.9355 0.790236 30.7471C0.752089 30.6897 0.774413 30.4653 0.819464 30.33C0.942427 29.9574 0.885199 29.5808 0.891692 29.2019C0.902655 28.5195 0.743567 27.8414 0.844214 27.1599C0.921325 26.6384 0.891288 26.0995 1.02846 25.5942C1.10719 25.3034 1.0662 24.9962 1.20337 24.7176C1.27358 24.5748 1.21108 24.4007 1.24396 24.2394C1.34825 23.7299 1.46554 23.2235 1.57795 22.7162C1.71755 22.0841 1.84782 21.4466 2.0276 20.8276C2.15422 20.3908 2.26258 19.9452 2.42126 19.5149C2.74754 18.6293 3.14688 17.7762 3.53323 16.917C3.81 16.3005 4.17402 15.7309 4.52344 15.1547C4.95889 14.4361 5.38704 13.7126 5.88052 13.0305C6.19991 12.5892 6.5546 12.1778 6.91701 11.7729C7.35693 11.2816 7.78304 10.7766 8.24447 10.3063C8.94168 9.5959 9.63199 8.87884 10.3872 8.22575C10.9327 7.75393 11.5589 7.39498 12.1075 6.93428C12.515 6.59209 13.0121 6.39494 13.4188 6.05611C13.5141 5.97669 13.6497 5.94768 13.7592 5.88344C14.1716 5.6425 14.5713 5.37867 14.9946 5.15924C15.2494 5.02694 15.5242 4.92759 15.7839 4.80012C16.1719 4.60979 16.5521 4.40204 16.9478 4.22989C17.4336 4.01838 17.9287 3.82573 18.4267 3.64339C19.0512 3.41463 19.69 3.22304 20.3097 2.98153C20.9886 2.71673 21.7086 2.61344 22.3997 2.40173C22.8128 2.27519 23.2442 2.22004 23.6509 2.08161C23.9033 1.99582 24.1979 2.04468 24.4118 1.84193C24.9203 1.83154 25.4049 1.67229 25.904 1.60022C26.695 1.4861 27.4778 1.3174 28.2667 1.18908C28.7079 1.11737 29.1624 1.11594 29.5962 1.01822C30.052 0.915588 30.5102 0.844648 30.9708 0.820623C31.756 0.779635 32.5381 0.696483 33.3209 0.633702C34.2539 0.558867 35.1893 0.541091 36.1211 0.468124C36.4907 0.439148 36.8615 0.442881 37.2317 0.398605C37.7601 0.335377 38.2971 0.324381 38.8299 0.352464C39.5584 0.390896 40.287 0.373891 41.0151 0.370036C41.2964 0.368494 41.5813 0.374296 41.8658 0.352422C42.0939 0.33489 42.3641 0.38002 42.6027 0.436917C42.8932 0.506232 43.1787 0.446939 43.4647 0.482651C44.0506 0.555903 44.6463 0.494706 45.2283 0.564793C45.7605 0.628873 46.296 0.671889 46.8269 0.753501C47.2051 0.811575 47.5896 0.828133 47.9714 0.861573C48.4816 0.906255 48.9852 1.00369 49.4932 1.05909C49.9058 1.1041 50.3069 1.21472 50.7325 1.2101C50.9797 1.20742 51.2416 1.33611 51.5042 1.38468C51.9597 1.46889 52.4054 1.61645 52.8632 1.67485C53.2659 1.72619 53.6294 1.89351 54.0199 1.97455C54.3572 2.04452 54.7001 2.10649 55.0266 2.20892C55.3586 2.31305 55.7018 2.35859 56.0334 2.4624C56.4748 2.60066 56.9372 2.67205 57.378 2.81186C57.7578 2.93235 58.1464 3.01611 58.5263 3.13315C58.5747 3.14808 58.5981 3.18932 58.6318 3.2215C58.7017 3.2883 58.7689 3.36889 58.888 3.2803C58.9511 3.23339 59.0295 3.28907 59.0994 3.31309C59.4372 3.42916 59.7269 3.65557 60.0756 3.74392C60.6399 3.88685 61.1519 4.16066 61.6682 4.41057C62.2249 4.68 62.819 4.86311 63.3472 5.20388C63.8804 5.54786 64.4661 5.80941 65.0124 6.13452C65.266 6.28545 65.4672 6.52269 65.7161 6.68365C66.343 7.08894 66.9033 7.5828 67.4956 8.03184C67.7304 8.20992 67.9782 8.40496 68.2028 8.61534C68.6208 9.007 69.0058 9.43117 69.4283 9.81704C69.6337 10.0046 69.8497 10.1824 70.0387 10.3854C70.216 10.576 70.3556 10.8013 70.5266 10.9986C71.3082 11.9006 72.046 12.8354 72.6934 13.84C73.0465 14.3877 73.4228 14.9206 73.768 15.4731C73.9833 15.8178 74.1661 16.1836 74.352 16.5457C74.4652 16.7664 74.6372 16.9502 74.7242 17.1877C74.8823 17.6193 75.173 17.9866 75.2642 18.4593C75.3499 18.9037 75.545 19.3245 75.7419 19.7402C75.8343 19.9356 75.8716 20.17 75.9337 20.387C76.0348 20.7399 76.1752 21.0807 76.2694 21.4326C76.3273 21.6489 76.3887 21.8679 76.4348 22.0887C76.4545 22.1831 76.4719 22.2736 76.5383 22.3471C76.5708 22.3831 76.5944 22.4212 76.5908 22.4735C76.562 22.8979 76.7393 23.2863 76.8016 23.6938C76.8451 23.9783 76.8796 24.2671 76.9515 24.5429C77.0006 24.7315 76.9164 24.9493 77.0862 25.1182C77.1282 25.16 77.0576 25.2782 77.0633 25.3758C77.0915 25.8551 77.1512 26.3307 77.1954 26.8082C77.2282 27.1613 77.228 27.5176 77.2427 27.8724C77.2624 28.3454 77.2994 28.8185 77.2967 29.2913C77.2947 29.6618 77.2518 30.0331 77.2094 30.402C77.1971 30.5098 77.1882 30.6166 77.1913 30.7233C77.1997 31.0094 77.1103 31.2793 77.0676 31.5569C76.989 32.0683 76.9235 32.5821 76.8696 33.0968C76.8342 33.4339 76.691 33.7453 76.6564 34.0799C76.6032 34.5946 76.3537 35.0571 76.2688 35.5605C76.225 35.8198 76.0741 36.0577 76.1215 36.3359C76.1351 36.4155 76.0376 36.4585 76.0102 36.5386C75.7539 37.2885 75.4942 38.0374 75.2198 38.7808C74.981 39.4276 74.6624 40.0377 74.3423 40.6481C74.1974 40.9244 74.0624 41.2125 73.9198 41.4896C73.7899 41.742 73.6472 41.9977 73.4847 42.2382C73.2092 42.6458 72.9342 43.0568 72.7006 43.4888C72.2944 44.2403 71.7128 44.8608 71.2217 45.5483C71.0381 45.8053 70.7704 45.9771 70.5799 46.2303C70.2449 46.6754 69.8085 47.0338 69.4702 47.4782C69.3611 47.6217 69.1848 47.6776 69.0595 47.8002C68.7362 48.116 68.3708 48.3824 68.0286 48.676C67.831 48.8456 67.6477 49.0328 67.4653 49.2193C67.3033 49.385 67.085 49.4654 66.9084 49.6109C66.4935 49.9528 66.0284 50.2268 65.6027 50.5561C65.4133 50.7025 65.1596 50.8057 65.0011 50.9559C64.7974 51.149 64.4672 51.1156 64.3306 51.3944C64.3141 51.428 64.1601 51.412 64.0636 51.4728C63.5826 51.7757 63.0691 52.0215 62.5622 52.2784C62.0704 52.5277 61.5833 52.7876 61.0832 53.0193C60.7054 53.1943 60.3004 53.3118 59.9358 53.5156C59.2916 53.8755 58.5778 54.0331 57.8849 54.2545C57.4447 54.395 57.0267 54.5997 56.5778 54.7194C56.2993 54.7937 56.0283 54.8973 55.7489 54.9672C55.2151 55.1009 54.6775 55.2198 54.1416 55.345C53.5229 55.4896 52.9059 55.6425 52.2849 55.7764C51.8492 55.8703 51.4192 55.9851 50.977 56.0588C50.3545 56.1627 49.7324 56.2791 49.1122 56.402C48.7951 56.4648 48.4631 56.4488 48.139 56.4809C47.5016 56.5441 46.8659 56.6249 46.2279 56.6815C45.6845 56.7298 45.146 56.82 44.6001 56.8498C44.1588 56.8739 43.7201 56.9443 43.2791 56.9772C42.9261 57.0036 42.5714 57.0026 42.2174 57.021C41.4634 57.0602 40.707 57.0569 39.9537 57.104C39.6561 57.1226 39.3552 57.0879 39.0539 57.1709C38.9378 57.2029 38.7619 57.1072 38.6098 57.1267C38.2057 57.1785 37.8029 57.1857 37.3991 57.128C36.885 57.0545 36.3662 57.0955 35.8496 57.0652C35.206 57.0275 34.5615 57.0134 33.9191 56.9394C33.4727 56.888 33.0218 56.8651 32.5713 56.8419C32.0438 56.8148 31.5194 56.7241 30.9931 56.6688C30.4063 56.6071 29.8174 56.5668 29.2322 56.4927C28.8751 56.4475 28.5297 56.3298 28.1685 56.2885C27.6142 56.225 27.0602 56.1541 26.5095 56.0646C26.2518 56.0228 25.9909 55.9515 25.7376 55.9273C25.3314 55.8886 24.9467 55.7627 24.5713 55.6491C24.1691 55.5275 23.7625 55.4092 23.3587 55.2887C22.741 55.1041 22.1051 54.9794 21.4915 54.7824C21.1124 54.6605 20.7269 54.554 20.3515 54.4079C19.9416 54.2483 19.5196 54.107 19.1024 53.9594C18.477 53.7382 17.8638 53.4874 17.2583 53.2132C16.7133 52.9664 16.193 52.6641 15.6321 52.4566C15.247 52.314 14.9398 52.0441 14.5701 51.8805C14.1525 51.6954 13.7933 51.4121 13.4114 51.1673C13.1976 51.0302 12.9752 50.9039 12.7483 50.7896C12.5211 50.6752 12.3064 50.5429 12.1351 50.3573C11.9651 50.173 11.7175 50.1222 11.5309 49.9646C11.1664 49.6572 10.7582 49.4107 10.4075 49.0756C10.1105 48.7919 9.78093 48.514 9.38605 48.3487C9.3544 48.3354 9.33005 48.3195 9.30976 48.2889C8.94938 47.7463 8.43439 47.3478 7.97418 46.9024C7.78304 46.7178 7.66008 46.4938 7.47908 46.3083C7.16659 45.9876 6.92472 45.6061 6.5964 45.293C6.45193 45.1552 6.36062 44.9424 6.23846 44.7676C6.03433 44.4759 5.82736 44.1869 5.60496 43.909C5.32373 43.558 5.0851 43.1765 4.86393 42.7871C4.62571 42.3676 4.40088 41.938 4.15211 41.5267C3.88467 41.0845 3.65862 40.6211 3.39727 40.1765C3.2532 39.9318 3.19639 39.6412 3.05962 39.3861C2.70168 38.7173 2.47685 37.9946 2.21185 37.2872C2.03166 36.8072 1.89084 36.3142 1.75935 35.8258C1.58322 35.1724 1.37017 34.5235 1.32674 33.8309C1.30443 33.4728 1.17456 33.1114 1.12545 32.745C1.09785 32.5394 1.07107 32.3336 1.03171 32.0364Z"/>
</mask>
<path d="M1.03171 32.0364C0.950133 31.8696 1.07229 31.581 0.929442 31.3244C0.833663 31.1531 0.915228 30.9355 0.790236 30.7471C0.752089 30.6897 0.774413 30.4653 0.819464 30.33C0.942427 29.9574 0.885199 29.5808 0.891692 29.2019C0.902655 28.5195 0.743567 27.8414 0.844214 27.1599C0.921325 26.6384 0.891288 26.0995 1.02846 25.5942C1.10719 25.3034 1.0662 24.9962 1.20337 24.7176C1.27358 24.5748 1.21108 24.4007 1.24396 24.2394C1.34825 23.7299 1.46554 23.2235 1.57795 22.7162C1.71755 22.0841 1.84782 21.4466 2.0276 20.8276C2.15422 20.3908 2.26258 19.9452 2.42126 19.5149C2.74754 18.6293 3.14688 17.7762 3.53323 16.917C3.81 16.3005 4.17402 15.7309 4.52344 15.1547C4.95889 14.4361 5.38704 13.7126 5.88052 13.0305C6.19991 12.5892 6.5546 12.1778 6.91701 11.7729C7.35693 11.2816 7.78304 10.7766 8.24447 10.3063C8.94168 9.5959 9.63199 8.87884 10.3872 8.22575C10.9327 7.75393 11.5589 7.39498 12.1075 6.93428C12.515 6.59209 13.0121 6.39494 13.4188 6.05611C13.5141 5.97669 13.6497 5.94768 13.7592 5.88344C14.1716 5.6425 14.5713 5.37867 14.9946 5.15924C15.2494 5.02694 15.5242 4.92759 15.7839 4.80012C16.1719 4.60979 16.5521 4.40204 16.9478 4.22989C17.4336 4.01838 17.9287 3.82573 18.4267 3.64339C19.0512 3.41463 19.69 3.22304 20.3097 2.98153C20.9886 2.71673 21.7086 2.61344 22.3997 2.40173C22.8128 2.27519 23.2442 2.22004 23.6509 2.08161C23.9033 1.99582 24.1979 2.04468 24.4118 1.84193C24.9203 1.83154 25.4049 1.67229 25.904 1.60022C26.695 1.4861 27.4778 1.3174 28.2667 1.18908C28.7079 1.11737 29.1624 1.11594 29.5962 1.01822C30.052 0.915588 30.5102 0.844648 30.9708 0.820623C31.756 0.779635 32.5381 0.696483 33.3209 0.633702C34.2539 0.558867 35.1893 0.541091 36.1211 0.468124C36.4907 0.439148 36.8615 0.442881 37.2317 0.398605C37.7601 0.335377 38.2971 0.324381 38.8299 0.352464C39.5584 0.390896 40.287 0.373891 41.0151 0.370036C41.2964 0.368494 41.5813 0.374296 41.8658 0.352422C42.0939 0.33489 42.3641 0.38002 42.6027 0.436917C42.8932 0.506232 43.1787 0.446939 43.4647 0.482651C44.0506 0.555903 44.6463 0.494706 45.2283 0.564793C45.7605 0.628873 46.296 0.671889 46.8269 0.753501C47.2051 0.811575 47.5896 0.828133 47.9714 0.861573C48.4816 0.906255 48.9852 1.00369 49.4932 1.05909C49.9058 1.1041 50.3069 1.21472 50.7325 1.2101C50.9797 1.20742 51.2416 1.33611 51.5042 1.38468C51.9597 1.46889 52.4054 1.61645 52.8632 1.67485C53.2659 1.72619 53.6294 1.89351 54.0199 1.97455C54.3572 2.04452 54.7001 2.10649 55.0266 2.20892C55.3586 2.31305 55.7018 2.35859 56.0334 2.4624C56.4748 2.60066 56.9372 2.67205 57.378 2.81186C57.7578 2.93235 58.1464 3.01611 58.5263 3.13315C58.5747 3.14808 58.5981 3.18932 58.6318 3.2215C58.7017 3.2883 58.7689 3.36889 58.888 3.2803C58.9511 3.23339 59.0295 3.28907 59.0994 3.31309C59.4372 3.42916 59.7269 3.65557 60.0756 3.74392C60.6399 3.88685 61.1519 4.16066 61.6682 4.41057C62.2249 4.68 62.819 4.86311 63.3472 5.20388C63.8804 5.54786 64.4661 5.80941 65.0124 6.13452C65.266 6.28545 65.4672 6.52269 65.7161 6.68365C66.343 7.08894 66.9033 7.5828 67.4956 8.03184C67.7304 8.20992 67.9782 8.40496 68.2028 8.61534C68.6208 9.007 69.0058 9.43117 69.4283 9.81704C69.6337 10.0046 69.8497 10.1824 70.0387 10.3854C70.216 10.576 70.3556 10.8013 70.5266 10.9986C71.3082 11.9006 72.046 12.8354 72.6934 13.84C73.0465 14.3877 73.4228 14.9206 73.768 15.4731C73.9833 15.8178 74.1661 16.1836 74.352 16.5457C74.4652 16.7664 74.6372 16.9502 74.7242 17.1877C74.8823 17.6193 75.173 17.9866 75.2642 18.4593C75.3499 18.9037 75.545 19.3245 75.7419 19.7402C75.8343 19.9356 75.8716 20.17 75.9337 20.387C76.0348 20.7399 76.1752 21.0807 76.2694 21.4326C76.3273 21.6489 76.3887 21.8679 76.4348 22.0887C76.4545 22.1831 76.4719 22.2736 76.5383 22.3471C76.5708 22.3831 76.5944 22.4212 76.5908 22.4735C76.562 22.8979 76.7393 23.2863 76.8016 23.6938C76.8451 23.9783 76.8796 24.2671 76.9515 24.5429C77.0006 24.7315 76.9164 24.9493 77.0862 25.1182C77.1282 25.16 77.0576 25.2782 77.0633 25.3758C77.0915 25.8551 77.1512 26.3307 77.1954 26.8082C77.2282 27.1613 77.228 27.5176 77.2427 27.8724C77.2624 28.3454 77.2994 28.8185 77.2967 29.2913C77.2947 29.6618 77.2518 30.0331 77.2094 30.402C77.1971 30.5098 77.1882 30.6166 77.1913 30.7233C77.1997 31.0094 77.1103 31.2793 77.0676 31.5569C76.989 32.0683 76.9235 32.5821 76.8696 33.0968C76.8342 33.4339 76.691 33.7453 76.6564 34.0799C76.6032 34.5946 76.3537 35.0571 76.2688 35.5605C76.225 35.8198 76.0741 36.0577 76.1215 36.3359C76.1351 36.4155 76.0376 36.4585 76.0102 36.5386C75.7539 37.2885 75.4942 38.0374 75.2198 38.7808C74.981 39.4276 74.6624 40.0377 74.3423 40.6481C74.1974 40.9244 74.0624 41.2125 73.9198 41.4896C73.7899 41.742 73.6472 41.9977 73.4847 42.2382C73.2092 42.6458 72.9342 43.0568 72.7006 43.4888C72.2944 44.2403 71.7128 44.8608 71.2217 45.5483C71.0381 45.8053 70.7704 45.9771 70.5799 46.2303C70.2449 46.6754 69.8085 47.0338 69.4702 47.4782C69.3611 47.6217 69.1848 47.6776 69.0595 47.8002C68.7362 48.116 68.3708 48.3824 68.0286 48.676C67.831 48.8456 67.6477 49.0328 67.4653 49.2193C67.3033 49.385 67.085 49.4654 66.9084 49.6109C66.4935 49.9528 66.0284 50.2268 65.6027 50.5561C65.4133 50.7025 65.1596 50.8057 65.0011 50.9559C64.7974 51.149 64.4672 51.1156 64.3306 51.3944C64.3141 51.428 64.1601 51.412 64.0636 51.4728C63.5826 51.7757 63.0691 52.0215 62.5622 52.2784C62.0704 52.5277 61.5833 52.7876 61.0832 53.0193C60.7054 53.1943 60.3004 53.3118 59.9358 53.5156C59.2916 53.8755 58.5778 54.0331 57.8849 54.2545C57.4447 54.395 57.0267 54.5997 56.5778 54.7194C56.2993 54.7937 56.0283 54.8973 55.7489 54.9672C55.2151 55.1009 54.6775 55.2198 54.1416 55.345C53.5229 55.4896 52.9059 55.6425 52.2849 55.7764C51.8492 55.8703 51.4192 55.9851 50.977 56.0588C50.3545 56.1627 49.7324 56.2791 49.1122 56.402C48.7951 56.4648 48.4631 56.4488 48.139 56.4809C47.5016 56.5441 46.8659 56.6249 46.2279 56.6815C45.6845 56.7298 45.146 56.82 44.6001 56.8498C44.1588 56.8739 43.7201 56.9443 43.2791 56.9772C42.9261 57.0036 42.5714 57.0026 42.2174 57.021C41.4634 57.0602 40.707 57.0569 39.9537 57.104C39.6561 57.1226 39.3552 57.0879 39.0539 57.1709C38.9378 57.2029 38.7619 57.1072 38.6098 57.1267C38.2057 57.1785 37.8029 57.1857 37.3991 57.128C36.885 57.0545 36.3662 57.0955 35.8496 57.0652C35.206 57.0275 34.5615 57.0134 33.9191 56.9394C33.4727 56.888 33.0218 56.8651 32.5713 56.8419C32.0438 56.8148 31.5194 56.7241 30.9931 56.6688C30.4063 56.6071 29.8174 56.5668 29.2322 56.4927C28.8751 56.4475 28.5297 56.3298 28.1685 56.2885C27.6142 56.225 27.0602 56.1541 26.5095 56.0646C26.2518 56.0228 25.9909 55.9515 25.7376 55.9273C25.3314 55.8886 24.9467 55.7627 24.5713 55.6491C24.1691 55.5275 23.7625 55.4092 23.3587 55.2887C22.741 55.1041 22.1051 54.9794 21.4915 54.7824C21.1124 54.6605 20.7269 54.554 20.3515 54.4079C19.9416 54.2483 19.5196 54.107 19.1024 53.9594C18.477 53.7382 17.8638 53.4874 17.2583 53.2132C16.7133 52.9664 16.193 52.6641 15.6321 52.4566C15.247 52.314 14.9398 52.0441 14.5701 51.8805C14.1525 51.6954 13.7933 51.4121 13.4114 51.1673C13.1976 51.0302 12.9752 50.9039 12.7483 50.7896C12.5211 50.6752 12.3064 50.5429 12.1351 50.3573C11.9651 50.173 11.7175 50.1222 11.5309 49.9646C11.1664 49.6572 10.7582 49.4107 10.4075 49.0756C10.1105 48.7919 9.78093 48.514 9.38605 48.3487C9.3544 48.3354 9.33005 48.3195 9.30976 48.2889C8.94938 47.7463 8.43439 47.3478 7.97418 46.9024C7.78304 46.7178 7.66008 46.4938 7.47908 46.3083C7.16659 45.9876 6.92472 45.6061 6.5964 45.293C6.45193 45.1552 6.36062 44.9424 6.23846 44.7676C6.03433 44.4759 5.82736 44.1869 5.60496 43.909C5.32373 43.558 5.0851 43.1765 4.86393 42.7871C4.62571 42.3676 4.40088 41.938 4.15211 41.5267C3.88467 41.0845 3.65862 40.6211 3.39727 40.1765C3.2532 39.9318 3.19639 39.6412 3.05962 39.3861C2.70168 38.7173 2.47685 37.9946 2.21185 37.2872C2.03166 36.8072 1.89084 36.3142 1.75935 35.8258C1.58322 35.1724 1.37017 34.5235 1.32674 33.8309C1.30443 33.4728 1.17456 33.1114 1.12545 32.745C1.09785 32.5394 1.07107 32.3336 1.03171 32.0364Z" stroke="#DFD4BF" stroke-width="2" mask="url(#path-4-inside-1_4_3)"/>
</svg>
