<svg width="41" height="59" viewBox="0 0 41 59" fill="none" xmlns="http://www.w3.org/2000/svg">
<path d="M25.8946 36.2485L37.8321 33.7148V37.3994C37.4627 37.3994 37.1739 37.4467 36.885 37.4467C31.0039 37.4467 25.1275 37.4799 19.2511 37.4467C16.7285 37.4509 14.2314 36.9423 11.9113 35.9519C9.5912 34.9615 7.49652 33.5098 5.75443 31.6851C4.01234 29.8604 2.65916 27.7006 1.77704 25.3369C0.894911 22.9732 0.502243 20.4549 0.622859 17.9348C0.949588 9.35338 7.72566 1.83277 16.249 0.58723C26.0888 -0.861954 35.3319 5.57887 37.2354 15.1975C38.0513 19.3222 37.443 23.6018 35.51 27.3357C33.5771 31.0696 30.4341 34.0367 26.5954 35.7513C26.3303 35.8697 26.0698 36.0023 25.8094 36.1254L25.8946 36.2485ZM21.1594 35.8697C28.2385 35.9454 33.2626 31.8631 34.4795 25.8154C35.3371 21.4985 34.6446 17.0175 32.5239 13.161C29.5265 7.42586 25.0896 3.42877 18.5693 2.07904C13.2706 0.985043 8.00031 3.1825 5.27757 7.76211C3.05203 11.5177 2.86262 15.5953 3.81439 19.7439C4.79702 24.0221 7.07177 27.8944 10.33 30.8354C13.6541 33.8995 17.4944 35.7607 21.1736 35.8697H21.1594Z" fill="#DFD4BF"/>
<path d="M36.6162 24.9149L21.6263 22.0547V36.0696L21.6541 36.3979L21.6597 36.7227V58.1167L40.1289 55.2566V58.6316H15.5398C16.25 57.9022 16.8029 57.2301 17.4463 56.6771C17.7683 56.4016 18.0189 56.0521 18.1766 55.6586C18.3343 55.2651 18.3944 54.8393 18.3519 54.4176C18.3233 44.9027 18.3233 35.3879 18.3519 25.8731C18.385 25.4179 18.3119 24.9613 18.1382 24.5394C17.9644 24.1174 17.6949 23.7417 17.351 23.4419C16.7314 22.9032 16.1403 22.3407 15.535 21.7878L15.6923 21.5542H36.6162V24.9149Z" fill="#DFD4BF"/>
</svg>
