<svg width="78" height="58" viewBox="0 0 78 58" fill="none" xmlns="http://www.w3.org/2000/svg">
<path d="M45.1437 47.8089C45.1437 48.4418 44.7298 48.8313 43.7561 48.8313L43.4396 48.8313L43.4396 49.0991L48.5518 49.0991L48.5518 48.8313L48.2353 48.8313C47.2616 48.8313 46.8477 48.4418 46.8477 47.8089L46.8477 8.27623C46.8477 7.64331 47.2616 7.25381 48.2353 7.25381L48.5518 7.25381L48.5518 6.98603L43.4397 6.98603L43.4397 7.25381L43.7561 7.25381C44.7299 7.25381 45.1437 7.64331 45.1437 8.27623L45.1437 47.8089Z" fill="#DFD4BF"/>
<path d="M59.0379 28.8949C59.6709 28.8949 60.0603 29.3087 60.0603 30.2825L60.0603 30.5989L60.3281 30.5989L60.3281 25.4868L60.0603 25.4868L60.0603 25.8033C60.0603 26.777 59.6709 27.1909 59.0379 27.1909L19.5052 27.1909C18.8723 27.1909 18.4828 26.777 18.4828 25.8033L18.4828 25.4868L18.215 25.4868L18.215 30.5989L18.4828 30.5989L18.4828 30.2825C18.4828 29.3087 18.8723 28.8949 19.5052 28.8949L59.0379 28.8949Z" fill="#DFD4BF"/>
<path d="M31.6945 47.8089C31.6945 48.4418 31.2806 48.8313 30.3069 48.8313L29.9904 48.8313L29.9904 49.0991L35.1025 49.0991L35.1025 48.8313L34.7861 48.8313C33.8123 48.8313 33.3985 48.4418 33.3985 47.8089L33.3985 8.27623C33.3985 7.64331 33.8123 7.25381 34.7861 7.25381L35.1025 7.25381L35.1025 6.98603L29.9904 6.98603L29.9904 7.25381L30.3069 7.25381C31.2806 7.25381 31.6945 7.64331 31.6945 8.27623L31.6945 47.8089Z" fill="#DFD4BF"/>
<mask id="path-4-inside-1_64_6" fill="white">
<path d="M1.04733 32.0139C0.965761 31.8471 1.08791 31.5586 0.945063 31.302C0.849288 31.1306 0.930857 30.9131 0.805862 30.7246C0.767715 30.6672 0.790039 30.4428 0.835086 30.3076C0.958051 29.9349 0.900826 29.5583 0.907319 29.1794C0.918277 28.497 0.759196 27.8189 0.859841 27.1374C0.936948 26.616 0.906913 26.077 1.04408 25.5717C1.12281 25.2809 1.08183 24.9738 1.219 24.6951C1.2892 24.5523 1.22671 24.3782 1.25958 24.217C1.36388 23.7074 1.48116 23.201 1.59357 22.6937C1.73318 22.0616 1.86345 21.4241 2.04323 20.8052C2.16985 20.3684 2.2782 19.9228 2.43688 19.4925C2.76317 18.6069 3.1625 17.7538 3.54885 16.8946C3.82562 16.2781 4.18965 15.7085 4.53906 15.1322C4.97452 14.4137 5.40267 13.6901 5.89615 13.008C6.21554 12.5668 6.57023 12.1553 6.93263 11.7504C7.37255 11.2591 7.79867 10.7541 8.26009 10.2838C8.9573 9.57344 9.64762 8.85638 10.4029 8.20328C10.9483 7.73147 11.5745 7.37252 12.1232 6.91182C12.5306 6.56963 13.0277 6.37248 13.4344 6.03365C13.5298 5.95423 13.6653 5.92522 13.7749 5.86097C14.1872 5.62004 14.5869 5.35621 15.0102 5.13678C15.2651 5.00448 15.5398 4.90513 15.7995 4.77766C16.1875 4.58733 16.5678 4.37958 16.9635 4.20743C17.4492 3.99591 17.9443 3.80327 18.4423 3.62093C19.0669 3.39217 19.7056 3.20058 20.3253 2.95907C21.0043 2.69427 21.7242 2.59098 22.4153 2.37926C22.8285 2.25273 23.2599 2.19758 23.6665 2.05915C23.9189 1.97336 24.2135 2.02222 24.4274 1.81947C24.9359 1.80908 25.4205 1.64983 25.9196 1.57776C26.7106 1.46364 27.4934 1.29494 28.2824 1.16661C28.7235 1.0949 29.178 1.09348 29.6119 0.99576C30.0676 0.893127 30.5258 0.822187 30.9864 0.798163C31.7717 0.757174 32.5537 0.674022 33.3365 0.611241C34.2695 0.536406 35.205 0.51863 36.1367 0.445663C36.5064 0.416687 36.8771 0.42042 37.2473 0.376144C37.7757 0.312916 38.3127 0.30192 38.8455 0.330003C39.574 0.368435 40.3026 0.35143 41.0307 0.347575C41.312 0.346033 41.5969 0.351835 41.8814 0.329961C42.1096 0.312429 42.3798 0.357559 42.6183 0.414456C42.9088 0.483771 43.1943 0.424478 43.4803 0.46019C44.0663 0.533442 44.6619 0.472245 45.2439 0.542332C45.7761 0.606412 46.3117 0.649428 46.8426 0.73104C47.2207 0.789114 47.6052 0.805672 47.987 0.839113C48.4972 0.883794 49.0008 0.981233 49.5088 1.03663C49.9215 1.08163 50.3226 1.19226 50.7481 1.18764C50.9954 1.18496 51.2572 1.31365 51.5198 1.36222C51.9753 1.44643 52.421 1.59399 52.8788 1.65239C53.2815 1.70373 53.645 1.87105 54.0355 1.95209C54.3728 2.02206 54.7158 2.08403 55.0423 2.18646C55.3743 2.29059 55.7174 2.33613 56.049 2.43994C56.4904 2.5782 56.9528 2.64959 57.3937 2.7894C57.7735 2.90989 58.1621 2.99365 58.5419 3.11069C58.5903 3.12562 58.6137 3.16685 58.6474 3.19904C58.7173 3.26584 58.7845 3.34643 58.9036 3.25784C58.9667 3.21093 59.0451 3.26661 59.1151 3.29063C59.4528 3.4067 59.7425 3.63311 60.0913 3.72146C60.6555 3.86439 61.1676 4.1382 61.6839 4.38811C62.2405 4.65754 62.8346 4.84064 63.3628 5.18142C63.896 5.5254 64.4817 5.78695 65.0281 6.11206C65.2817 6.26299 65.4828 6.50023 65.7317 6.66118C66.3586 7.06648 66.9189 7.56033 67.5112 8.00938C67.746 8.18746 67.9938 8.3825 68.2184 8.59288C68.6364 8.98454 69.0214 9.40871 69.444 9.79457C69.6493 9.98211 69.8654 10.1599 70.0543 10.3629C70.2317 10.5535 70.3712 10.7788 70.5422 10.9761C71.3239 11.8782 72.0616 12.8129 72.7091 13.8175C73.0621 14.3652 73.4385 14.8982 73.7836 15.4507C73.999 15.7954 74.1817 16.1611 74.3676 16.5233C74.4809 16.7439 74.6528 16.9278 74.7398 17.1652C74.8979 17.5969 75.1887 17.9641 75.2798 18.4368C75.3655 18.8812 75.5607 19.302 75.7575 19.7178C75.85 19.9131 75.8872 20.1476 75.9494 20.3645C76.0504 20.7174 76.1909 21.0583 76.2851 21.4102C76.3429 21.6265 76.4044 21.8454 76.4504 22.0662C76.4701 22.1607 76.4875 22.2511 76.554 22.3247C76.5864 22.3606 76.61 22.3987 76.6065 22.4511C76.5777 22.8755 76.7549 23.2638 76.8172 23.6714C76.8608 23.9558 76.8953 24.2446 76.9671 24.5204C77.0162 24.709 76.932 24.9268 77.1018 25.0957C77.1438 25.1375 77.0733 25.2557 77.079 25.3534C77.1071 25.8327 77.1668 26.3083 77.2111 26.7857C77.2438 27.1389 77.2436 27.4951 77.2583 27.85C77.278 28.323 77.315 28.796 77.3124 29.2689C77.3103 29.6394 77.2674 30.0106 77.2251 30.3795C77.2127 30.4874 77.2038 30.5941 77.207 30.7009C77.2153 30.9869 77.1259 31.2568 77.0832 31.5344C77.0046 32.0458 76.9392 32.5597 76.8852 33.0743C76.8498 33.4115 76.7066 33.7228 76.6721 34.0575C76.6188 34.5722 76.3693 35.0346 76.2844 35.538C76.2407 35.7974 76.0898 36.0352 76.1371 36.3134C76.1507 36.393 76.0532 36.436 76.0259 36.5161C75.7696 37.266 75.5098 38.015 75.2354 38.7583C74.9966 39.4051 74.6781 40.0152 74.3579 40.6257C74.2131 40.9019 74.078 41.19 73.9354 41.4671C73.8055 41.7195 73.6628 41.9753 73.5003 42.2158C73.2248 42.6233 72.9498 43.0343 72.7163 43.4664C72.31 44.2179 71.7284 44.8383 71.2373 45.5258C71.0537 45.7828 70.7861 45.9547 70.5955 46.2079C70.2605 46.6529 69.8241 47.0113 69.4859 47.4558C69.3767 47.5992 69.2004 47.6552 69.0751 47.7777C68.7519 48.0936 68.3864 48.3599 68.0443 48.6535C67.8466 48.8231 67.6633 49.0104 67.481 49.1969C67.3189 49.3626 67.1006 49.443 66.924 49.5884C66.5091 49.9303 66.0441 50.2044 65.6183 50.5336C65.4289 50.68 65.1753 50.7832 65.0167 50.9334C64.813 51.1265 64.4828 51.0932 64.3462 51.3719C64.3298 51.4055 64.1757 51.3895 64.0792 51.4503C63.5982 51.7533 63.0847 51.999 62.5778 52.2559C62.086 52.5053 61.5989 52.7651 61.0988 52.9968C60.7211 53.1719 60.316 53.2893 59.9514 53.4931C59.3072 53.8531 58.5934 54.0107 57.9005 54.232C57.4603 54.3725 57.0423 54.5772 56.5934 54.697C56.3149 54.7713 56.044 54.8748 55.7645 54.9448C55.2307 55.0784 54.6931 55.1973 54.1572 55.3226C53.5385 55.4671 52.9216 55.62 52.3006 55.7539C51.8648 55.8479 51.4349 55.9626 50.9926 56.0364C50.3701 56.1402 49.748 56.2567 49.1279 56.3796C48.8107 56.4424 48.4787 56.4264 48.1546 56.4585C47.5173 56.5216 46.8815 56.6024 46.2436 56.659C45.7001 56.7073 45.1616 56.7975 44.6157 56.8274C44.1744 56.8515 43.7358 56.9218 43.2947 56.9548C42.9417 56.9812 42.587 56.9802 42.233 56.9986C41.479 57.0377 40.7227 57.0344 39.9693 57.0816C39.6717 57.1002 39.3708 57.0654 39.0695 57.1484C38.9535 57.1805 38.7775 57.0847 38.6254 57.1042C38.2213 57.156 37.8185 57.1632 37.4148 57.1055C36.9007 57.032 36.3819 57.0731 35.8652 57.0428C35.2216 57.0051 34.5771 56.9909 33.9347 56.917C33.4883 56.8655 33.0374 56.8426 32.587 56.8194C32.0594 56.7924 31.5351 56.7017 31.0087 56.6463C30.4219 56.5846 29.833 56.5443 29.2478 56.4703C28.8907 56.425 28.5453 56.3074 28.1842 56.266C27.6298 56.2026 27.0758 56.1316 26.5251 56.0421C26.2674 56.0003 26.0065 55.929 25.7533 55.9049C25.347 55.8661 24.9623 55.7403 24.5869 55.6267C24.1847 55.505 23.7781 55.3868 23.3743 55.2662C22.7566 55.0816 22.1207 54.9569 21.5071 54.7599C21.128 54.6381 20.7425 54.5316 20.3671 54.3854C19.9572 54.2258 19.5352 54.0846 19.118 53.9369C18.4926 53.7157 17.8794 53.4649 17.2739 53.1908C16.7289 52.9439 16.2086 52.6417 15.6478 52.4341C15.2626 52.2915 14.9554 52.0216 14.5857 51.858C14.1681 51.673 13.809 51.3896 13.4271 51.1448C13.2132 51.0077 12.9908 50.8814 12.764 50.7672C12.5367 50.6528 12.322 50.5204 12.1508 50.3349C11.9807 50.1505 11.7332 50.0997 11.5465 49.9422C11.182 49.6347 10.7738 49.3883 10.4231 49.0531C10.1261 48.7694 9.79655 48.4915 9.40168 48.3262C9.37003 48.3129 9.34568 48.297 9.32538 48.2664C8.96501 47.7238 8.45002 47.3254 7.98981 46.8799C7.79866 46.6953 7.6757 46.4713 7.4947 46.2858C7.18221 45.9652 6.94034 45.5837 6.61203 45.2705C6.46755 45.1327 6.37624 44.92 6.25409 44.7452C6.04996 44.4534 5.84298 44.1645 5.62059 43.8865C5.33935 43.5355 5.10073 43.154 4.87955 42.7646C4.64133 42.3452 4.41651 41.9155 4.16773 41.5043C3.90029 41.062 3.67425 40.5986 3.41289 40.154C3.26882 39.9094 3.21201 39.6187 3.07525 39.3636C2.71731 38.6948 2.49248 37.9721 2.22747 37.2647C2.04729 36.7848 1.90646 36.2918 1.77498 35.8033C1.59885 35.1499 1.38579 34.5011 1.34237 33.8084C1.32005 33.4503 1.19018 33.0889 1.14108 32.7226C1.11348 32.5169 1.0867 32.3111 1.04733 32.0139Z"/>
</mask>
<path d="M1.04733 32.0139C0.965761 31.8471 1.08791 31.5586 0.945063 31.302C0.849288 31.1306 0.930857 30.9131 0.805862 30.7246C0.767715 30.6672 0.790039 30.4428 0.835086 30.3076C0.958051 29.9349 0.900826 29.5583 0.907319 29.1794C0.918277 28.497 0.759196 27.8189 0.859841 27.1374C0.936948 26.616 0.906913 26.077 1.04408 25.5717C1.12281 25.2809 1.08183 24.9738 1.219 24.6951C1.2892 24.5523 1.22671 24.3782 1.25958 24.217C1.36388 23.7074 1.48116 23.201 1.59357 22.6937C1.73318 22.0616 1.86345 21.4241 2.04323 20.8052C2.16985 20.3684 2.2782 19.9228 2.43688 19.4925C2.76317 18.6069 3.1625 17.7538 3.54885 16.8946C3.82562 16.2781 4.18965 15.7085 4.53906 15.1322C4.97452 14.4137 5.40267 13.6901 5.89615 13.008C6.21554 12.5668 6.57023 12.1553 6.93263 11.7504C7.37255 11.2591 7.79867 10.7541 8.26009 10.2838C8.9573 9.57344 9.64762 8.85638 10.4029 8.20328C10.9483 7.73147 11.5745 7.37252 12.1232 6.91182C12.5306 6.56963 13.0277 6.37248 13.4344 6.03365C13.5298 5.95423 13.6653 5.92522 13.7749 5.86097C14.1872 5.62004 14.5869 5.35621 15.0102 5.13678C15.2651 5.00448 15.5398 4.90513 15.7995 4.77766C16.1875 4.58733 16.5678 4.37958 16.9635 4.20743C17.4492 3.99591 17.9443 3.80327 18.4423 3.62093C19.0669 3.39217 19.7056 3.20058 20.3253 2.95907C21.0043 2.69427 21.7242 2.59098 22.4153 2.37926C22.8285 2.25273 23.2599 2.19758 23.6665 2.05915C23.9189 1.97336 24.2135 2.02222 24.4274 1.81947C24.9359 1.80908 25.4205 1.64983 25.9196 1.57776C26.7106 1.46364 27.4934 1.29494 28.2824 1.16661C28.7235 1.0949 29.178 1.09348 29.6119 0.99576C30.0676 0.893127 30.5258 0.822187 30.9864 0.798163C31.7717 0.757174 32.5537 0.674022 33.3365 0.611241C34.2695 0.536406 35.205 0.51863 36.1367 0.445663C36.5064 0.416687 36.8771 0.42042 37.2473 0.376144C37.7757 0.312916 38.3127 0.30192 38.8455 0.330003C39.574 0.368435 40.3026 0.35143 41.0307 0.347575C41.312 0.346033 41.5969 0.351835 41.8814 0.329961C42.1096 0.312429 42.3798 0.357559 42.6183 0.414456C42.9088 0.483771 43.1943 0.424478 43.4803 0.46019C44.0663 0.533442 44.6619 0.472245 45.2439 0.542332C45.7761 0.606412 46.3117 0.649428 46.8426 0.73104C47.2207 0.789114 47.6052 0.805672 47.987 0.839113C48.4972 0.883794 49.0008 0.981233 49.5088 1.03663C49.9215 1.08163 50.3226 1.19226 50.7481 1.18764C50.9954 1.18496 51.2572 1.31365 51.5198 1.36222C51.9753 1.44643 52.421 1.59399 52.8788 1.65239C53.2815 1.70373 53.645 1.87105 54.0355 1.95209C54.3728 2.02206 54.7158 2.08403 55.0423 2.18646C55.3743 2.29059 55.7174 2.33613 56.049 2.43994C56.4904 2.5782 56.9528 2.64959 57.3937 2.7894C57.7735 2.90989 58.1621 2.99365 58.5419 3.11069C58.5903 3.12562 58.6137 3.16685 58.6474 3.19904C58.7173 3.26584 58.7845 3.34643 58.9036 3.25784C58.9667 3.21093 59.0451 3.26661 59.1151 3.29063C59.4528 3.4067 59.7425 3.63311 60.0913 3.72146C60.6555 3.86439 61.1676 4.1382 61.6839 4.38811C62.2405 4.65754 62.8346 4.84064 63.3628 5.18142C63.896 5.5254 64.4817 5.78695 65.0281 6.11206C65.2817 6.26299 65.4828 6.50023 65.7317 6.66118C66.3586 7.06648 66.9189 7.56033 67.5112 8.00938C67.746 8.18746 67.9938 8.3825 68.2184 8.59288C68.6364 8.98454 69.0214 9.40871 69.444 9.79457C69.6493 9.98211 69.8654 10.1599 70.0543 10.3629C70.2317 10.5535 70.3712 10.7788 70.5422 10.9761C71.3239 11.8782 72.0616 12.8129 72.7091 13.8175C73.0621 14.3652 73.4385 14.8982 73.7836 15.4507C73.999 15.7954 74.1817 16.1611 74.3676 16.5233C74.4809 16.7439 74.6528 16.9278 74.7398 17.1652C74.8979 17.5969 75.1887 17.9641 75.2798 18.4368C75.3655 18.8812 75.5607 19.302 75.7575 19.7178C75.85 19.9131 75.8872 20.1476 75.9494 20.3645C76.0504 20.7174 76.1909 21.0583 76.2851 21.4102C76.3429 21.6265 76.4044 21.8454 76.4504 22.0662C76.4701 22.1607 76.4875 22.2511 76.554 22.3247C76.5864 22.3606 76.61 22.3987 76.6065 22.4511C76.5777 22.8755 76.7549 23.2638 76.8172 23.6714C76.8608 23.9558 76.8953 24.2446 76.9671 24.5204C77.0162 24.709 76.932 24.9268 77.1018 25.0957C77.1438 25.1375 77.0733 25.2557 77.079 25.3534C77.1071 25.8327 77.1668 26.3083 77.2111 26.7857C77.2438 27.1389 77.2436 27.4951 77.2583 27.85C77.278 28.323 77.315 28.796 77.3124 29.2689C77.3103 29.6394 77.2674 30.0106 77.2251 30.3795C77.2127 30.4874 77.2038 30.5941 77.207 30.7009C77.2153 30.9869 77.1259 31.2568 77.0832 31.5344C77.0046 32.0458 76.9392 32.5597 76.8852 33.0743C76.8498 33.4115 76.7066 33.7228 76.6721 34.0575C76.6188 34.5722 76.3693 35.0346 76.2844 35.538C76.2407 35.7974 76.0898 36.0352 76.1371 36.3134C76.1507 36.393 76.0532 36.436 76.0259 36.5161C75.7696 37.266 75.5098 38.015 75.2354 38.7583C74.9966 39.4051 74.6781 40.0152 74.3579 40.6257C74.2131 40.9019 74.078 41.19 73.9354 41.4671C73.8055 41.7195 73.6628 41.9753 73.5003 42.2158C73.2248 42.6233 72.9498 43.0343 72.7163 43.4664C72.31 44.2179 71.7284 44.8383 71.2373 45.5258C71.0537 45.7828 70.7861 45.9547 70.5955 46.2079C70.2605 46.6529 69.8241 47.0113 69.4859 47.4558C69.3767 47.5992 69.2004 47.6552 69.0751 47.7777C68.7519 48.0936 68.3864 48.3599 68.0443 48.6535C67.8466 48.8231 67.6633 49.0104 67.481 49.1969C67.3189 49.3626 67.1006 49.443 66.924 49.5884C66.5091 49.9303 66.0441 50.2044 65.6183 50.5336C65.4289 50.68 65.1753 50.7832 65.0167 50.9334C64.813 51.1265 64.4828 51.0932 64.3462 51.3719C64.3298 51.4055 64.1757 51.3895 64.0792 51.4503C63.5982 51.7533 63.0847 51.999 62.5778 52.2559C62.086 52.5053 61.5989 52.7651 61.0988 52.9968C60.7211 53.1719 60.316 53.2893 59.9514 53.4931C59.3072 53.8531 58.5934 54.0107 57.9005 54.232C57.4603 54.3725 57.0423 54.5772 56.5934 54.697C56.3149 54.7713 56.044 54.8748 55.7645 54.9448C55.2307 55.0784 54.6931 55.1973 54.1572 55.3226C53.5385 55.4671 52.9216 55.62 52.3006 55.7539C51.8648 55.8479 51.4349 55.9626 50.9926 56.0364C50.3701 56.1402 49.748 56.2567 49.1279 56.3796C48.8107 56.4424 48.4787 56.4264 48.1546 56.4585C47.5173 56.5216 46.8815 56.6024 46.2436 56.659C45.7001 56.7073 45.1616 56.7975 44.6157 56.8274C44.1744 56.8515 43.7358 56.9218 43.2947 56.9548C42.9417 56.9812 42.587 56.9802 42.233 56.9986C41.479 57.0377 40.7227 57.0344 39.9693 57.0816C39.6717 57.1002 39.3708 57.0654 39.0695 57.1484C38.9535 57.1805 38.7775 57.0847 38.6254 57.1042C38.2213 57.156 37.8185 57.1632 37.4148 57.1055C36.9007 57.032 36.3819 57.0731 35.8652 57.0428C35.2216 57.0051 34.5771 56.9909 33.9347 56.917C33.4883 56.8655 33.0374 56.8426 32.587 56.8194C32.0594 56.7924 31.5351 56.7017 31.0087 56.6463C30.4219 56.5846 29.833 56.5443 29.2478 56.4703C28.8907 56.425 28.5453 56.3074 28.1842 56.266C27.6298 56.2026 27.0758 56.1316 26.5251 56.0421C26.2674 56.0003 26.0065 55.929 25.7533 55.9049C25.347 55.8661 24.9623 55.7403 24.5869 55.6267C24.1847 55.505 23.7781 55.3868 23.3743 55.2662C22.7566 55.0816 22.1207 54.9569 21.5071 54.7599C21.128 54.6381 20.7425 54.5316 20.3671 54.3854C19.9572 54.2258 19.5352 54.0846 19.118 53.9369C18.4926 53.7157 17.8794 53.4649 17.2739 53.1908C16.7289 52.9439 16.2086 52.6417 15.6478 52.4341C15.2626 52.2915 14.9554 52.0216 14.5857 51.858C14.1681 51.673 13.809 51.3896 13.4271 51.1448C13.2132 51.0077 12.9908 50.8814 12.764 50.7672C12.5367 50.6528 12.322 50.5204 12.1508 50.3349C11.9807 50.1505 11.7332 50.0997 11.5465 49.9422C11.182 49.6347 10.7738 49.3883 10.4231 49.0531C10.1261 48.7694 9.79655 48.4915 9.40168 48.3262C9.37003 48.3129 9.34568 48.297 9.32538 48.2664C8.96501 47.7238 8.45002 47.3254 7.98981 46.8799C7.79866 46.6953 7.6757 46.4713 7.4947 46.2858C7.18221 45.9652 6.94034 45.5837 6.61203 45.2705C6.46755 45.1327 6.37624 44.92 6.25409 44.7452C6.04996 44.4534 5.84298 44.1645 5.62059 43.8865C5.33935 43.5355 5.10073 43.154 4.87955 42.7646C4.64133 42.3452 4.41651 41.9155 4.16773 41.5043C3.90029 41.062 3.67425 40.5986 3.41289 40.154C3.26882 39.9094 3.21201 39.6187 3.07525 39.3636C2.71731 38.6948 2.49248 37.9721 2.22747 37.2647C2.04729 36.7848 1.90646 36.2918 1.77498 35.8033C1.59885 35.1499 1.38579 34.5011 1.34237 33.8084C1.32005 33.4503 1.19018 33.0889 1.14108 32.7226C1.11348 32.5169 1.0867 32.3111 1.04733 32.0139Z" stroke="#DFD4BF" stroke-width="2" mask="url(#path-4-inside-1_64_6)"/>
</svg>
