<svg width="78" height="58" viewBox="0 0 78 58" fill="none" xmlns="http://www.w3.org/2000/svg">
<path d="M58.7171 23.058C59.3501 23.058 59.7395 23.4718 59.7395 24.4455L59.7395 24.762L60.0073 24.762L60.0073 19.6499L59.7395 19.6499L59.7395 19.9664C59.7395 20.9401 59.3501 21.3539 58.7171 21.3539L19.1844 21.3539C18.5515 21.3539 18.162 20.9401 18.162 19.9664L18.162 19.6499L17.8942 19.6499L17.8942 24.762L18.162 24.762L18.162 24.4455C18.162 23.4718 18.5515 23.058 19.1844 23.058L58.7171 23.058Z" fill="#DFD4BF"/>
<path d="M58.7171 29.7821C59.3501 29.7821 59.7395 30.1959 59.7395 31.1697L59.7395 31.4861L60.0073 31.4861L60.0073 26.374L59.7395 26.374L59.7395 26.6905C59.7395 27.6642 59.3501 28.0781 58.7171 28.0781L19.1844 28.0781C18.5515 28.0781 18.162 27.6642 18.162 26.6905L18.162 26.374L17.8942 26.374L17.8942 31.4861L18.162 31.4861L18.162 31.1697C18.162 30.1959 18.5515 29.7821 19.1844 29.7821L58.7171 29.7821Z" fill="#DFD4BF"/>
<path d="M58.7171 36.5067C59.3501 36.5067 59.7395 36.9205 59.7395 37.8943L59.7395 38.2107L60.0073 38.2107L60.0073 33.0986L59.7395 33.0986L59.7395 33.4151C59.7395 34.3888 59.3501 34.8027 58.7171 34.8027L19.1844 34.8027C18.5515 34.8027 18.162 34.3888 18.162 33.4151L18.162 33.0986L17.8942 33.0986L17.8942 38.2107L18.162 38.2107L18.162 37.8943C18.162 36.9205 18.5515 36.5067 19.1844 36.5067L58.7171 36.5067Z" fill="#DFD4BF"/>
<mask id="path-4-inside-1_3_13" fill="white">
<path d="M0.880828 32.033C0.799257 31.8662 0.92141 31.5776 0.778559 31.321C0.682784 31.1496 0.764353 30.9321 0.639359 30.7437C0.601211 30.6863 0.623535 30.4618 0.668582 30.3266C0.791547 29.954 0.734322 29.5773 0.740815 29.1985C0.751773 28.5161 0.592692 27.838 0.693337 27.1565C0.770444 26.635 0.740409 26.096 0.877579 25.5908C0.956309 25.3 0.915323 24.9928 1.05249 24.7142C1.1227 24.5713 1.0602 24.3972 1.09308 24.236C1.19737 23.7265 1.31466 23.2201 1.42707 22.7128C1.56667 22.0807 1.69694 21.4432 1.87672 20.8242C2.00334 20.3874 2.1117 19.9418 2.27038 19.5115C2.59666 18.6259 2.996 17.7728 3.38235 16.9136C3.65912 16.2971 4.02314 15.7275 4.37256 15.1513C4.80801 14.4327 5.23616 13.7091 5.72965 13.0271C6.04903 12.5858 6.40373 12.1744 6.76613 11.7695C7.20605 11.2782 7.63216 10.7732 8.09359 10.3028C8.7908 9.59248 9.48111 8.87542 10.2364 8.22233C10.7818 7.75051 11.408 7.39156 11.9567 6.93086C12.3641 6.58867 12.8612 6.39152 13.2679 6.05269C13.3632 5.97327 13.4988 5.94426 13.6084 5.88002C14.0207 5.63908 14.4204 5.37525 14.8437 5.15582C15.0986 5.02352 15.3733 4.92417 15.633 4.7967C16.021 4.60637 16.4013 4.39863 16.7969 4.22647C17.2827 4.01496 17.7778 3.82231 18.2758 3.63998C18.9003 3.41121 19.5391 3.21962 20.1588 2.97811C20.8378 2.71331 21.5577 2.61003 22.2488 2.39831C22.662 2.27177 23.0934 2.21662 23.5 2.07819C23.7524 1.9924 24.047 2.04126 24.2609 1.83851C24.7694 1.82812 25.254 1.66887 25.7531 1.5968C26.5441 1.48268 27.3269 1.31398 28.1159 1.18566C28.557 1.11395 29.0115 1.11253 29.4454 1.0148C29.9011 0.91217 30.3593 0.84123 30.8199 0.817206C31.6052 0.776217 32.3872 0.693065 33.17 0.630284C34.103 0.555449 35.0385 0.537673 35.9702 0.464706C36.3399 0.43573 36.7106 0.439463 37.0808 0.395187C37.6092 0.331959 38.1462 0.320963 38.679 0.349046C39.4075 0.387478 40.1361 0.370473 40.8642 0.366618C41.1455 0.365076 41.4304 0.370878 41.7149 0.349004C41.9431 0.331472 42.2133 0.376602 42.4518 0.433499C42.7423 0.502814 43.0278 0.443521 43.3138 0.479233C43.8998 0.552485 44.4954 0.491288 45.0774 0.561375C45.6096 0.625455 46.1452 0.668471 46.6761 0.750083C47.0542 0.808157 47.4387 0.824715 47.8205 0.858156C48.3307 0.902837 48.8343 1.00028 49.3423 1.05567C49.755 1.10068 50.1561 1.21131 50.5816 1.20668C50.8288 1.204 51.0907 1.33269 51.3533 1.38127C51.8088 1.46548 52.2545 1.61303 52.7123 1.67143C53.115 1.72277 53.4785 1.89009 53.869 1.97114C54.2063 2.0411 54.5493 2.10307 54.8758 2.2055C55.2078 2.30964 55.5509 2.35517 55.8825 2.45898C56.3239 2.59724 56.7863 2.66863 57.2272 2.80844C57.607 2.92893 57.9955 3.01269 58.3754 3.12973C58.4238 3.14467 58.4472 3.1859 58.4809 3.21808C58.5508 3.28488 58.618 3.36547 58.7371 3.27688C58.8002 3.22997 58.8786 3.28565 58.9485 3.30968C59.2863 3.42574 59.576 3.65215 59.9248 3.7405C60.489 3.88343 61.0011 4.15724 61.5174 4.40715C62.074 4.67658 62.6681 4.85969 63.1963 5.20046C63.7295 5.54444 64.3152 5.806 64.8616 6.1311C65.1152 6.28203 65.3163 6.51928 65.5652 6.68023C66.1921 7.08553 66.7524 7.57938 67.3447 8.02843C67.5795 8.2065 67.8273 8.40154 68.0519 8.61192C68.4699 9.00359 68.8549 9.42776 69.2774 9.81362C69.4828 10.0011 69.6989 10.179 69.8878 10.382C70.0652 10.5726 70.2047 10.7979 70.3757 10.9951C71.1574 11.8972 71.8951 12.832 72.5426 13.8365C72.8956 14.3843 73.272 14.9172 73.6171 15.4697C73.8324 15.8144 74.0152 16.1801 74.2011 16.5423C74.3144 16.763 74.4863 16.9468 74.5733 17.1842C74.7314 17.6159 75.0222 17.9832 75.1133 18.4559C75.199 18.9002 75.3942 19.3211 75.591 19.7368C75.6835 19.9321 75.7207 20.1666 75.7829 20.3835C75.8839 20.7364 76.0244 21.0773 76.1186 21.4292C76.1764 21.6455 76.2379 21.8645 76.2839 22.0853C76.3036 22.1797 76.321 22.2702 76.3875 22.3437C76.4199 22.3796 76.4435 22.4178 76.44 22.4701C76.4112 22.8945 76.5884 23.2828 76.6507 23.6904C76.6943 23.9749 76.7288 24.2637 76.8006 24.5395C76.8497 24.728 76.7655 24.9459 76.9353 25.1147C76.9773 25.1566 76.9067 25.2748 76.9125 25.3724C76.9406 25.8517 77.0003 26.3273 77.0446 26.8047C77.0773 27.1579 77.0771 27.5142 77.0918 27.869C77.1115 28.342 77.1485 28.8151 77.1459 29.2879C77.1438 29.6584 77.1009 30.0296 77.0586 30.3985C77.0462 30.5064 77.0373 30.6131 77.0405 30.7199C77.0488 31.006 76.9594 31.2759 76.9167 31.5535C76.8381 32.0649 76.7727 32.5787 76.7187 33.0933C76.6833 33.4305 76.5401 33.7419 76.5055 34.0765C76.4523 34.5912 76.2028 35.0537 76.1179 35.557C76.0742 35.8164 75.9233 36.0543 75.9706 36.3325C75.9842 36.4121 75.8867 36.4551 75.8593 36.5352C75.6031 37.2851 75.3433 38.034 75.0689 38.7774C74.8301 39.4242 74.5116 40.0342 74.1914 40.6447C74.0466 40.921 73.9115 41.2091 73.7689 41.4862C73.639 41.7386 73.4963 41.9943 73.3338 42.2348C73.0583 42.6424 72.7833 43.0534 72.5498 43.4854C72.1435 44.2369 71.5619 44.8574 71.0708 45.5448C70.8872 45.8019 70.6196 45.9737 70.429 46.2269C70.094 46.6719 69.6576 47.0304 69.3194 47.4748C69.2102 47.6183 69.0339 47.6742 68.9086 47.7967C68.5854 48.1126 68.2199 48.379 67.8778 48.6726C67.6801 48.8422 67.4968 49.0294 67.3145 49.2159C67.1524 49.3816 66.9341 49.462 66.7575 49.6075C66.3426 49.9494 65.8776 50.2234 65.4518 50.5527C65.2624 50.6991 65.0088 50.8022 64.8502 50.9525C64.6465 51.1456 64.3163 51.1122 64.1797 51.391C64.1633 51.4246 64.0092 51.4086 63.9127 51.4694C63.4317 51.7723 62.9182 52.0181 62.4113 52.275C61.9195 52.5243 61.4324 52.7841 60.9323 53.0159C60.5546 53.1909 60.1495 53.3084 59.7849 53.5122C59.1407 53.8721 58.4269 54.0297 57.734 54.251C57.2938 54.3915 56.8758 54.5962 56.4269 54.716C56.1484 54.7903 55.8775 54.8938 55.598 54.9638C55.0642 55.0975 54.5266 55.2164 53.9907 55.3416C53.372 55.4862 52.7551 55.6391 52.1341 55.773C51.6983 55.8669 51.2684 55.9817 50.8261 56.0554C50.2036 56.1592 49.5815 56.2757 48.9614 56.3986C48.6442 56.4614 48.3122 56.4454 47.9881 56.4775C47.3507 56.5407 46.715 56.6215 46.0771 56.6781C45.5336 56.7263 44.9951 56.8166 44.4492 56.8464C44.0079 56.8705 43.5693 56.9409 43.1282 56.9738C42.7752 57.0002 42.4205 56.9992 42.0665 57.0176C41.3125 57.0568 40.5562 57.0535 39.8028 57.1006C39.5052 57.1192 39.2043 57.0844 38.903 57.1675C38.787 57.1995 38.611 57.1038 38.4589 57.1233C38.0548 57.1751 37.652 57.1822 37.2483 57.1245C36.7342 57.051 36.2153 57.0921 35.6987 57.0618C35.0551 57.0241 34.4106 57.01 33.7682 56.936C33.3218 56.8845 32.8709 56.8616 32.4205 56.8385C31.8929 56.8114 31.3686 56.7207 30.8422 56.6653C30.2554 56.6037 29.6665 56.5634 29.0813 56.4893C28.7242 56.444 28.3788 56.3264 28.0176 56.2851C27.4633 56.2216 26.9093 56.1507 26.3586 56.0612C26.1009 56.0194 25.84 55.9481 25.5867 55.9239C25.1805 55.8851 24.7958 55.7593 24.4204 55.6457C24.0182 55.524 23.6116 55.4058 23.2078 55.2853C22.5901 55.1007 21.9542 54.976 21.3406 54.779C20.9615 54.6571 20.576 54.5506 20.2006 54.4045C19.7907 54.2448 19.3687 54.1036 18.9515 53.956C18.3261 53.7348 17.7129 53.484 17.1074 53.2098C16.5624 52.9629 16.0421 52.6607 15.4813 52.4532C15.0961 52.3106 14.7889 52.0407 14.4192 51.877C14.0016 51.692 13.6425 51.4087 13.2606 51.1639C13.0467 51.0267 12.8243 50.9005 12.5975 50.7862C12.3702 50.6718 12.1555 50.5395 11.9842 50.3539C11.8142 50.1696 11.5667 50.1187 11.38 49.9612C11.0155 49.6538 10.6073 49.4073 10.2566 49.0722C9.95958 48.7884 9.63005 48.5105 9.23518 48.3453C9.20352 48.3319 9.17917 48.3161 9.15888 48.2855C8.79851 47.7429 8.28351 47.3444 7.8233 46.899C7.63216 46.7143 7.5092 46.4904 7.3282 46.3048C7.01571 45.9842 6.77384 45.6027 6.44552 45.2896C6.30105 45.1518 6.20974 44.939 6.08758 44.7642C5.88345 44.4724 5.67648 44.1835 5.45409 43.9055C5.17285 43.5546 4.93422 43.1731 4.71305 42.7837C4.47483 42.3642 4.25 41.9346 4.00123 41.5233C3.73379 41.0811 3.50774 40.6177 3.24639 40.1731C3.10232 39.9284 3.04551 39.6377 2.90874 39.3826C2.5508 38.7138 2.32598 37.9911 2.06097 37.2837C1.88078 36.8038 1.73996 36.3108 1.60847 35.8224C1.43234 35.169 1.21929 34.5201 1.17587 33.8274C1.15354 33.4694 1.02368 33.108 0.974572 32.7416C0.946976 32.5359 0.920194 32.3302 0.880828 32.033Z"/>
</mask>
<path d="M0.880828 32.033C0.799257 31.8662 0.92141 31.5776 0.778559 31.321C0.682784 31.1496 0.764353 30.9321 0.639359 30.7437C0.601211 30.6863 0.623535 30.4618 0.668582 30.3266C0.791547 29.954 0.734322 29.5773 0.740815 29.1985C0.751773 28.5161 0.592692 27.838 0.693337 27.1565C0.770444 26.635 0.740409 26.096 0.877579 25.5908C0.956309 25.3 0.915323 24.9928 1.05249 24.7142C1.1227 24.5713 1.0602 24.3972 1.09308 24.236C1.19737 23.7265 1.31466 23.2201 1.42707 22.7128C1.56667 22.0807 1.69694 21.4432 1.87672 20.8242C2.00334 20.3874 2.1117 19.9418 2.27038 19.5115C2.59666 18.6259 2.996 17.7728 3.38235 16.9136C3.65912 16.2971 4.02314 15.7275 4.37256 15.1513C4.80801 14.4327 5.23616 13.7091 5.72965 13.0271C6.04903 12.5858 6.40373 12.1744 6.76613 11.7695C7.20605 11.2782 7.63216 10.7732 8.09359 10.3028C8.7908 9.59248 9.48111 8.87542 10.2364 8.22233C10.7818 7.75051 11.408 7.39156 11.9567 6.93086C12.3641 6.58867 12.8612 6.39152 13.2679 6.05269C13.3632 5.97327 13.4988 5.94426 13.6084 5.88002C14.0207 5.63908 14.4204 5.37525 14.8437 5.15582C15.0986 5.02352 15.3733 4.92417 15.633 4.7967C16.021 4.60637 16.4013 4.39863 16.7969 4.22647C17.2827 4.01496 17.7778 3.82231 18.2758 3.63998C18.9003 3.41121 19.5391 3.21962 20.1588 2.97811C20.8378 2.71331 21.5577 2.61003 22.2488 2.39831C22.662 2.27177 23.0934 2.21662 23.5 2.07819C23.7524 1.9924 24.047 2.04126 24.2609 1.83851C24.7694 1.82812 25.254 1.66887 25.7531 1.5968C26.5441 1.48268 27.3269 1.31398 28.1159 1.18566C28.557 1.11395 29.0115 1.11253 29.4454 1.0148C29.9011 0.91217 30.3593 0.84123 30.8199 0.817206C31.6052 0.776217 32.3872 0.693065 33.17 0.630284C34.103 0.555449 35.0385 0.537673 35.9702 0.464706C36.3399 0.43573 36.7106 0.439463 37.0808 0.395187C37.6092 0.331959 38.1462 0.320963 38.679 0.349046C39.4075 0.387478 40.1361 0.370473 40.8642 0.366618C41.1455 0.365076 41.4304 0.370878 41.7149 0.349004C41.9431 0.331472 42.2133 0.376602 42.4518 0.433499C42.7423 0.502814 43.0278 0.443521 43.3138 0.479233C43.8998 0.552485 44.4954 0.491288 45.0774 0.561375C45.6096 0.625455 46.1452 0.668471 46.6761 0.750083C47.0542 0.808157 47.4387 0.824715 47.8205 0.858156C48.3307 0.902837 48.8343 1.00028 49.3423 1.05567C49.755 1.10068 50.1561 1.21131 50.5816 1.20668C50.8288 1.204 51.0907 1.33269 51.3533 1.38127C51.8088 1.46548 52.2545 1.61303 52.7123 1.67143C53.115 1.72277 53.4785 1.89009 53.869 1.97114C54.2063 2.0411 54.5493 2.10307 54.8758 2.2055C55.2078 2.30964 55.5509 2.35517 55.8825 2.45898C56.3239 2.59724 56.7863 2.66863 57.2272 2.80844C57.607 2.92893 57.9955 3.01269 58.3754 3.12973C58.4238 3.14467 58.4472 3.1859 58.4809 3.21808C58.5508 3.28488 58.618 3.36547 58.7371 3.27688C58.8002 3.22997 58.8786 3.28565 58.9485 3.30968C59.2863 3.42574 59.576 3.65215 59.9248 3.7405C60.489 3.88343 61.0011 4.15724 61.5174 4.40715C62.074 4.67658 62.6681 4.85969 63.1963 5.20046C63.7295 5.54444 64.3152 5.806 64.8616 6.1311C65.1152 6.28203 65.3163 6.51928 65.5652 6.68023C66.1921 7.08553 66.7524 7.57938 67.3447 8.02843C67.5795 8.2065 67.8273 8.40154 68.0519 8.61192C68.4699 9.00359 68.8549 9.42776 69.2774 9.81362C69.4828 10.0011 69.6989 10.179 69.8878 10.382C70.0652 10.5726 70.2047 10.7979 70.3757 10.9951C71.1574 11.8972 71.8951 12.832 72.5426 13.8365C72.8956 14.3843 73.272 14.9172 73.6171 15.4697C73.8324 15.8144 74.0152 16.1801 74.2011 16.5423C74.3144 16.763 74.4863 16.9468 74.5733 17.1842C74.7314 17.6159 75.0222 17.9832 75.1133 18.4559C75.199 18.9002 75.3942 19.3211 75.591 19.7368C75.6835 19.9321 75.7207 20.1666 75.7829 20.3835C75.8839 20.7364 76.0244 21.0773 76.1186 21.4292C76.1764 21.6455 76.2379 21.8645 76.2839 22.0853C76.3036 22.1797 76.321 22.2702 76.3875 22.3437C76.4199 22.3796 76.4435 22.4178 76.44 22.4701C76.4112 22.8945 76.5884 23.2828 76.6507 23.6904C76.6943 23.9749 76.7288 24.2637 76.8006 24.5395C76.8497 24.728 76.7655 24.9459 76.9353 25.1147C76.9773 25.1566 76.9067 25.2748 76.9125 25.3724C76.9406 25.8517 77.0003 26.3273 77.0446 26.8047C77.0773 27.1579 77.0771 27.5142 77.0918 27.869C77.1115 28.342 77.1485 28.8151 77.1459 29.2879C77.1438 29.6584 77.1009 30.0296 77.0586 30.3985C77.0462 30.5064 77.0373 30.6131 77.0405 30.7199C77.0488 31.006 76.9594 31.2759 76.9167 31.5535C76.8381 32.0649 76.7727 32.5787 76.7187 33.0933C76.6833 33.4305 76.5401 33.7419 76.5055 34.0765C76.4523 34.5912 76.2028 35.0537 76.1179 35.557C76.0742 35.8164 75.9233 36.0543 75.9706 36.3325C75.9842 36.4121 75.8867 36.4551 75.8593 36.5352C75.6031 37.2851 75.3433 38.034 75.0689 38.7774C74.8301 39.4242 74.5116 40.0342 74.1914 40.6447C74.0466 40.921 73.9115 41.2091 73.7689 41.4862C73.639 41.7386 73.4963 41.9943 73.3338 42.2348C73.0583 42.6424 72.7833 43.0534 72.5498 43.4854C72.1435 44.2369 71.5619 44.8574 71.0708 45.5448C70.8872 45.8019 70.6196 45.9737 70.429 46.2269C70.094 46.6719 69.6576 47.0304 69.3194 47.4748C69.2102 47.6183 69.0339 47.6742 68.9086 47.7967C68.5854 48.1126 68.2199 48.379 67.8778 48.6726C67.6801 48.8422 67.4968 49.0294 67.3145 49.2159C67.1524 49.3816 66.9341 49.462 66.7575 49.6075C66.3426 49.9494 65.8776 50.2234 65.4518 50.5527C65.2624 50.6991 65.0088 50.8022 64.8502 50.9525C64.6465 51.1456 64.3163 51.1122 64.1797 51.391C64.1633 51.4246 64.0092 51.4086 63.9127 51.4694C63.4317 51.7723 62.9182 52.0181 62.4113 52.275C61.9195 52.5243 61.4324 52.7841 60.9323 53.0159C60.5546 53.1909 60.1495 53.3084 59.7849 53.5122C59.1407 53.8721 58.4269 54.0297 57.734 54.251C57.2938 54.3915 56.8758 54.5962 56.4269 54.716C56.1484 54.7903 55.8775 54.8938 55.598 54.9638C55.0642 55.0975 54.5266 55.2164 53.9907 55.3416C53.372 55.4862 52.7551 55.6391 52.1341 55.773C51.6983 55.8669 51.2684 55.9817 50.8261 56.0554C50.2036 56.1592 49.5815 56.2757 48.9614 56.3986C48.6442 56.4614 48.3122 56.4454 47.9881 56.4775C47.3507 56.5407 46.715 56.6215 46.0771 56.6781C45.5336 56.7263 44.9951 56.8166 44.4492 56.8464C44.0079 56.8705 43.5693 56.9409 43.1282 56.9738C42.7752 57.0002 42.4205 56.9992 42.0665 57.0176C41.3125 57.0568 40.5562 57.0535 39.8028 57.1006C39.5052 57.1192 39.2043 57.0844 38.903 57.1675C38.787 57.1995 38.611 57.1038 38.4589 57.1233C38.0548 57.1751 37.652 57.1822 37.2483 57.1245C36.7342 57.051 36.2153 57.0921 35.6987 57.0618C35.0551 57.0241 34.4106 57.01 33.7682 56.936C33.3218 56.8845 32.8709 56.8616 32.4205 56.8385C31.8929 56.8114 31.3686 56.7207 30.8422 56.6653C30.2554 56.6037 29.6665 56.5634 29.0813 56.4893C28.7242 56.444 28.3788 56.3264 28.0176 56.2851C27.4633 56.2216 26.9093 56.1507 26.3586 56.0612C26.1009 56.0194 25.84 55.9481 25.5867 55.9239C25.1805 55.8851 24.7958 55.7593 24.4204 55.6457C24.0182 55.524 23.6116 55.4058 23.2078 55.2853C22.5901 55.1007 21.9542 54.976 21.3406 54.779C20.9615 54.6571 20.576 54.5506 20.2006 54.4045C19.7907 54.2448 19.3687 54.1036 18.9515 53.956C18.3261 53.7348 17.7129 53.484 17.1074 53.2098C16.5624 52.9629 16.0421 52.6607 15.4813 52.4532C15.0961 52.3106 14.7889 52.0407 14.4192 51.877C14.0016 51.692 13.6425 51.4087 13.2606 51.1639C13.0467 51.0267 12.8243 50.9005 12.5975 50.7862C12.3702 50.6718 12.1555 50.5395 11.9842 50.3539C11.8142 50.1696 11.5667 50.1187 11.38 49.9612C11.0155 49.6538 10.6073 49.4073 10.2566 49.0722C9.95958 48.7884 9.63005 48.5105 9.23518 48.3453C9.20352 48.3319 9.17917 48.3161 9.15888 48.2855C8.79851 47.7429 8.28351 47.3444 7.8233 46.899C7.63216 46.7143 7.5092 46.4904 7.3282 46.3048C7.01571 45.9842 6.77384 45.6027 6.44552 45.2896C6.30105 45.1518 6.20974 44.939 6.08758 44.7642C5.88345 44.4724 5.67648 44.1835 5.45409 43.9055C5.17285 43.5546 4.93422 43.1731 4.71305 42.7837C4.47483 42.3642 4.25 41.9346 4.00123 41.5233C3.73379 41.0811 3.50774 40.6177 3.24639 40.1731C3.10232 39.9284 3.04551 39.6377 2.90874 39.3826C2.5508 38.7138 2.32598 37.9911 2.06097 37.2837C1.88078 36.8038 1.73996 36.3108 1.60847 35.8224C1.43234 35.169 1.21929 34.5201 1.17587 33.8274C1.15354 33.4694 1.02368 33.108 0.974572 32.7416C0.946976 32.5359 0.920194 32.3302 0.880828 32.033Z" stroke="#DFD4BF" stroke-width="2" mask="url(#path-4-inside-1_3_13)"/>
</svg>
