<svg width="914" height="418" viewBox="0 0 914 418" fill="none" xmlns="http://www.w3.org/2000/svg">
<path d="M290.259 197.653L355.891 183.723V203.98C353.86 203.98 352.272 204.241 350.684 204.241C318.35 204.241 286.041 204.423 253.733 204.241C239.864 204.264 226.135 201.468 213.379 196.022C200.623 190.577 189.106 182.596 179.528 172.563C169.95 162.531 162.511 150.657 157.661 137.661C152.811 124.666 150.652 110.82 151.315 96.9646C153.111 49.7839 190.366 8.43572 237.227 1.58776C291.326 -6.37984 342.145 29.0317 352.61 81.9147C357.096 104.593 353.751 128.122 343.124 148.651C332.497 169.18 315.217 185.492 294.112 194.919C292.654 195.57 291.222 196.299 289.79 196.976L290.259 197.653ZM264.225 195.57C303.146 195.987 330.768 173.542 337.459 140.292C342.174 116.558 338.366 91.9209 326.707 70.7183C310.227 39.1864 285.833 17.2105 249.984 9.78968C220.852 3.77492 191.876 15.8565 176.907 41.0352C164.671 61.6832 163.629 84.1019 168.862 106.911C174.265 130.432 186.771 151.722 204.685 167.892C222.961 184.738 244.074 194.971 264.303 195.57H264.225Z" fill="#DFD4BF"/>
<path d="M685.05 81.5047C683.539 71.9748 683.189 62.5545 686.847 53.3094C694.469 34.0305 720.799 28.5974 734.555 43.5605C738.036 47.4462 739.894 52.5195 739.746 57.7348C739.746 65.6216 739.746 73.5084 739.746 82.0524H760.49V83.4765H739.812V89.0629C739.812 115.79 739.812 142.518 739.812 169.224C739.855 174.08 740.184 178.93 740.798 183.748C741.084 187.401 742.258 190.928 744.216 194.024C746.174 197.12 748.858 199.692 752.035 201.516C752.757 201.932 753.393 202.48 754.094 202.962L753.48 204.035C750.83 202.589 748.114 201.275 745.551 199.654C732.408 191.438 724.829 180.177 725.004 164.097C725.267 139.188 725.004 114.301 725.004 89.3915V84.0899H714.359L714.14 83.3012C717.688 81.4828 721.302 79.8178 724.741 77.8242C736.701 70.8794 741.301 58.5235 735.869 48.2926C731.379 39.7923 720.382 35.0164 709.584 36.8785C695.587 39.2884 685.883 50.33 686.168 66.0817C686.365 76.4002 689.081 86.675 690.789 96.9498C691.672 100.769 692.258 104.651 692.542 108.561C688.687 105.143 684.853 101.718 681.042 98.2861C678.326 95.8543 675.719 93.3131 673.003 90.8813C662.313 81.3733 641.351 81.3076 630.53 90.706C627.587 93.0625 625.684 96.4786 625.229 100.222C624.775 103.965 625.805 107.737 628.099 110.73C635.13 120.676 645.754 125.671 656.312 130.775C666.125 135.507 676.311 139.714 685.357 145.651C691.635 149.654 696.368 155.671 698.779 162.716C701.191 169.761 701.139 177.416 698.631 184.428C694.25 195.929 684.744 201.384 673.244 203.224C666.47 204.029 659.648 204.352 652.829 204.188C643.41 204.342 633.991 204.188 624.068 204.188C622.075 195.206 620.081 186.312 618.088 177.395L619.008 176.782L637.649 193.037C650.244 203.991 671.601 205.81 685.97 197.156C698.281 189.729 699.924 177.286 689.804 167.208C680.801 158.204 669.235 153.494 657.911 148.367C645.337 142.671 633.509 135.924 625.842 123.874C618.417 112.219 620.235 97.5851 630.223 89.1506C636.4 83.8708 643.914 82.2058 651.821 82.0743C662.598 81.921 673.375 81.9648 684.174 81.921C684.328 82.0086 684.459 81.8771 685.05 81.5047Z" fill="#DFD4BF"/>
<path d="M366.145 90.9266L394.161 82.1635V87.969C394.161 114.39 393.986 140.811 394.467 167.21C394.752 182.26 405.77 199.765 425.134 201.035C428.91 201.176 432.681 200.665 436.283 199.524C439.432 198.472 442.424 196.998 445.177 195.142C454.661 189.271 460.137 182.129 459.327 169.488C457.969 148.303 458.823 126.987 459.064 105.736C459.064 101.486 458.275 98.5724 454.245 96.6445C451.322 94.9823 448.526 93.1078 445.877 91.0361L473.455 82.273V203.686C466.884 205.176 466.884 205.176 464.233 199.304L458.714 187.255C452.887 191.352 447.608 195.712 441.759 199.085C423.25 209.711 399.571 205.395 387.546 189.38C382.49 182.828 379.706 174.807 379.616 166.53C379.397 146.353 379.266 126.154 379.485 105.955C379.485 101.42 378.324 98.5286 374.293 96.4912C371.475 94.7909 368.754 92.933 366.145 90.9266V90.9266Z" fill="#DFD4BF"/>
<path d="M608.697 109.656H603.112C575.337 109.656 547.584 109.766 519.874 109.656C518.124 109.445 516.355 109.862 514.883 110.833C513.411 111.804 512.331 113.265 511.835 114.958C502.066 136.866 509.645 168.5 528.614 184.778C544.605 198.492 562.391 201.866 581.908 193.694C588.281 191.046 593.866 186.802 598.125 181.37C602.383 175.938 605.173 169.502 606.224 162.68C607.276 155.858 606.555 148.88 604.13 142.418C601.705 135.955 597.658 130.226 592.378 125.78C586.398 120.763 579.236 117.214 574.154 114.038C593.605 118.112 609.508 136.734 609.42 157.327C609.121 168.322 605.169 178.903 598.188 187.401C591.207 195.899 581.594 201.829 570.868 204.254C540.596 210.366 508.133 194.242 497.181 167.011C481.607 128.475 508.374 80.8035 555.163 81.0226C564.84 80.8132 574.433 82.8646 583.179 87.0138C591.925 91.163 599.583 97.2956 605.543 104.924C606.441 106.195 607.274 107.597 608.697 109.656ZM588.37 107.706C584.164 94.5616 572.358 86.5653 557.966 85.7985C540.618 84.7469 523.708 94.8245 517.005 107.706H588.37Z" fill="#DFD4BF"/>
<path d="M123.589 196.96L36.0492 180.257V262.103H123.701V282.119L36.2441 265.917V390.857L144.103 374.154V393.864H0.504382C4.65174 389.604 7.88056 385.679 11.6382 382.45C13.519 380.84 14.9823 378.8 15.9033 376.502C16.8242 374.204 17.1754 371.717 16.9268 369.254C16.7598 313.688 16.7598 258.122 16.9268 202.556C17.1205 199.898 16.6932 197.231 15.6787 194.767C14.6642 192.303 13.0903 190.109 11.0816 188.358C7.46305 185.212 4.01156 181.927 0.476562 178.698L1.39511 177.334H123.589V196.96Z" fill="#DFD4BF"/>
<path d="M792.613 280.973L820.366 272.21V289.057C826.696 284.676 832.173 280.075 838.218 276.548C858.852 264.521 886.277 272.714 895.827 293.483C898.835 300.626 900.226 308.347 899.902 316.092C899.902 335.524 900.055 354.956 899.77 374.366C899.63 376.31 899.954 378.26 900.716 380.054C901.477 381.848 902.655 383.436 904.151 384.685L913.066 392.418L912.19 393.667H872.433C876.135 389.789 879.596 386.437 882.685 382.713C884.021 381.172 884.834 379.247 885.006 377.214C885.167 355.672 885.167 334.122 885.006 312.564C885.006 300.69 881.348 290.24 872.105 282.222C867.494 277.962 861.618 275.324 855.37 274.711C849.123 274.098 842.846 275.543 837.495 278.826C832.26 282.165 827.36 286.002 822.863 290.284C821.357 291.897 820.505 294.014 820.476 296.221C820.33 323.08 820.33 349.946 820.476 376.82C820.586 379.005 821.472 381.078 822.973 382.669C826.28 385.999 830.07 388.847 833.662 391.892L832.501 393.514H793.051C796.644 389.789 800.104 386.525 803.127 382.91C804.572 381.285 805.442 379.23 805.602 377.061C805.756 349.129 805.602 321.218 805.778 293.286C805.888 292.103 805.64 290.915 805.065 289.876C804.491 288.836 803.617 287.994 802.558 287.458C799.469 285.705 796.534 283.602 792.613 280.973Z" fill="#DFD4BF"/>
<path d="M568.791 273.634H554.378L583.226 250.324V271.64H642.369V277.27C642.369 310.132 642.369 342.862 642.369 375.658C642.267 377.221 642.529 378.785 643.133 380.229C643.738 381.674 644.668 382.958 645.851 383.983C648.962 386.809 651.678 390.052 655.095 393.645H614.594C618.471 389.613 621.91 386.284 625.02 382.691C626.316 381.298 627.123 379.522 627.32 377.63C627.452 343.914 627.32 310.22 627.32 276.504C627.32 275.759 627.145 275.036 627.014 273.984H583.774C583.613 274.889 583.511 275.804 583.467 276.723C583.467 304.962 583.467 333.201 583.665 361.418C583.782 366.42 584.317 371.403 585.264 376.315C585.678 379.2 586.723 381.958 588.324 384.393C589.926 386.828 592.044 388.879 594.529 390.402C595.71 391.163 596.779 392.085 597.705 393.141C580.05 386.7 568.682 372.832 568.791 354.649C568.923 329.739 568.791 304.852 568.791 279.943V273.634Z" fill="#DFD4BF"/>
<path d="M669.803 364.371C663.569 353.711 660.649 341.437 661.416 329.111C662.182 316.784 666.6 304.965 674.107 295.157C681.613 285.35 691.869 277.997 703.568 274.037C715.267 270.077 727.88 269.688 739.799 272.919C751.719 276.151 762.407 282.857 770.502 292.183C778.597 301.51 783.732 313.035 785.253 325.29C786.775 337.545 784.615 349.977 779.047 361.001C773.479 372.026 764.756 381.144 753.989 387.195C724.213 403.931 686.278 393.609 669.803 364.371ZM705.738 289.295C687.241 302.781 674.101 322.129 672.693 348.083C671.594 367.561 683.294 383.621 701.114 387.32C711.484 389.339 722.233 387.669 731.502 382.599C757.741 369.069 772.551 347.619 774.454 318.141C775.724 298.741 764.519 283.408 746.858 279.414C732.63 276.02 719.936 280.718 705.738 289.295V289.295Z" fill="#DFD4BF"/>
<path d="M431.337 280.668L459.266 271.905V281.041C459.266 304.73 459.266 328.413 459.266 352.088C459.266 363.94 462.529 374.587 471.642 382.759C482.594 392.464 495.737 393.844 508.113 386.154C513.129 382.763 517.855 378.959 522.241 374.784C523.348 373.595 523.96 372.028 523.95 370.403C524.038 344.435 524.038 318.474 523.95 292.52C523.735 290.708 522.824 289.051 521.409 287.898C518.408 285.466 515.035 283.516 510.961 280.712L538.495 271.949V393.581C534.333 394.633 531.178 394.523 529.557 389.375C527.996 385.215 526.152 381.167 524.038 377.26C516.94 381.817 510.479 387.031 503.184 390.404C480.426 401.095 454.162 390.404 446.977 367.62C445.357 361.787 444.575 355.753 444.655 349.7C444.371 331.034 444.48 312.456 444.655 293.681C444.803 292.358 444.544 291.02 443.915 289.846C443.285 288.673 442.313 287.718 441.129 287.109C437.974 285.422 435.105 283.231 431.337 280.668Z" fill="#DFD4BF"/>
<path d="M381.165 333.007C381.206 349.443 374.724 365.223 363.143 376.884C351.562 388.545 335.828 395.133 319.394 395.203C285.048 395.071 256.681 366.723 257.032 332.963C257.426 298.546 285.114 270.723 318.956 270.767C327.127 270.767 335.219 272.377 342.767 275.505C350.316 278.633 357.175 283.218 362.952 288.998C368.729 294.777 373.311 301.639 376.436 309.19C379.561 316.741 381.168 324.834 381.165 333.007V333.007ZM272.146 322.053C272.351 332.737 274.783 343.262 279.286 352.953C283.79 362.644 290.266 371.289 298.3 378.334C307.522 386.724 318.387 392.223 331.31 391.084C347.848 389.616 360.18 377.939 364.277 361.114C368.07 345.495 366.392 329.048 359.523 314.516C351.725 297.253 340.291 283.101 321.628 276.813C308.267 272.322 295.869 274.622 285.486 284.744C275.103 294.865 272.54 307.002 272.146 322.053Z" fill="#DFD4BF"/>
<path d="M138.252 272.057H182.061C178.534 275.737 175.796 279.045 172.598 281.806C169.4 284.566 169.4 286.669 171.131 290.328C183.572 316.288 195.707 342.402 207.952 368.473C208.259 369.13 208.609 369.787 209.354 371.255C212.596 363.763 215.597 356.905 218.51 350.026C226.79 330.528 234.917 310.965 243.328 291.554C245.08 287.501 245.65 284.391 241.707 281.389C238.487 278.936 235.618 276.088 232.595 273.393L233.602 272.166H261.071C260.633 272.889 260.479 273.502 260.085 273.809C249.987 281.893 245.212 293.219 240.371 304.787C231.368 326.695 221.73 348.471 212.53 370.357C211.371 373.44 210.699 376.684 210.537 379.974C210.186 384.465 210.537 389.022 210.537 393.448C202.586 394.893 202.629 394.872 199.585 388.365C184.427 356.139 169.466 323.847 153.914 291.817C151.022 285.858 145.809 281.039 141.647 275.715C140.727 274.685 139.763 273.743 138.252 272.057Z" fill="#DFD4BF"/>
<path d="M426.862 393.931H387.281C390.895 390.141 393.852 386.767 397.072 383.788C398.173 382.779 399.029 381.533 399.576 380.143C400.123 378.754 400.345 377.258 400.226 375.769C400.124 333.093 400.124 290.431 400.226 247.784C400.423 246.307 400.151 244.806 399.447 243.492C398.743 242.179 397.644 241.121 396.305 240.467C393.414 238.933 390.807 236.874 387.083 234.377L414.946 225.613V231.485C414.946 278.849 414.946 326.236 414.837 373.601C414.644 375.833 414.992 378.08 415.85 380.15C416.707 382.22 418.05 384.054 419.765 385.496C422.547 387.797 425.219 390.229 427.914 392.617L426.862 393.931Z" fill="#DFD4BF"/>
<path d="M632.788 254.772C629.884 254.772 627.098 253.618 625.044 251.564C622.99 249.509 621.836 246.723 621.836 243.818C621.925 240.922 623.123 238.171 625.181 236.133C627.24 234.095 630.002 232.925 632.898 232.864C635.815 232.91 638.597 234.1 640.646 236.177C642.694 238.255 643.845 241.054 643.85 243.971C643.857 245.414 643.573 246.843 643.016 248.174C642.459 249.504 641.64 250.709 640.608 251.717C639.576 252.724 638.352 253.514 637.009 254.039C635.665 254.564 634.23 254.813 632.788 254.772V254.772Z" fill="#DFD4BF"/>
<path d="M122.556 110.36C121.112 111.897 119.517 113.349 119.178 115.609C119.041 116.547 118.781 117.472 118.73 118.417C118.651 119.76 118.73 121.111 118.73 122.677H132.541V123.161H118.716C118.672 123.883 118.615 124.381 118.615 124.858C118.615 135.616 118.615 146.375 118.615 157.133C118.694 157.987 119.035 158.796 119.589 159.451C120.47 160.592 121.546 161.617 122.701 162.808H109.461C110.709 161.523 111.843 160.44 112.875 159.256C113.313 158.801 113.589 158.215 113.662 157.588C113.698 146.382 113.662 135.205 113.662 123.963C113.636 123.753 113.595 123.546 113.539 123.342C105.295 122.533 97.0867 119.955 88.5463 121.977C91.0153 122.526 93.4771 122.836 95.7656 123.623C104.609 126.67 110.002 135.566 109.064 145.284C108.219 154.021 101.043 161.566 92.2137 163.025C87.335 163.847 82.3238 162.875 78.1055 160.29C73.8872 157.704 70.7467 153.68 69.264 148.959C67.7813 144.239 68.0566 139.141 70.039 134.607C72.0214 130.074 75.577 126.411 80.0492 124.295C87.6078 120.576 95.549 119.905 103.736 121.32C106.977 121.876 110.233 122.295 113.59 122.764C114.24 116.778 117.77 113.089 122.585 110.367L122.556 110.36ZM73.1692 138.786C73.3064 140.129 73.3497 141.486 73.6024 142.801C74.9596 149.884 78.3166 155.739 84.4313 159.703C92.1343 164.678 101.144 161.241 103.44 152.562C106.06 142.663 101.418 131.082 92.6757 125.717C87.1818 122.338 80.9733 123.031 76.8872 127.638C74.1366 130.786 73.3136 134.678 73.1692 138.786Z" fill="#DFD4BF"/>
<path d="M122.597 110.397C125.629 107.992 129.195 107.249 132.935 107.314C134.699 107.427 136.455 107.635 138.198 107.934L138.262 108.382C136.681 109.169 135.122 109.985 133.505 110.693C133.173 110.844 132.653 110.606 132.227 110.498C130.726 110.129 129.231 109.444 127.737 109.436C126.019 109.436 124.293 110.028 122.568 110.368L122.597 110.397Z" fill="#DFD4BF"/>
<path d="M415.995 26.7611C417.786 26.8745 419.566 27.1171 421.322 27.4871C427.216 29.0914 430.874 33.9407 430.976 40.3508C431.085 47.2473 431.041 54.1438 430.976 61.033C430.922 61.6239 431.009 62.219 431.228 62.7702C431.448 63.3214 431.794 63.8131 432.239 64.2054C433.255 65.0983 434.112 66.1655 435.142 67.3125H421.954C423.173 66.013 424.342 64.8588 425.387 63.6029C425.813 63.0805 426.067 62.4388 426.113 61.7662C426.164 54.8697 426.193 47.9733 426.113 41.084C426.077 36.9607 424.872 33.2511 421.562 30.507C419.921 29.0704 417.849 28.2197 415.672 28.0883C413.495 27.9569 411.337 28.5523 409.535 29.7811C408.359 30.5587 407.254 31.438 406.232 32.409C405.79 32.8582 405.531 33.4561 405.506 34.0859C405.463 43.349 405.463 52.6072 405.506 61.8606C405.57 62.5366 405.847 63.1749 406.297 63.6827C407.321 64.8951 408.475 66.013 409.731 67.3125H396.303C397.478 66.1001 398.48 64.9967 399.54 63.9876C399.908 63.6542 400.196 63.2423 400.383 62.7824C400.571 62.3225 400.652 61.8263 400.621 61.3307C400.621 48.9896 400.621 36.6485 400.621 24.3437C400.621 20.9245 401.166 17.6578 403.271 14.7975C404.71 12.9573 406.814 11.7542 409.13 11.4462C411.446 11.1382 413.79 11.7496 415.661 13.1496C416.585 13.8258 417.362 14.6825 417.945 15.6678C418.528 16.6531 418.906 17.7465 419.054 18.8819C419.203 20.0173 419.12 21.171 418.81 22.2733C418.5 23.3756 417.969 24.4034 417.25 25.2947C416.822 25.8537 416.365 26.3473 415.995 26.7611ZM405.477 31.5596C408.569 29.9408 411.531 28.4163 414.463 26.8482C415.503 26.3048 416.405 25.5311 417.101 24.5861C417.797 23.6411 418.267 22.5497 418.477 21.3951C418.687 20.2406 418.631 19.0533 418.313 17.9238C417.994 16.7943 417.423 15.7523 416.641 14.8774C413.287 10.9863 408.308 11.8502 406.479 16.6705C404.65 21.4908 405.855 26.7103 405.477 31.5596Z" fill="#DFD4BF"/>
<path d="M382.863 67.3852H369.703C370.974 66.0495 372.135 64.9243 373.158 63.6974C373.603 63.1917 373.871 62.5544 373.921 61.8826C373.954 45.481 373.954 29.0819 373.921 12.6852C373.921 12.2932 373.862 11.9012 373.819 11.3495C371.641 11.3495 369.464 11.3059 367.286 11.3858C366.88 11.3858 366.444 11.8794 366.096 12.2134C363.193 15.0518 360.289 17.8975 357.335 20.7432C356.979 21.0917 356.609 21.4038 355.883 22.0282C356.362 20.3803 356.718 19.1244 357.088 17.854C357.691 15.8286 358.322 13.8177 358.881 11.7923C358.897 11.6342 358.945 11.481 359.021 11.3416C359.098 11.2022 359.201 11.0795 359.325 10.9807C359.45 10.8819 359.593 10.8091 359.746 10.7664C359.899 10.7238 360.059 10.7122 360.217 10.7324C370.988 10.7324 381.76 10.7324 392.531 10.7687C392.937 10.7687 393.62 11.0446 393.714 11.335C394.81 14.7614 395.819 18.2097 396.617 21.7886C395.275 20.5182 393.925 19.2478 392.596 17.9629C390.535 15.9665 388.503 13.9484 386.427 11.9738C386.128 11.6494 385.729 11.4346 385.294 11.364C383.197 11.3059 381.092 11.364 378.762 11.364V13.4257C378.762 29.2731 378.762 45.1132 378.718 60.9606C378.677 61.6032 378.787 62.2465 379.039 62.839C379.291 63.4315 379.678 63.9567 380.17 64.3726C381.143 65.2437 382.093 66.1221 383.073 67.0005L382.863 67.3852Z" fill="#DFD4BF"/>
<path d="M475.471 36.0813H451.918C449.798 36.0813 447.686 36.1539 445.574 36.0813C445.131 36.0164 444.68 36.1167 444.307 36.3631C443.933 36.6094 443.664 36.9845 443.549 37.417C440.834 43.9941 441.538 50.3171 445.117 56.3279C447.969 61.1192 452.07 64.3932 457.754 65.1554C466.935 66.3968 475.108 60.2988 474.731 51.043C474.528 45.9033 471.828 42.2083 467.567 39.5005C467.27 39.3316 467.009 39.1073 466.797 38.8399C469.17 39.7311 471.239 41.2797 472.764 43.3044C477.119 48.7926 476.516 57.17 471.312 62.6146C466.108 68.0592 459.873 68.8287 453.101 67.0937C445.262 65.0756 439.499 60.4803 437.619 52.2917C435.84 44.5168 437.895 37.5404 443.73 32.0596C449.566 26.5787 456.403 25.468 463.938 27.5224C468.185 28.7036 471.924 31.2558 474.571 34.7818C474.876 35.094 475.065 35.4715 475.471 36.0813ZM444.942 35.3553H468.823C467.262 31.1013 464.192 28.9743 460.054 28.2628C454.386 27.3046 448.209 30.2011 444.942 35.3771V35.3553Z" fill="#DFD4BF"/>
</svg>
