<svg width="78" height="58" viewBox="0 0 78 58" fill="none" xmlns="http://www.w3.org/2000/svg">
<path d="M59.1082 22.1923C59.7412 22.1923 60.1307 22.6061 60.1307 23.5798L60.1307 23.8963L60.3984 23.8963L60.3984 18.7842L60.1307 18.7842L60.1307 19.1006C60.1307 20.0744 59.7412 20.4882 59.1082 20.4882L19.5756 20.4882C18.9426 20.4882 18.5531 20.0744 18.5531 19.1006L18.5531 18.7842L18.2854 18.7842L18.2854 23.8963L18.5531 23.8963L18.5531 23.5798C18.5531 22.6061 18.9426 22.1923 19.5755 22.1923L59.1082 22.1923Z" fill="#DFD4BF"/>
<path d="M59.1082 28.9169C59.7412 28.9169 60.1307 29.3307 60.1307 30.3044L60.1307 30.6209L60.3984 30.6209L60.3984 25.5088L60.1307 25.5088L60.1307 25.8253C60.1307 26.799 59.7412 27.2128 59.1082 27.2128L19.5756 27.2128C18.9426 27.2128 18.5531 26.799 18.5531 25.8253L18.5531 25.5088L18.2854 25.5088L18.2854 30.6209L18.5531 30.6209L18.5531 30.3044C18.5531 29.3307 18.9426 28.9169 19.5755 28.9169L59.1082 28.9169Z" fill="#DFD4BF"/>
<path d="M59.1082 35.6415C59.7412 35.6415 60.1307 36.0553 60.1307 37.029L60.1307 37.3455L60.3984 37.3455L60.3984 32.2334L60.1307 32.2334L60.1307 32.5499C60.1307 33.5236 59.7412 33.9374 59.1082 33.9374L19.5756 33.9374C18.9426 33.9374 18.5531 33.5236 18.5531 32.5499L18.5531 32.2334L18.2854 32.2334L18.2854 37.3455L18.5531 37.3455L18.5531 37.029C18.5531 36.0553 18.9426 35.6415 19.5755 35.6415L59.1082 35.6415Z" fill="#DFD4BF"/>
<mask id="path-4-inside-1_3_4" fill="white">
<path d="M1.11764 32.0364C1.03607 31.8696 1.15822 31.581 1.01538 31.3244C0.9196 31.1531 1.00117 30.9355 0.876174 30.7471C0.838027 30.6897 0.86035 30.4653 0.905402 30.33C1.02836 29.9574 0.971137 29.5808 0.977629 29.2019C0.988593 28.5195 0.829505 27.8414 0.930152 27.1599C1.00726 26.6384 0.977225 26.0995 1.11439 25.5942C1.19313 25.3034 1.15214 24.9962 1.28931 24.7176C1.35952 24.5748 1.29702 24.4007 1.32989 24.2394C1.43419 23.7299 1.55147 23.2235 1.66389 22.7162C1.80349 22.0841 1.93376 21.4466 2.11354 20.8276C2.24016 20.3908 2.34852 19.9452 2.50719 19.5149C2.83348 18.6293 3.23282 17.7762 3.61916 16.917C3.89593 16.3005 4.25996 15.7309 4.60937 15.1547C5.04483 14.4361 5.47298 13.7126 5.96646 13.0305C6.28585 12.5892 6.64054 12.1778 7.00294 11.7729C7.44286 11.2816 7.86898 10.7766 8.33041 10.3063C9.02762 9.5959 9.71793 8.87884 10.4732 8.22575C11.0186 7.75393 11.6448 7.39498 12.1935 6.93428C12.6009 6.59209 13.0981 6.39494 13.5047 6.05611C13.6001 5.97669 13.7356 5.94768 13.8452 5.88344C14.2575 5.6425 14.6572 5.37867 15.0805 5.15924C15.3354 5.02694 15.6101 4.92759 15.8699 4.80012C16.2578 4.60979 16.6381 4.40204 17.0338 4.22989C17.5195 4.01838 18.0146 3.82573 18.5126 3.64339C19.1372 3.41463 19.7759 3.22304 20.3956 2.98153C21.0746 2.71673 21.7945 2.61344 22.4856 2.40173C22.8988 2.27519 23.3302 2.22004 23.7368 2.08161C23.9892 1.99582 24.2839 2.04468 24.4977 1.84193C25.0062 1.83154 25.4908 1.67229 25.99 1.60022C26.7809 1.4861 27.5638 1.3174 28.3527 1.18908C28.7938 1.11737 29.2483 1.11594 29.6822 1.01822C30.1379 0.915588 30.5961 0.844648 31.0567 0.820623C31.842 0.779635 32.624 0.696483 33.4068 0.633702C34.3398 0.558867 35.2753 0.541091 36.2071 0.468124C36.5767 0.439148 36.9474 0.442881 37.3176 0.398605C37.8461 0.335377 38.3831 0.324381 38.9158 0.352464C39.6444 0.390896 40.3729 0.373891 41.101 0.370036C41.3823 0.368494 41.6672 0.374296 41.9517 0.352422C42.1799 0.33489 42.4501 0.38002 42.6886 0.436917C42.9791 0.506232 43.2646 0.446939 43.5506 0.482651C44.1366 0.555903 44.7322 0.494706 45.3142 0.564793C45.8464 0.628873 46.382 0.671889 46.9129 0.753501C47.291 0.811575 47.6755 0.828133 48.0573 0.861573C48.5675 0.906255 49.0711 1.00369 49.5791 1.05909C49.9918 1.1041 50.3929 1.21472 50.8184 1.2101C51.0657 1.20742 51.3275 1.33611 51.5902 1.38468C52.0457 1.46889 52.4913 1.61645 52.9491 1.67485C53.3518 1.72619 53.7153 1.89351 54.1058 1.97455C54.4431 2.04452 54.7861 2.10649 55.1126 2.20892C55.4446 2.31305 55.7877 2.35859 56.1193 2.4624C56.5607 2.60066 57.0232 2.67205 57.464 2.81186C57.8438 2.93235 58.2324 3.01611 58.6122 3.13315C58.6606 3.14808 58.684 3.18932 58.7177 3.2215C58.7876 3.2883 58.8549 3.36889 58.9739 3.2803C59.037 3.23339 59.1154 3.28907 59.1854 3.31309C59.5231 3.42916 59.8128 3.65557 60.1616 3.74392C60.7258 3.88685 61.2379 4.16066 61.7542 4.41057C62.3108 4.68 62.9049 4.86311 63.4332 5.20388C63.9663 5.54786 64.552 5.80941 65.0984 6.13452C65.352 6.28545 65.5531 6.52269 65.802 6.68365C66.4289 7.08894 66.9892 7.5828 67.5815 8.03184C67.8163 8.20992 68.0641 8.40496 68.2887 8.61534C68.7067 9.007 69.0917 9.43117 69.5143 9.81704C69.7196 10.0046 69.9357 10.1824 70.1246 10.3854C70.302 10.576 70.4415 10.8013 70.6125 10.9986C71.3942 11.9006 72.1319 12.8354 72.7794 13.84C73.1324 14.3877 73.5088 14.9206 73.8539 15.4731C74.0693 15.8178 74.252 16.1836 74.4379 16.5457C74.5512 16.7664 74.7231 16.9502 74.8101 17.1877C74.9683 17.6193 75.259 17.9866 75.3501 18.4593C75.4358 18.9037 75.631 19.3245 75.8278 19.7402C75.9203 19.9356 75.9575 20.17 76.0197 20.387C76.1208 20.7399 76.2612 21.0807 76.3554 21.4326C76.4132 21.6489 76.4747 21.8679 76.5207 22.0887C76.5404 22.1831 76.5578 22.2736 76.6243 22.3471C76.6567 22.3831 76.6804 22.4212 76.6768 22.4735C76.648 22.8979 76.8252 23.2863 76.8875 23.6938C76.9311 23.9783 76.9656 24.2671 77.0374 24.5429C77.0865 24.7315 77.0023 24.9493 77.1721 25.1182C77.2141 25.16 77.1436 25.2782 77.1493 25.3758C77.1774 25.8551 77.2371 26.3307 77.2814 26.8082C77.3141 27.1613 77.3139 27.5176 77.3287 27.8724C77.3483 28.3454 77.3853 28.8185 77.3827 29.2913C77.3806 29.6618 77.3378 30.0331 77.2954 30.402C77.283 30.5098 77.2742 30.6166 77.2773 30.7233C77.2856 31.0094 77.1962 31.2793 77.1535 31.5569C77.0749 32.0683 77.0095 32.5821 76.9555 33.0968C76.9202 33.4339 76.7769 33.7453 76.7424 34.0799C76.6892 34.5946 76.4396 35.0571 76.3547 35.5605C76.311 35.8198 76.1601 36.0577 76.2074 36.3359C76.221 36.4155 76.1236 36.4585 76.0962 36.5386C75.8399 37.2885 75.5802 38.0374 75.3057 38.7808C75.0669 39.4276 74.7484 40.0377 74.4283 40.6481C74.2834 40.9244 74.1483 41.2125 74.0058 41.4896C73.8758 41.742 73.7331 41.9977 73.5706 42.2382C73.2951 42.6458 73.0201 43.0568 72.7866 43.4888C72.3803 44.2403 71.7987 44.8608 71.3077 45.5483C71.1241 45.8053 70.8564 45.9771 70.6658 46.2303C70.3308 46.6754 69.8944 47.0338 69.5562 47.4782C69.447 47.6217 69.2707 47.6776 69.1454 47.8002C68.8222 48.116 68.4568 48.3824 68.1146 48.676C67.9169 48.8456 67.7336 49.0328 67.5513 49.2193C67.3892 49.385 67.1709 49.4654 66.9943 49.6109C66.5794 49.9528 66.1144 50.2268 65.6886 50.5561C65.4993 50.7025 65.2456 50.8057 65.087 50.9559C64.8833 51.149 64.5532 51.1156 64.4165 51.3944C64.4001 51.428 64.246 51.412 64.1495 51.4728C63.6685 51.7757 63.155 52.0215 62.6482 52.2784C62.1563 52.5277 61.6692 52.7876 61.1691 53.0193C60.7914 53.1943 60.3863 53.3118 60.0217 53.5156C59.3775 53.8755 58.6638 54.0331 57.9708 54.2545C57.5306 54.395 57.1126 54.5997 56.6637 54.7194C56.3852 54.7937 56.1143 54.8973 55.8349 54.9672C55.301 55.1009 54.7634 55.2198 54.2275 55.345C53.6088 55.4896 52.9919 55.6425 52.3709 55.7764C51.9351 55.8703 51.5052 55.9851 51.0629 56.0588C50.4404 56.1627 49.8183 56.2791 49.1982 56.402C48.8811 56.4648 48.549 56.4488 48.225 56.4809C47.5876 56.5441 46.9518 56.6249 46.3139 56.6815C45.7704 56.7298 45.2319 56.82 44.686 56.8498C44.2447 56.8739 43.8061 56.9443 43.365 56.9772C43.012 57.0036 42.6573 57.0026 42.3033 57.021C41.5493 57.0602 40.793 57.0569 40.0396 57.104C39.742 57.1226 39.4411 57.0879 39.1398 57.1709C39.0238 57.2029 38.8478 57.1072 38.6957 57.1267C38.2917 57.1785 37.8888 57.1857 37.4851 57.128C36.971 57.0545 36.4522 57.0955 35.9355 57.0652C35.2919 57.0275 34.6475 57.0134 34.005 56.9394C33.5586 56.888 33.1077 56.8651 32.6573 56.8419C32.1297 56.8148 31.6054 56.7241 31.079 56.6688C30.4922 56.6071 29.9033 56.5668 29.3181 56.4927C28.961 56.4475 28.6157 56.3298 28.2545 56.2885C27.7001 56.225 27.1462 56.1541 26.5954 56.0646C26.3377 56.0228 26.0768 55.9515 25.8236 55.9273C25.4173 55.8886 25.0326 55.7627 24.6572 55.6491C24.255 55.5275 23.8484 55.4092 23.4446 55.2887C22.8269 55.1041 22.191 54.9794 21.5774 54.7824C21.1984 54.6605 20.8128 54.554 20.4374 54.4079C20.0275 54.2483 19.6055 54.107 19.1883 53.9594C18.5629 53.7382 17.9497 53.4874 17.3442 53.2132C16.7992 52.9664 16.2789 52.6641 15.7181 52.4566C15.3329 52.314 15.0257 52.0441 14.656 51.8805C14.2384 51.6954 13.8793 51.4121 13.4974 51.1673C13.2835 51.0302 13.0611 50.9039 12.8343 50.7896C12.607 50.6752 12.3923 50.5429 12.2211 50.3573C12.051 50.173 11.8035 50.1222 11.6168 49.9646C11.2524 49.6572 10.8441 49.4107 10.4935 49.0756C10.1964 48.7919 9.86686 48.514 9.47199 48.3487C9.44034 48.3354 9.41599 48.3195 9.3957 48.2889C9.03532 47.7463 8.52033 47.3478 8.06012 46.9024C7.86898 46.7178 7.74602 46.4938 7.56502 46.3083C7.25252 45.9876 7.01066 45.6061 6.68234 45.293C6.53786 45.1552 6.44655 44.9424 6.3244 44.7676C6.12027 44.4759 5.9133 44.1869 5.6909 43.909C5.40967 43.558 5.17104 43.1765 4.94987 42.7871C4.71165 42.3676 4.48682 41.938 4.23805 41.5267C3.97061 41.0845 3.74456 40.6211 3.48321 40.1765C3.33914 39.9318 3.28232 39.6412 3.14556 39.3861C2.78762 38.7173 2.56279 37.9946 2.29779 37.2872C2.1176 36.8072 1.97677 36.3142 1.84529 35.8258C1.66916 35.1724 1.45611 34.5235 1.41268 33.8309C1.39036 33.4728 1.2605 33.1114 1.21139 32.745C1.18379 32.5394 1.15701 32.3336 1.11764 32.0364Z"/>
</mask>
<path d="M1.11764 32.0364C1.03607 31.8696 1.15822 31.581 1.01538 31.3244C0.9196 31.1531 1.00117 30.9355 0.876174 30.7471C0.838027 30.6897 0.86035 30.4653 0.905402 30.33C1.02836 29.9574 0.971137 29.5808 0.977629 29.2019C0.988593 28.5195 0.829505 27.8414 0.930152 27.1599C1.00726 26.6384 0.977225 26.0995 1.11439 25.5942C1.19313 25.3034 1.15214 24.9962 1.28931 24.7176C1.35952 24.5748 1.29702 24.4007 1.32989 24.2394C1.43419 23.7299 1.55147 23.2235 1.66389 22.7162C1.80349 22.0841 1.93376 21.4466 2.11354 20.8276C2.24016 20.3908 2.34852 19.9452 2.50719 19.5149C2.83348 18.6293 3.23282 17.7762 3.61916 16.917C3.89593 16.3005 4.25996 15.7309 4.60937 15.1547C5.04483 14.4361 5.47298 13.7126 5.96646 13.0305C6.28585 12.5892 6.64054 12.1778 7.00294 11.7729C7.44286 11.2816 7.86898 10.7766 8.33041 10.3063C9.02762 9.5959 9.71793 8.87884 10.4732 8.22575C11.0186 7.75393 11.6448 7.39498 12.1935 6.93428C12.6009 6.59209 13.0981 6.39494 13.5047 6.05611C13.6001 5.97669 13.7356 5.94768 13.8452 5.88344C14.2575 5.6425 14.6572 5.37867 15.0805 5.15924C15.3354 5.02694 15.6101 4.92759 15.8699 4.80012C16.2578 4.60979 16.6381 4.40204 17.0338 4.22989C17.5195 4.01838 18.0146 3.82573 18.5126 3.64339C19.1372 3.41463 19.7759 3.22304 20.3956 2.98153C21.0746 2.71673 21.7945 2.61344 22.4856 2.40173C22.8988 2.27519 23.3302 2.22004 23.7368 2.08161C23.9892 1.99582 24.2839 2.04468 24.4977 1.84193C25.0062 1.83154 25.4908 1.67229 25.99 1.60022C26.7809 1.4861 27.5638 1.3174 28.3527 1.18908C28.7938 1.11737 29.2483 1.11594 29.6822 1.01822C30.1379 0.915588 30.5961 0.844648 31.0567 0.820623C31.842 0.779635 32.624 0.696483 33.4068 0.633702C34.3398 0.558867 35.2753 0.541091 36.2071 0.468124C36.5767 0.439148 36.9474 0.442881 37.3176 0.398605C37.8461 0.335377 38.3831 0.324381 38.9158 0.352464C39.6444 0.390896 40.3729 0.373891 41.101 0.370036C41.3823 0.368494 41.6672 0.374296 41.9517 0.352422C42.1799 0.33489 42.4501 0.38002 42.6886 0.436917C42.9791 0.506232 43.2646 0.446939 43.5506 0.482651C44.1366 0.555903 44.7322 0.494706 45.3142 0.564793C45.8464 0.628873 46.382 0.671889 46.9129 0.753501C47.291 0.811575 47.6755 0.828133 48.0573 0.861573C48.5675 0.906255 49.0711 1.00369 49.5791 1.05909C49.9918 1.1041 50.3929 1.21472 50.8184 1.2101C51.0657 1.20742 51.3275 1.33611 51.5902 1.38468C52.0457 1.46889 52.4913 1.61645 52.9491 1.67485C53.3518 1.72619 53.7153 1.89351 54.1058 1.97455C54.4431 2.04452 54.7861 2.10649 55.1126 2.20892C55.4446 2.31305 55.7877 2.35859 56.1193 2.4624C56.5607 2.60066 57.0232 2.67205 57.464 2.81186C57.8438 2.93235 58.2324 3.01611 58.6122 3.13315C58.6606 3.14808 58.684 3.18932 58.7177 3.2215C58.7876 3.2883 58.8549 3.36889 58.9739 3.2803C59.037 3.23339 59.1154 3.28907 59.1854 3.31309C59.5231 3.42916 59.8128 3.65557 60.1616 3.74392C60.7258 3.88685 61.2379 4.16066 61.7542 4.41057C62.3108 4.68 62.9049 4.86311 63.4332 5.20388C63.9663 5.54786 64.552 5.80941 65.0984 6.13452C65.352 6.28545 65.5531 6.52269 65.802 6.68365C66.4289 7.08894 66.9892 7.5828 67.5815 8.03184C67.8163 8.20992 68.0641 8.40496 68.2887 8.61534C68.7067 9.007 69.0917 9.43117 69.5143 9.81704C69.7196 10.0046 69.9357 10.1824 70.1246 10.3854C70.302 10.576 70.4415 10.8013 70.6125 10.9986C71.3942 11.9006 72.1319 12.8354 72.7794 13.84C73.1324 14.3877 73.5088 14.9206 73.8539 15.4731C74.0693 15.8178 74.252 16.1836 74.4379 16.5457C74.5512 16.7664 74.7231 16.9502 74.8101 17.1877C74.9683 17.6193 75.259 17.9866 75.3501 18.4593C75.4358 18.9037 75.631 19.3245 75.8278 19.7402C75.9203 19.9356 75.9575 20.17 76.0197 20.387C76.1208 20.7399 76.2612 21.0807 76.3554 21.4326C76.4132 21.6489 76.4747 21.8679 76.5207 22.0887C76.5404 22.1831 76.5578 22.2736 76.6243 22.3471C76.6567 22.3831 76.6804 22.4212 76.6768 22.4735C76.648 22.8979 76.8252 23.2863 76.8875 23.6938C76.9311 23.9783 76.9656 24.2671 77.0374 24.5429C77.0865 24.7315 77.0023 24.9493 77.1721 25.1182C77.2141 25.16 77.1436 25.2782 77.1493 25.3758C77.1774 25.8551 77.2371 26.3307 77.2814 26.8082C77.3141 27.1613 77.3139 27.5176 77.3287 27.8724C77.3483 28.3454 77.3853 28.8185 77.3827 29.2913C77.3806 29.6618 77.3378 30.0331 77.2954 30.402C77.283 30.5098 77.2742 30.6166 77.2773 30.7233C77.2856 31.0094 77.1962 31.2793 77.1535 31.5569C77.0749 32.0683 77.0095 32.5821 76.9555 33.0968C76.9202 33.4339 76.7769 33.7453 76.7424 34.0799C76.6892 34.5946 76.4396 35.0571 76.3547 35.5605C76.311 35.8198 76.1601 36.0577 76.2074 36.3359C76.221 36.4155 76.1236 36.4585 76.0962 36.5386C75.8399 37.2885 75.5802 38.0374 75.3057 38.7808C75.0669 39.4276 74.7484 40.0377 74.4283 40.6481C74.2834 40.9244 74.1483 41.2125 74.0058 41.4896C73.8758 41.742 73.7331 41.9977 73.5706 42.2382C73.2951 42.6458 73.0201 43.0568 72.7866 43.4888C72.3803 44.2403 71.7987 44.8608 71.3077 45.5483C71.1241 45.8053 70.8564 45.9771 70.6658 46.2303C70.3308 46.6754 69.8944 47.0338 69.5562 47.4782C69.447 47.6217 69.2707 47.6776 69.1454 47.8002C68.8222 48.116 68.4568 48.3824 68.1146 48.676C67.9169 48.8456 67.7336 49.0328 67.5513 49.2193C67.3892 49.385 67.1709 49.4654 66.9943 49.6109C66.5794 49.9528 66.1144 50.2268 65.6886 50.5561C65.4993 50.7025 65.2456 50.8057 65.087 50.9559C64.8833 51.149 64.5532 51.1156 64.4165 51.3944C64.4001 51.428 64.246 51.412 64.1495 51.4728C63.6685 51.7757 63.155 52.0215 62.6482 52.2784C62.1563 52.5277 61.6692 52.7876 61.1691 53.0193C60.7914 53.1943 60.3863 53.3118 60.0217 53.5156C59.3775 53.8755 58.6638 54.0331 57.9708 54.2545C57.5306 54.395 57.1126 54.5997 56.6637 54.7194C56.3852 54.7937 56.1143 54.8973 55.8349 54.9672C55.301 55.1009 54.7634 55.2198 54.2275 55.345C53.6088 55.4896 52.9919 55.6425 52.3709 55.7764C51.9351 55.8703 51.5052 55.9851 51.0629 56.0588C50.4404 56.1627 49.8183 56.2791 49.1982 56.402C48.8811 56.4648 48.549 56.4488 48.225 56.4809C47.5876 56.5441 46.9518 56.6249 46.3139 56.6815C45.7704 56.7298 45.2319 56.82 44.686 56.8498C44.2447 56.8739 43.8061 56.9443 43.365 56.9772C43.012 57.0036 42.6573 57.0026 42.3033 57.021C41.5493 57.0602 40.793 57.0569 40.0396 57.104C39.742 57.1226 39.4411 57.0879 39.1398 57.1709C39.0238 57.2029 38.8478 57.1072 38.6957 57.1267C38.2917 57.1785 37.8888 57.1857 37.4851 57.128C36.971 57.0545 36.4522 57.0955 35.9355 57.0652C35.2919 57.0275 34.6475 57.0134 34.005 56.9394C33.5586 56.888 33.1077 56.8651 32.6573 56.8419C32.1297 56.8148 31.6054 56.7241 31.079 56.6688C30.4922 56.6071 29.9033 56.5668 29.3181 56.4927C28.961 56.4475 28.6157 56.3298 28.2545 56.2885C27.7001 56.225 27.1462 56.1541 26.5954 56.0646C26.3377 56.0228 26.0768 55.9515 25.8236 55.9273C25.4173 55.8886 25.0326 55.7627 24.6572 55.6491C24.255 55.5275 23.8484 55.4092 23.4446 55.2887C22.8269 55.1041 22.191 54.9794 21.5774 54.7824C21.1984 54.6605 20.8128 54.554 20.4374 54.4079C20.0275 54.2483 19.6055 54.107 19.1883 53.9594C18.5629 53.7382 17.9497 53.4874 17.3442 53.2132C16.7992 52.9664 16.2789 52.6641 15.7181 52.4566C15.3329 52.314 15.0257 52.0441 14.656 51.8805C14.2384 51.6954 13.8793 51.4121 13.4974 51.1673C13.2835 51.0302 13.0611 50.9039 12.8343 50.7896C12.607 50.6752 12.3923 50.5429 12.2211 50.3573C12.051 50.173 11.8035 50.1222 11.6168 49.9646C11.2524 49.6572 10.8441 49.4107 10.4935 49.0756C10.1964 48.7919 9.86686 48.514 9.47199 48.3487C9.44034 48.3354 9.41599 48.3195 9.3957 48.2889C9.03532 47.7463 8.52033 47.3478 8.06012 46.9024C7.86898 46.7178 7.74602 46.4938 7.56502 46.3083C7.25252 45.9876 7.01066 45.6061 6.68234 45.293C6.53786 45.1552 6.44655 44.9424 6.3244 44.7676C6.12027 44.4759 5.9133 44.1869 5.6909 43.909C5.40967 43.558 5.17104 43.1765 4.94987 42.7871C4.71165 42.3676 4.48682 41.938 4.23805 41.5267C3.97061 41.0845 3.74456 40.6211 3.48321 40.1765C3.33914 39.9318 3.28232 39.6412 3.14556 39.3861C2.78762 38.7173 2.56279 37.9946 2.29779 37.2872C2.1176 36.8072 1.97677 36.3142 1.84529 35.8258C1.66916 35.1724 1.45611 34.5235 1.41268 33.8309C1.39036 33.4728 1.2605 33.1114 1.21139 32.745C1.18379 32.5394 1.15701 32.3336 1.11764 32.0364Z" stroke="#DFD4BF" stroke-width="2" mask="url(#path-4-inside-1_3_4)"/>
</svg>
