<svg width="1235" height="924" viewBox="0 0 1235 924" fill="none" xmlns="http://www.w3.org/2000/svg">
<path d="M1230.9 406.628C1231.7 411.575 1231 416.601 1231.74 421.516C1231.95 423.006 1232.03 424.473 1231.97 425.924C1231.77 430.387 1232.09 434.697 1233.58 439.006C1234.21 440.851 1233.47 443.158 1233.43 445.257C1233.33 449.582 1233.21 453.866 1234.03 458.203C1234.51 460.746 1233.65 463.55 1233.43 466.219C1232.83 473.471 1234.04 480.824 1232.12 488.005C1231.62 489.851 1232.44 491.838 1232.4 493.841C1232.31 500.311 1230.57 506.497 1229.96 512.844C1229.74 515.178 1229.44 517.61 1230.04 519.991C1230.15 520.461 1230.1 521.05 1229.92 521.505C1226.34 530.784 1225.45 540.702 1223.35 550.316C1222.09 556.052 1220.09 561.562 1219.02 567.314C1217.81 573.728 1216.09 580.039 1215.35 586.55C1215.14 588.342 1213.75 589.9 1212.9 591.535C1210.09 596.918 1208.71 602.805 1206.75 608.454C1203.26 618.497 1199.46 628.325 1194.71 637.872C1190.5 646.331 1186.09 654.769 1183.3 663.9C1182.55 666.384 1180.43 668.291 1178.95 670.425C1174.99 676.16 1172.01 682.453 1168.28 688.273C1162.06 697.992 1155.98 707.8 1148.93 717.021C1142.3 725.696 1135.51 734.238 1128.49 742.569C1121.46 750.905 1114.1 759.02 1106.29 766.611C1102.26 770.517 1098.71 774.79 1094.76 778.707C1092.34 781.117 1089 782.575 1086.35 784.802C1078.34 791.547 1069.44 797.197 1061.98 804.618C1061.12 805.478 1059.84 805.904 1058.91 806.71C1052.12 812.572 1044.26 816.79 1036.73 821.545C1031.26 824.998 1025.66 828.247 1020.47 832.23C1014.9 836.505 1008.49 839.697 1002.37 843.241C999.069 845.155 995.408 846.727 992.409 848.821C988.959 851.233 984.877 850.83 981.516 853.127C978.167 855.418 974.162 856.812 970.488 858.642C964.357 861.695 957.939 864.082 951.604 866.499C943.066 869.755 934.846 873.901 925.824 875.971C920.495 877.194 915.465 879.679 910.187 881.175C900.878 883.807 892.073 887.96 882.376 889.46C875.85 890.471 869.572 893.016 863.071 894.234C855.31 895.687 847.765 897.988 840.182 899.987C830.511 902.535 820.598 903.418 810.882 905.543C802.121 907.458 793.252 908.985 784.408 910.441C776.755 911.702 768.955 912.356 761.239 913.318C750.65 914.637 740.018 915.506 729.449 916.985C723.075 917.876 716.613 918.133 710.239 919.028C702.103 920.17 693.896 920.429 685.733 921.163C678.602 921.804 671.408 922.562 664.156 922.075C656.573 921.566 648.977 922.306 641.387 922.827C635.706 923.216 629.942 922.386 624.258 922.76C617.597 923.198 610.888 923.279 604.313 922.889C597.815 922.504 591.321 922.853 584.818 922.388C578.005 921.9 571.121 921.793 564.271 921.475C555.65 921.075 547.008 921.269 538.403 920.399C530.125 919.562 521.778 919.254 513.555 918.065C506.851 917.095 500.234 916.372 493.44 916.655C490.278 916.786 487.078 915.466 483.866 915.016C470.037 913.082 456.342 909.978 442.411 909.14C437.016 908.816 432.163 907.106 427.049 906.13C418.748 904.547 410.458 903.019 402.012 902.394C400.161 902.257 398.379 901.323 396.539 900.862C388.911 898.953 381.12 897.46 373.67 895.135C361.793 891.428 349.519 889.147 337.851 884.637C333.277 882.869 328.573 881.128 323.538 880.163C320.006 879.486 316.224 877.483 312.461 876.258C307.169 874.537 302.041 872.293 296.715 870.698C291.536 869.146 286.778 866.662 281.785 864.717C275.846 862.404 269.844 860.251 263.882 857.994C261.439 857.069 259.145 855.691 256.945 854.416C251.725 851.39 245.752 850.384 240.51 847.378C235.109 844.28 229.329 841.824 223.851 838.784C215.898 834.371 208.49 829.105 200.691 824.48C196.056 821.73 191.864 818.477 187.508 815.381C176.332 807.437 165.754 798.733 154.871 790.424C146.762 784.235 139.951 776.713 132.067 770.35C128.389 767.382 125.725 763.239 121.371 761.037C121.1 757.337 117.806 755.82 115.768 753.438C107.947 744.295 99.9024 735.367 93.3865 725.161C89.2104 718.62 84.092 712.681 79.921 706.138C73.3841 695.882 66.3002 685.992 60.6311 675.134C57.9213 669.944 54.5112 664.844 51.7078 659.704C48.5918 653.987 44.9168 648.439 42.6362 642.167C40.8235 637.184 37.7464 632.676 35.5002 627.831C33.7913 624.147 32.7083 620.173 30.9937 616.492C25.5913 604.901 21.5858 592.776 18.2457 580.515C15.9485 572.081 13.8895 563.523 12.5665 554.759C11.4402 547.295 10.1133 539.691 7.67538 532.33C5.35145 525.315 5.42334 517.669 4.3416 510.315C3.61004 505.341 3.45093 500.281 2.83015 495.361C2.005 488.825 2.03873 482.223 0.953806 475.667C0.0229596 470.043 -0.543058 463.971 0.781265 458.065C1.23141 456.056 1.04927 453.849 0.849349 451.762C0.233667 445.361 2.73399 439.229 2.43347 432.903C2.12467 426.389 3.96471 420.055 3.65719 413.48C3.56296 411.46 4.93375 408.598 5.36543 405.98C6.20396 400.888 7.10935 395.781 7.86829 390.693C8.57248 385.975 10.2343 381.405 10.1655 376.563C10.1369 374.596 12.1768 372.86 11.8209 371.213C10.9206 367.043 13.8691 363.812 13.9111 359.753C13.9481 356.251 15.41 352.475 16.3465 348.854C18.0096 342.423 19.693 335.926 22.213 329.804C25.6531 321.445 28.5328 312.888 31.7341 304.453C35.6931 294.02 40.4034 283.919 44.5603 273.58C47.2765 266.825 50.1097 260.122 52.6673 253.302C52.9124 252.647 52.8965 249.136 55.528 251.868C56.0316 252.391 56.6568 251.208 57.0178 250.599C61.595 242.868 66.0793 235.08 70.7685 227.417C72.9639 223.829 75.6456 220.541 77.9333 217.004C80.4826 213.064 83.1045 209.13 85.189 204.941C87.0157 201.27 90.578 199.384 92.9325 196.23C96.6171 191.294 101.374 187.091 105.178 182.316C112.41 173.243 122.527 167.188 129.453 158.02C135.507 150.004 142.964 143.482 150.294 136.809C157.386 130.352 165.042 124.567 172.88 119.016C180.203 113.831 187.287 108.309 194.551 103.038C202.036 97.6055 210.092 93.078 218.369 89.0101C223.521 86.4786 228.124 83.1284 232.916 80.0901C243.712 73.245 255.242 67.8783 266.654 62.2295C275.65 57.7765 284.878 53.8825 294.336 50.6251C301.213 48.2566 308.209 46.1441 315.149 43.9424C324.787 40.885 334.837 39.3117 344.265 35.6399C353.71 31.9611 363.581 29.8817 373.356 27.4215C377.869 26.2856 382.308 24.7009 386.885 24.0094C394.449 22.8666 401.962 21.3219 409.359 19.601C420.625 16.9791 432.119 16.1444 443.448 14.119C449.51 13.0348 455.777 12.533 461.916 11.6722C467.611 10.8732 473.328 9.83089 479.019 9.03948C491.043 7.36752 503.109 5.84455 515.251 5.11172C518.409 4.92134 521.533 4.10956 524.692 3.94593C536.36 3.34171 548.053 3.12078 559.703 2.29117C566.401 1.81429 573.066 1.90725 579.75 1.78182C588.048 1.6252 596.374 1.20943 604.662 0.291321C610.816 -0.389941 617.044 0.349911 623.223 0.257591C636.125 0.0653102 648.971 1.67359 661.902 0.9293C667.632 0.60013 673.458 1.95501 679.277 1.86779C686.096 1.76592 692.877 2.43954 699.683 2.66047C708.056 2.93361 716.282 4.50816 724.61 5.16714C733.371 5.86177 742.119 6.81999 750.854 7.69289C759.036 8.51104 767.255 9.40242 775.405 10.6274C782.129 11.6385 788.744 13.2792 795.55 13.8376C808.571 14.9047 821.298 17.8475 834.013 20.5929C840.252 21.9395 846.581 22.9232 852.763 24.5455C860.811 26.6543 868.999 28.2594 876.932 30.7094C885.419 33.3288 894.155 35.0045 902.496 38.1727C907.678 40.1382 913.198 41.2047 918.591 42.5863C928.88 45.2247 938.946 48.4426 948.713 52.6963C955.78 55.7722 963.242 57.9599 970.112 61.4776C978.466 65.7536 987.08 69.4643 995.523 73.5404C1005.44 78.3277 1014.74 84.1261 1024.13 89.75C1032.05 94.494 1040 99.2641 1047.5 104.714C1050.51 106.898 1054.18 107.987 1057.16 110.525C1061.94 114.591 1066.99 118.379 1072.23 121.911C1080.01 127.159 1087.01 133.463 1093.85 139.817C1098.95 144.56 1104.23 149.014 1109.54 153.489C1111.29 154.963 1111.35 157.849 1113.32 159.737C1118.62 164.83 1123.45 170.414 1128.61 175.667C1131.01 178.108 1132.63 181.07 1134.63 183.769C1139.29 190.056 1144.91 195.591 1149.08 202.256C1153.56 209.41 1159.5 215.485 1163.75 222.874C1168.9 231.812 1174.97 240.217 1180.6 248.88C1183.27 252.991 1184.36 257.812 1186.42 262.208C1189.75 269.277 1193.18 276.334 1195.86 283.653C1199.51 293.574 1204.23 303.035 1207.87 312.923C1211.88 323.785 1215.63 334.775 1218.75 345.915C1221.29 354.978 1223.05 364.276 1224.51 373.619C1225.7 381.219 1227.62 388.705 1229.2 396.246C1229.92 399.685 1229.99 403.224 1230.9 406.628Z" fill="#181818"/>
<path d="M1221.26 386.049C1220.63 388.568 1220.93 390.024 1222.13 391.319C1223.56 392.866 1222.56 394.789 1222.77 396.527C1223.67 404.183 1224.54 411.846 1225.23 419.523C1225.87 426.53 1226.06 433.545 1225.87 440.604C1225.8 442.841 1225.83 445.546 1226.61 447.758C1227.49 450.248 1227.01 452.506 1226.86 454.914C1226.4 462.47 1225.89 470.034 1225.78 477.601C1225.71 482.745 1225.03 487.869 1224.45 492.9C1224 496.951 1224.35 501.055 1223.51 505.07C1222.47 509.977 1221.63 514.929 1220.79 519.876C1220.07 524.082 1219.28 528.324 1218.39 532.441C1216.8 539.749 1216.76 547.335 1214.53 554.434C1212.54 560.791 1212.43 567.493 1210.33 573.762C1207.24 583.002 1205.79 592.673 1202.47 601.885C1200.37 607.717 1198.23 613.572 1195.91 619.29C1193.75 624.575 1191.21 629.78 1188.93 635.027C1185.6 642.669 1182.11 650.223 1178.68 657.814C1175.72 664.374 1172.37 670.719 1168.66 676.859C1163.05 686.149 1157.2 695.305 1150.69 703.982C1147.63 708.05 1145.38 712.657 1141.44 716.207C1139.21 718.204 1138.2 721.59 1135.97 724.027C1134.25 725.902 1133.11 728.29 1131.15 730.153C1126.72 734.374 1123.8 739.924 1119.2 744.104C1116.11 746.907 1113.63 750.362 1110.8 753.447C1105.01 759.738 1098.94 765.768 1092.43 771.286C1083.25 779.067 1073.89 786.642 1064.45 794.102C1055.19 801.408 1045.57 808.204 1035.9 814.91C1029.78 819.153 1023.55 823.368 1016.52 826.163C1014.23 827.068 1012.47 829.046 1010.3 830.36C1002.1 835.317 993.812 840.044 985.089 844.046C978.448 847.096 972.043 850.689 965.307 853.517C957.737 856.698 949.963 859.534 942.5 862.867C933.014 867.104 922.979 869.591 913.435 873.54C907.903 875.83 902.051 877.288 896.149 878.56C892.297 879.39 888.713 881.347 884.784 882.272C879.353 883.55 874.056 885.377 868.65 886.761C862.748 888.27 856.7 889.246 850.874 890.993C844.271 892.974 837.471 893.843 830.754 895.155C818.753 897.499 806.681 899.466 794.609 901.473C784.429 903.168 774.241 904.898 764.01 906.241C754.071 907.545 744.183 909.247 734.257 910.448C726.674 911.368 719.04 912.309 711.323 912.585C705.51 912.794 699.653 914.123 693.738 914.471C688.982 914.75 684.2 914.82 679.463 914.875C669.123 914.995 658.853 916.542 648.533 916.183C636.911 915.778 625.273 915.916 613.66 915.074C611.856 914.943 608.717 913.391 608.317 917.352C608.302 917.499 607.578 917.694 607.2 917.664C602.058 917.253 596.897 917.54 591.757 917.512C582.786 917.463 573.899 916.241 564.922 916.165C560.081 916.124 555.117 915.523 550.22 915.062C546.275 914.691 542.333 913.707 538.279 914.359C534.502 914.966 530.723 913.934 527.018 913.525C514.481 912.14 501.941 910.959 489.358 910.071C479.054 909.343 468.807 908.008 458.565 906.57C454.1 905.942 450.314 903.452 445.843 903.273C438.599 902.983 431.577 901.191 424.509 899.818C412.949 897.571 401.416 895.155 389.929 892.562C382.118 890.798 374.39 888.651 366.645 886.603C357.207 884.108 347.818 881.482 338.49 878.551C329.055 875.586 319.768 872.249 310.467 868.942C304.847 866.944 299.435 864.374 293.851 862.269C287.354 859.821 280.552 858.176 274.311 855.056C267.69 851.746 260.941 848.7 254.347 845.321C250.828 843.518 246.956 842.344 243.453 840.365C237.752 837.147 231.606 834.793 226.004 831.357C220.804 828.166 215.432 825.255 210.237 822.056C204.793 818.705 199.565 814.97 194.111 811.686C189.066 808.648 183.929 805.671 179.331 802.094C174.401 798.258 169.54 794.248 165.023 789.825C161.559 786.432 157.851 783.184 153.95 780.186C150.506 777.539 147.493 774.209 144.117 771.531C137.459 766.248 132.181 759.659 126.12 753.836C121.172 749.082 116.505 743.972 112.102 738.601C105.524 730.58 99.488 722.19 93.5164 713.753C85.1891 701.988 76.2442 690.628 69.1858 678C65.2931 671.037 61.2781 664.128 57.7292 656.99C53.2246 647.928 48.5575 638.978 45.0965 629.356C42.3199 621.636 38.5405 614.172 35.5671 606.48C33.6424 601.503 31.9965 596.336 30.2762 591.247C28.7564 586.748 28.405 581.735 26.4217 577.756C24.5269 573.955 25.4035 569.67 22.958 566.28C22.5658 565.736 22.3576 564.742 22.5696 564.133C24.0175 559.978 21.1155 556.828 20.2502 553.21C19.1901 548.777 18.4159 544.273 17.5844 539.787C16.6892 534.962 15.8768 530.122 15.0172 525.29C13.8177 518.547 12.4125 511.833 11.4498 505.058C10.1306 495.773 9.87463 486.391 9.75812 477.028C9.68554 471.245 10.1096 465.455 10.3451 459.67C10.6361 452.51 11.325 445.342 11.1442 438.196C11.0264 433.508 12.3042 429.096 12.5595 424.514C12.8352 419.567 13.1033 414.573 14.0074 409.718C15.4393 402.024 15.3145 394.117 17.6098 386.527C18.5667 383.363 18.4088 379.857 18.7164 376.502C19.0054 373.362 20.1954 370.443 20.8805 367.439C21.565 364.432 21.8807 361.312 22.8428 358.321C24.7064 352.522 27.2283 346.908 28.8143 341.075C31.7571 330.256 35.8899 319.84 38.8843 309.027C41.6272 299.121 45.4556 289.392 50.2684 280.239C56.119 269.113 62.7718 258.409 68.6459 247.295C73.1919 238.694 78.3084 230.465 83.8336 222.516C90.9417 212.292 98.5553 202.42 106.357 192.704C111.432 186.383 117.166 180.587 122.209 174.313C127.129 168.192 132.983 163.12 138.344 157.553C145.774 149.838 153.291 142.166 161.652 135.303C169.606 128.773 178.721 123.973 186.513 117.321C196.512 108.783 207.748 101.987 218.468 94.4678C227.551 88.0964 237.291 82.815 247.447 78.4046C255.715 74.8143 264.134 71.5086 272.319 67.7788C279.503 64.505 286.834 61.5959 294.028 58.359C300.486 55.4531 307.384 53.7518 314.105 51.5712C321.441 49.1906 328.77 46.7698 336.18 44.6344C345.689 41.8934 355.293 39.4855 364.822 36.8126C373.261 34.446 381.911 33.1211 390.445 31.2759C400.861 29.0233 411.314 26.9089 421.715 24.5709C429.037 22.9251 436.617 22.7672 443.896 20.8055C450.732 18.9629 457.863 18.8941 464.755 17.6233C471.925 16.3002 479.141 15.2198 486.335 14.5086C504.625 12.7004 522.906 10.6674 541.292 9.88301C546.82 9.6468 552.321 8.15503 557.827 8.19004C565.603 8.24034 573.282 7.0096 581.064 7.17578C589.225 7.34896 597.423 6.58557 605.556 6.62695C609.863 6.64796 614.565 5.12565 618.951 7.52153C619.594 7.87298 621.803 6.99943 623.351 6.85363C624.893 6.70783 626.456 5.67192 627.264 7.95957C627.315 8.10282 627.853 8.18243 628.126 8.1213C637.253 6.08452 646.43 6.9504 655.632 7.39609C658.777 7.54889 662.183 8.61919 664.8 8.25118C669.957 7.52471 675.025 8.71532 680.074 7.83541C683.105 7.30695 685.862 9.39404 689.014 8.68413C695.279 7.27321 701.614 8.48677 707.917 8.63703C709.522 8.67523 711.355 8.12828 712.609 9.80724C712.756 9.99825 713.202 10.0505 713.494 10.0269C721.574 9.37113 729.616 10.5745 737.472 11.7855C744.648 12.8908 751.919 13.5873 759.082 14.6869C765.379 15.6515 771.688 17.1681 778.106 17.4476C783.645 17.6889 788.86 19.6251 794.316 20.363C800.161 21.1532 806.07 21.4778 811.851 22.7863C817.759 24.1239 823.674 25.5068 829.647 26.4988C832.754 27.0145 835.969 27.0629 839.031 27.8391C846.067 29.6199 853.115 31.4141 860.157 33.0689C866.269 34.5033 872.159 36.7967 878.468 37.5862C882.505 38.0911 886.363 39.9159 890.362 40.9034C895.506 42.1755 900.765 43.0109 905.884 44.3797C912.996 46.2835 920.019 48.4845 926.94 51.0688C932.04 52.9719 937.127 54.9871 942.399 56.5049C947.6 58.0018 952.592 60.2691 957.603 62.3568C962.181 64.2605 966.892 65.984 971.145 68.4767C981.186 74.3712 992.92 76.9288 1002.28 83.907C1005.85 86.5651 1009.95 88.0735 1013.6 90.4426C1018.77 93.7961 1024.39 96.7204 1029.68 100.04C1034.7 103.191 1039.53 106.645 1044.47 109.939C1047.01 111.639 1049.57 113.327 1052.17 114.935C1053.68 115.868 1055.34 116.58 1055.93 118.473C1056.16 119.177 1056.83 119.322 1057.4 119.575C1062.52 121.855 1066.26 126.096 1070.84 129.101C1079.43 134.734 1086.04 142.57 1093.8 149.109C1097.69 152.375 1100.83 156.582 1104.51 160.073C1109.33 164.648 1113.68 169.593 1117.97 174.6C1126.87 185.008 1136.05 195.183 1143.98 206.423C1152.18 218.05 1160.31 229.71 1167.85 241.776C1171.7 247.927 1174.48 254.625 1178.04 260.917C1185.13 273.439 1190.85 286.588 1196.35 299.868C1199.88 308.391 1203.2 316.99 1205.94 325.767C1208.25 333.163 1210.84 340.474 1212.69 348.045C1214.32 354.679 1216.41 361.24 1217.91 367.922C1219.31 374.178 1220.26 380.533 1221.26 386.049Z" fill="#DFD4BF"/>
<path d="M22.6158 513.245C21.336 510.629 23.2525 506.102 21.0113 502.076C19.5087 499.387 20.7884 495.974 18.8274 493.018C18.2289 492.117 18.5792 488.596 19.2859 486.475C21.2151 480.629 20.3173 474.72 20.4191 468.776C20.591 458.07 18.0953 447.431 19.6743 436.739C20.884 428.558 20.4128 420.102 22.5648 412.175C23.8 407.613 23.157 402.794 25.309 398.422C26.4105 396.182 25.43 393.45 25.9457 390.921C27.582 382.926 29.422 374.982 31.1857 367.023C33.3759 357.106 35.4196 347.105 38.2402 337.394C40.2267 330.541 41.9267 323.55 44.4162 316.799C49.5352 302.905 55.8003 289.521 61.8616 276.041C66.2038 266.369 71.9149 257.433 77.3969 248.392C84.2286 237.118 90.9457 225.767 98.6879 215.066C103.699 208.143 109.263 201.688 114.949 195.335C121.851 187.628 128.536 179.705 135.775 172.326C146.714 161.181 157.544 149.931 169.393 139.685C177.95 132.283 187.774 126.651 196.382 119.424C202.775 114.055 210.574 110.962 216.954 105.646C218.45 104.4 220.577 103.945 222.296 102.937C228.764 99.1571 235.036 95.0179 241.677 91.5753C245.675 89.4997 249.985 87.9411 254.06 85.9412C260.147 82.9551 266.113 79.6959 272.321 76.995C279.942 73.6766 287.71 70.6542 295.522 67.7935C305.321 64.2045 315.342 61.1986 325.064 57.4097C335.716 53.2552 347.011 51.6349 357.854 48.3132C364.336 46.328 371.104 45.4628 377.483 43.291C381.444 41.945 386.066 42.7116 389.421 39.5307C397.399 39.3677 405.001 36.8693 412.833 35.7385C425.242 33.9482 437.524 31.3014 449.901 29.2882C456.822 28.1632 463.953 28.1409 470.759 26.6077C477.909 24.9975 485.097 23.8846 492.324 23.5076C504.644 22.8646 516.913 21.56 529.195 20.5751C543.832 19.401 558.508 19.1221 573.127 17.9773C578.926 17.5227 584.742 17.5813 590.55 16.8867C598.841 15.8947 607.266 15.7222 615.624 16.1628C627.054 16.7657 638.484 16.4989 649.907 16.4385C654.32 16.4143 658.791 16.5053 663.253 16.1621C666.833 15.8871 671.072 16.5951 674.814 17.4877C679.372 18.5752 683.852 17.645 688.339 18.2053C697.532 19.3545 706.876 18.3944 716.008 19.494C724.357 20.4993 732.759 21.1742 741.088 22.4546C747.02 23.3657 753.053 23.6255 759.043 24.1501C767.048 24.8511 774.949 26.3798 782.918 27.2489C789.392 27.955 795.685 29.6906 802.361 29.618C806.241 29.576 810.349 31.595 814.469 32.3571C821.615 33.6782 828.608 35.9932 835.79 36.9094C842.107 37.7149 847.81 40.3399 853.937 41.6114C859.229 42.7091 864.609 43.6813 869.732 45.2883C874.94 46.9221 880.324 47.6365 885.526 49.2651C892.451 51.4343 899.707 52.5543 906.622 54.7477C912.581 56.638 918.677 57.9522 924.637 59.7884C925.396 60.0227 925.763 60.6696 926.292 61.1745C927.389 62.2225 928.444 63.4869 930.312 62.097C931.301 61.361 932.532 62.2346 933.629 62.6115C938.928 64.4325 943.473 67.9846 948.945 69.3706C957.797 71.6131 965.83 75.9088 973.93 79.8296C982.664 84.0566 991.984 86.9294 1000.27 92.2757C1008.64 97.6723 1017.83 101.776 1026.4 106.876C1030.38 109.244 1033.53 112.966 1037.44 115.491C1047.27 121.85 1056.06 129.598 1065.35 136.643C1069.04 139.437 1072.93 142.497 1076.45 145.797C1083.01 151.942 1089.05 158.597 1095.68 164.651C1098.9 167.593 1102.29 170.383 1105.25 173.567C1108.04 176.557 1110.22 180.092 1112.91 183.187C1125.17 197.34 1136.74 212.005 1146.9 227.765C1152.44 236.359 1158.35 244.72 1163.76 253.388C1167.14 258.796 1170.01 264.534 1172.92 270.216C1174.7 273.677 1177.4 276.562 1178.76 280.287C1181.24 287.059 1185.8 292.821 1187.23 300.237C1188.58 307.209 1191.64 313.811 1194.73 320.334C1196.18 323.398 1196.76 327.077 1197.74 330.48C1199.33 336.017 1201.53 341.364 1203.01 346.886C1203.91 350.279 1204.88 353.714 1205.6 357.178C1205.91 358.66 1206.18 360.079 1207.22 361.233C1207.73 361.796 1208.1 362.395 1208.05 363.216C1207.6 369.874 1210.38 375.967 1211.35 382.361C1212.04 386.824 1212.58 391.355 1213.71 395.682C1214.48 398.64 1213.16 402.058 1215.82 404.707C1216.48 405.363 1215.37 407.218 1215.46 408.749C1215.9 416.269 1216.84 423.731 1217.53 431.221C1218.05 436.762 1218.04 442.351 1218.28 447.918C1218.58 455.339 1219.16 462.761 1219.12 470.179C1219.09 475.992 1218.42 481.816 1217.75 487.603C1217.56 489.296 1217.42 490.97 1217.47 492.645C1217.6 497.133 1216.2 501.368 1215.53 505.723C1214.3 513.746 1213.27 521.808 1212.42 529.882C1211.87 535.171 1209.62 540.056 1209.08 545.306C1208.24 553.381 1204.33 560.637 1203 568.534C1202.31 572.603 1199.94 576.335 1200.69 580.7C1200.9 581.949 1199.37 582.623 1198.94 583.88C1194.92 595.645 1190.84 607.395 1186.54 619.057C1182.79 629.205 1177.79 638.776 1172.77 648.354C1170.5 652.688 1168.38 657.208 1166.14 661.555C1164.11 665.515 1161.87 669.527 1159.32 673.3C1154.99 679.694 1150.68 686.143 1147.02 692.92C1140.64 704.711 1131.52 714.445 1123.81 725.231C1120.93 729.263 1116.73 731.959 1113.74 735.932C1108.49 742.914 1101.64 748.537 1096.33 755.51C1094.62 757.76 1091.86 758.638 1089.89 760.56C1084.82 765.516 1079.09 769.695 1073.72 774.301C1070.62 776.962 1067.74 779.9 1064.88 782.825C1062.34 785.425 1058.91 786.686 1056.14 788.969C1049.63 794.332 1042.34 798.632 1035.66 803.797C1032.69 806.095 1028.71 807.713 1026.22 810.07C1023.02 813.1 1017.84 812.576 1015.7 816.95C1015.44 817.477 1013.02 817.226 1011.51 818.18C1003.96 822.933 995.908 826.788 987.956 830.819C980.239 834.731 972.598 838.807 964.752 842.442C958.825 845.188 952.471 847.032 946.75 850.228C936.644 855.876 925.446 858.348 914.574 861.821C907.668 864.025 901.11 867.236 894.067 869.115C889.698 870.281 885.447 871.905 881.064 873.003C872.688 875.1 864.254 876.966 855.846 878.93C846.14 881.198 836.461 883.597 826.718 885.698C819.882 887.172 813.136 888.972 806.198 890.129C796.431 891.758 786.671 893.585 776.942 895.513C771.967 896.499 766.757 896.248 761.673 896.752C751.673 897.742 741.699 899.01 731.691 899.898C723.165 900.655 714.716 902.071 706.152 902.539C699.228 902.917 692.346 904.021 685.427 904.538C679.889 904.952 674.324 904.936 668.769 905.225C656.94 905.839 645.074 905.788 633.255 906.527C628.586 906.819 623.865 906.273 619.138 907.576C617.318 908.078 614.557 906.576 612.171 906.883C605.832 907.695 599.512 907.808 593.177 906.902C585.112 905.749 576.972 906.394 568.867 905.918C558.769 905.327 548.658 905.105 538.58 903.944C531.576 903.137 524.502 902.778 517.435 902.414C509.158 901.99 500.932 900.567 492.674 899.698C483.467 898.73 474.229 898.098 465.048 896.936C459.445 896.226 454.027 894.381 448.36 893.732C439.663 892.737 430.972 891.624 422.332 890.22C418.289 889.563 414.195 888.445 410.222 888.066C403.849 887.458 397.813 885.483 391.924 883.701C385.614 881.792 379.234 879.938 372.899 878.046C363.209 875.15 353.232 873.194 343.605 870.103C337.658 868.191 331.61 866.521 325.72 864.228C319.29 861.723 312.668 859.508 306.123 857.191C296.311 853.721 286.691 849.787 277.191 845.485C268.641 841.612 260.478 836.871 251.679 833.614C245.637 831.377 240.817 827.142 235.017 824.575C228.465 821.673 222.83 817.227 216.839 813.387C213.484 811.235 209.995 809.254 206.436 807.462C202.87 805.667 199.502 803.591 196.815 800.68C194.147 797.787 190.264 796.99 187.335 794.518C181.617 789.695 175.212 785.828 169.711 780.57C165.051 776.119 159.881 771.759 153.686 769.166C153.189 768.957 152.807 768.708 152.489 768.228C146.835 759.715 138.755 753.464 131.535 746.475C128.536 743.579 126.607 740.065 123.767 737.154C118.865 732.124 115.07 726.139 109.919 721.226C107.653 719.064 106.22 715.726 104.304 712.984C101.101 708.406 97.8538 703.873 94.3647 699.512C89.9525 694.006 86.2087 688.02 82.7387 681.911C79.0013 675.331 75.4741 668.59 71.5712 662.138C67.3753 655.2 63.8289 647.929 59.7286 640.954C57.4683 637.115 56.577 632.555 54.4313 628.553C48.8157 618.061 45.2884 606.722 41.1308 595.624C38.3039 588.095 36.0945 580.36 34.0316 572.697C31.2684 562.446 27.9258 552.266 27.2445 541.399C26.8944 535.781 24.8569 530.111 24.0865 524.363C23.6535 521.137 23.2334 517.909 22.6158 513.245Z" fill="#181818"/>
<path d="M1139.09 691.103C1138.47 692.921 1137.25 694.348 1136.11 695.84C1131.74 701.603 1127.39 707.388 1123.01 713.15C1122.24 714.156 1121.44 715.135 1120.57 716.055C1109.88 727.433 1099.33 738.947 1088.42 750.107C1081.8 756.891 1074.88 763.468 1067.58 769.524C1057.3 778.068 1046.59 786.096 1035.26 793.301C1029.12 797.2 1023.15 801.423 1016.85 805.027C1009.56 809.193 1002.38 813.614 994.511 816.747C991.659 817.883 989.297 820.188 986.553 821.685C975.977 827.467 965.14 832.677 954.075 837.52C943.76 842.036 933.44 846.536 922.794 850.123C910.608 854.229 898.332 858.106 886.108 862.086C873.246 866.271 860.162 869.617 847.218 873.422C834.618 877.124 821.808 880.222 808.641 881.97C799.715 883.156 790.718 884.619 781.849 886.43C773.126 888.211 764.302 889.035 755.484 889.667C747.257 890.256 739.121 891.455 730.964 892.446C719.294 893.864 707.553 894.178 695.883 895.41C682.569 896.815 669.256 898.244 655.91 899.181C648.789 899.681 641.603 899.768 634.435 899.315C629.688 899.015 625.033 900.617 619.358 899.971C621.479 901.656 623.337 900.643 625.461 901.866C595.668 903.964 566.743 902.601 537.854 899.404C541.583 898.115 545.379 898.887 549.309 898.849C548.954 897.573 548.018 897.644 547.297 897.658C544.225 897.716 541.171 897.568 538.109 897.322C537.541 897.276 535.139 895.852 536.067 898.818C536.227 899.33 533.88 899.642 532.649 899.537C528.123 899.15 523.605 898.649 519.082 898.222C510.761 897.435 502.435 896.703 494.119 895.88C490.755 895.547 487.406 895.052 484.062 894.548C483.849 894.515 481.065 894.987 483.483 893.242C483.956 892.901 482.549 892.448 481.911 892.4C467.764 891.321 453.884 888.457 439.96 885.966C429.354 884.068 418.862 881.526 408.318 879.28C401.938 877.92 395.442 877.122 388.814 874.937C391.103 877.43 404.558 880.604 412.878 881.842C421.123 883.069 429.179 885.515 437.388 887.045C445.63 888.58 453.959 889.645 462.217 891.198C456.993 891.744 451.889 890.806 446.781 890.044C436.885 888.566 426.993 887.067 417.117 885.466C414.449 885.033 411.875 884.023 409.207 883.584C396.726 881.533 384.666 877.773 372.52 874.424C362.891 871.768 353.366 868.712 343.863 865.581C334.476 862.489 325.196 859.044 315.694 856.252C309.68 854.486 303.889 851.82 298.208 849.116C294.76 847.475 291.069 846.675 287.608 845.097C278.944 841.149 269.907 838.158 261.549 833.343C256.811 830.613 251.368 828.837 246.345 826.376C237.71 822.145 229.154 817.771 221.194 812.36C216.534 809.193 211.929 805.835 207.259 802.795C200.458 798.367 193.606 793.998 187.073 789.19C180.391 784.273 173.777 779.247 167.951 773.264C166.242 771.508 163.977 770.339 162.149 768.627C155.062 761.995 147.647 755.697 140.797 748.833C133.24 741.259 125.915 733.417 118.966 725.284C113.386 718.754 108.49 711.638 103.329 704.754C96.6112 695.793 90.576 686.391 84.4033 677.085C79.5772 669.81 75.5163 662.033 71.5758 654.219C69.5364 650.174 67.0069 646.349 65.2636 642.188C62.7869 636.274 59.2361 630.876 57.4431 624.593C56.7453 622.148 54.9294 619.789 53.6809 617.341C49.9257 609.978 47.9201 601.992 44.9047 594.377C42.2243 587.61 40.6446 580.5 38.7619 573.526C37.1975 567.73 35.8815 561.776 34.9678 555.758C34.5514 553.015 33.3557 550.165 32.5407 547.352C30.3352 539.737 29.4025 531.903 28.3653 524.078C27.5714 518.086 26.4756 512.133 25.6887 506.14C24.4879 496.993 23.4882 487.822 24.1644 478.569C24.2344 477.614 23.8244 476.389 25.4824 475.606C25.9612 480.446 26.4253 485.139 26.9505 490.446C28.895 488.392 28.2495 486.643 28.0425 485.002C27.8853 483.75 27.4465 482.526 27.3618 481.275C27.316 480.593 26.8137 479.316 28.1711 479.323C29.149 479.328 29.4108 480.319 29.4649 481.219C29.8418 487.491 29.9558 493.793 30.6651 500.029C31.466 507.069 31.8716 514.184 33.7925 521.078C34.5515 523.801 34.8271 526.679 35.1582 529.468C36.394 539.859 39.7119 549.76 41.9498 559.91C43.3614 566.312 45.1122 572.657 47.0523 578.923C49.6118 587.189 52.6577 595.306 55.2128 603.574C57.7385 611.749 61.5339 619.381 64.8058 627.235C67.1463 632.854 69.7759 638.353 72.0438 644C73.1338 646.714 75.4597 648.449 76.7324 651.04C79.9802 657.649 83.0356 664.455 87.1601 670.506C92.7255 678.671 97.2428 687.471 103.314 695.354C108.668 702.307 113.949 709.321 119.683 715.952C122.719 719.464 125.292 723.269 128.115 726.839C129.659 728.792 132.321 730.545 134.242 732.664C138.906 737.806 143.427 743.089 148.299 748.026C151.687 751.46 155.546 754.431 159.223 757.576C163.122 760.911 167.051 764.211 170.975 767.518C171.539 767.993 172.126 768.445 172.733 768.862C173.822 769.61 175.154 770.378 176.026 768.907C176.855 767.508 175.082 767.337 174.396 766.726C169.54 762.399 164.608 758.157 159.778 753.803C157.194 751.472 154.406 749.404 151.834 747.042C144.691 740.484 138.398 733.197 132.258 725.736C128.547 721.226 124.544 716.955 120.863 712.419C116.523 707.072 112.488 701.478 108.263 696.047C105.228 692.145 102.311 688.189 99.6928 684.023C93.543 674.235 87.1264 664.594 81.9946 654.208C79.8254 649.817 78.4266 644.982 75.8365 640.879C71.2829 633.669 68.5209 625.658 64.7574 618.107C62.147 612.868 60.2586 607.304 58.8394 601.567C58.2078 599.012 56.6084 596.661 55.498 594.219C53.4918 589.802 52.6985 585.142 51.3443 580.605C49.0197 572.818 46.2558 565.095 44.7685 557.141C43.2544 549.041 40.4135 541.286 39.2713 533.117C38.4824 527.476 38.3474 521.664 37.0829 516.215C35.7885 510.638 35.1206 505.052 34.3419 499.445C32.8814 488.922 31.3871 478.416 32.0945 467.717C32.4243 462.714 32.1632 457.669 32.1193 452.643C32.0995 450.405 32.2498 448.218 33.3258 445.993C34.009 446.949 34.0746 447.936 34.0211 448.954C33.6104 456.675 34.8137 464.35 34.1885 472.136C33.7053 478.152 35.2251 484.287 35.3874 490.43C35.5555 496.776 36.2622 503.15 37.7521 509.348C40.0977 519.099 40.7115 529.127 43.0246 538.921C44.9659 547.143 47.6495 555.166 49.3081 563.402C50.2638 568.152 51.4805 572.863 52.9245 577.38C54.5073 582.328 56.2538 587.334 58.3523 592.111C60.5744 597.171 61.5275 602.55 63.244 607.722C63.4701 608.401 63.5159 609.127 63.9661 609.749C66.9668 613.89 67.8664 619.077 70.3877 623.347C74.1372 629.697 76.1638 636.822 80.2628 643.024C83.4145 647.794 85.3195 653.371 88.0318 658.455C90.5646 663.202 93.3412 667.85 96.233 672.366C103.649 683.947 112.101 694.788 120.627 705.592C125.144 711.315 129.281 717.475 134.109 722.871C141.393 731.016 148.368 739.443 156.099 747.252C163.179 754.406 171.411 759.975 178.808 766.622C182.073 769.557 185.629 772.514 189.642 774.667C191.979 775.92 193.96 777.668 195.888 779.514C200.441 783.877 206.299 786.417 211.236 790.285C217.898 795.506 225.451 799.408 232.435 804.16C233.271 804.729 234.426 805.066 234.617 806.322C233.139 807.831 231.671 806.946 230.279 806.225C225.859 803.936 221.609 801.29 217.67 798.316C214.527 795.942 211.09 794.122 207.8 792.074C200.979 787.831 194.868 782.602 188.063 778.36C186.632 777.468 185.294 776.43 183.82 775.588C182.165 774.643 180.566 773.594 179.695 771.818C179.57 771.723 179.476 771.573 179.457 771.404C179.479 771.418 179.289 771.546 179.292 771.544C179.64 771.622 179.765 771.925 179.95 772.193C182.278 775.329 185.611 777.362 188.67 779.498C195.336 784.153 201.861 789.012 208.669 793.491C216.357 798.55 224.341 803.112 232.015 808.164C242.038 814.763 252.902 819.687 263.652 824.888C275.383 830.562 287.585 835.101 299.589 840.1C311.075 844.882 322.678 849.398 334.651 852.994C342.621 855.388 350.475 858.328 358.378 861.01C364.559 863.107 370.998 864.527 377.339 866.182C385.51 868.314 393.733 870.266 401.927 872.256C417.415 876.019 433.088 879.026 448.96 880.862C455.256 881.591 461.503 882.789 467.722 884.007C472.895 885.02 478.181 885.478 483.263 886.861C492.195 889.29 501.431 889.091 510.501 890.302C522.979 891.968 535.585 892.132 548.113 893.103C560.892 894.092 573.693 893.979 586.459 894.933C591.288 895.293 596.114 894.102 601.011 894.239C605.531 894.365 610.093 894.473 613.497 894.117C599.73 893.826 584.838 894.877 569.956 893.649C567.421 893.439 564.866 893.524 562.323 893.59C555.421 893.77 548.591 892.758 541.722 892.437C533.079 892.032 524.42 891.768 515.816 890.919C506.361 889.987 496.751 889.759 487.496 887.864C475.407 885.39 463.228 883.482 451.125 881.138C445.733 880.093 440.249 879.498 434.866 878.435C423.485 876.186 411.979 874.781 400.716 871.641C385.761 867.472 370.505 864.336 355.657 859.746C340.1 854.938 324.642 849.791 309.522 843.723C304.718 841.794 299.934 839.781 295.281 837.463C291.117 835.389 286.435 834.643 282.188 832.667C272.312 828.07 262.059 824.337 252.4 819.201C247.361 816.521 242.232 813.999 237.369 811.008C235.731 810 233.761 808.866 234.553 806.267C240.912 807.787 246.22 811.608 252.063 814.255C258.39 817.121 264.882 819.646 271.093 822.741C278.164 826.267 285.533 829.084 292.694 832.383C298.832 835.21 305.327 837.134 311.472 839.992C322.389 845.069 334.1 847.974 345.526 851.607C358.567 855.754 371.777 859.38 384.969 863.033C394.593 865.698 404.225 868.464 414.013 870.359C419.53 871.427 424.956 872.945 430.583 873.726C437.227 874.647 443.895 875.925 450.507 877.271C458.062 878.81 465.777 879.307 473.317 880.773C479.32 881.942 485.397 882.483 491.41 883.538C498.452 884.774 505.718 884.664 512.837 885.541C520.759 886.518 528.731 886.607 536.665 887.322C542.731 887.869 548.876 887.725 554.9 888.528C562.957 889.602 571.055 889.186 579.091 889.3C585.13 889.386 591.186 889.828 597.224 889.919C604.848 890.033 612.491 889.246 620.182 890.414C623.28 890.885 626.952 890.089 630.371 889.924C644.394 889.247 658.413 888.48 672.433 887.819C673.191 887.783 674.146 887.507 674.891 888.235C674.617 889.52 673.522 889.809 672.516 889.879C663.583 890.496 654.652 891.116 645.712 891.597C639.081 891.954 632.439 892.134 625.801 892.333C624.174 892.381 622.541 892.179 620.909 892.115C620.363 892.094 619.836 892.221 619.601 892.793C619.315 893.491 620.023 893.647 620.324 894.024C621.458 895.44 622.592 896.322 624.646 895.394C626.686 894.472 629.055 895.078 631.179 895.159C646.196 895.735 661.049 893.782 675.967 892.75C680.29 892.452 684.715 892.733 688.917 891.882C693.183 891.018 697.315 892.021 701.479 891.653C708.477 891.036 715.455 890.163 722.446 889.481C731.308 888.617 740.101 887.192 748.996 886.643C756.814 886.161 764.76 886.003 772.356 884.359C778.596 883.01 784.969 882.314 791.151 880.561C796.003 879.185 801.077 878.53 806.031 877.522C811.946 876.32 817.988 875.591 823.705 873.401C826.844 872.198 830.276 871.863 833.549 871.006C845.569 867.86 857.603 864.697 869.764 862.193C878.436 860.407 886.783 857.734 895.161 855.012C900.23 853.366 905.482 852.277 910.627 850.839C911.919 850.476 913.065 849.573 914.364 849.197C923.501 846.549 932.389 843.223 941.086 839.39C946.014 837.218 950.98 835.115 955.8 832.726C958.557 831.361 961.486 830.5 964.243 829.195C974.073 824.55 983.579 819.281 993.308 814.459C998.713 811.782 1003.59 808.313 1008.86 805.449C1015.3 801.951 1020.95 797.021 1027.33 793.402C1034.44 789.377 1040.98 784.591 1047.45 779.74C1056.16 773.222 1064.23 765.875 1072.96 759.399C1078.63 755.188 1083.73 750.35 1089.22 745.957C1093.42 742.598 1096.42 737.951 1100.67 734.557C1104.72 731.324 1106.73 726.101 1111.54 723.454C1112.6 722.87 1112.99 720.81 1114.18 719.688C1120.96 713.229 1126.47 705.709 1132.01 698.203C1133.57 696.087 1135.34 694.132 1137 692.089C1137.56 691.395 1138.15 690.83 1139.14 691.157L1139.09 691.103Z" fill="#DFD4BF"/>
<path d="M131.533 206.782C131.647 203.949 133.857 202.26 135.468 200.493C143.28 191.939 150.939 183.188 159.7 175.592C164.577 171.362 168.264 166.016 173.402 162.072C182.125 155.384 190.287 147.863 199.455 141.885C213.794 132.54 227.368 122.042 242.298 113.584C254.402 106.726 266.779 100.355 279.481 94.7782C288.249 90.93 297.067 87.0806 306.095 83.7774C310.724 82.0825 314.996 79.367 319.663 77.8173C329.08 74.6924 338.681 72.1475 348.155 69.1818C361.086 65.1305 374.113 61.4485 387.331 58.4083C400.721 55.3299 414.199 52.8685 427.799 50.9202C437.012 49.599 446.149 47.7736 455.343 46.343C459.939 45.628 464.657 45.6203 469.203 44.708C476.143 43.3149 483.185 42.8864 490.182 42.2879C498.822 41.5468 507.341 39.6163 515.968 39.2712C530.281 38.6988 544.581 37.7222 558.894 37.2096C571.672 36.7518 584.452 35.248 597.225 35.8713C606.905 36.3437 616.537 35.46 626.226 35.8999C633.87 36.2476 641.633 35.7229 649.347 35.7344C651.164 35.737 652.866 36.4405 654.581 36.615C658.774 37.0415 663.025 36.8887 667.251 37.0313C678.412 37.4076 689.638 36.8474 700.717 38.3366C706.948 39.1738 713.231 38.4219 719.404 39.6685C721.419 40.0754 723.449 39.7067 725.475 40.9407C726.705 41.6888 728.805 40.6994 730.574 40.672C737.094 40.5695 743.367 42.3102 749.803 42.5814C758.967 42.9685 768.03 44.4406 777.032 45.9451C785.105 47.2942 793.235 48.3613 801.309 49.6774C806.758 50.5655 812.237 51.6123 817.714 52.4317C825.831 53.6459 833.764 56.071 841.793 57.9003C850.405 59.8626 859.02 61.8121 867.665 63.6216C878.052 65.7959 888.419 67.9664 898.583 71.132C904.394 72.9422 910.409 74.1869 916.144 76.2542C924.464 79.255 932.676 82.5607 940.913 85.7919C945.979 87.7797 950.864 90.3022 955.839 92.3422C964.036 95.7046 972.182 99.1281 980.112 103.06C988.442 107.19 996.92 111.057 1004.62 116.356C1009.44 119.672 1014.36 122.836 1019.54 125.569C1029.53 130.844 1038.21 137.984 1047.16 144.738C1052.52 148.782 1058.04 152.647 1063.14 157.003C1065.76 159.242 1069.34 160.612 1070.64 164.311C1070.99 165.288 1072.38 165.185 1073.25 165.733C1079.57 169.718 1083.97 175.678 1088.73 181.136C1097.93 191.682 1107.48 201.896 1116.88 212.264C1119.63 215.302 1121.84 218.832 1124.3 222.129C1124.75 222.722 1125.21 223.304 1125.72 223.842C1126.47 224.643 1127.38 224.268 1128.03 223.811C1128.97 223.145 1128.07 222.598 1127.69 222.015C1122.96 214.84 1117.42 208.367 1111.66 201.987C1104.09 193.607 1095.91 185.778 1089 176.792C1087.29 174.564 1084.11 173.445 1084.03 169.986C1095.43 176.496 1142.81 234.146 1142.17 240.942C1140.93 240.272 1140.4 239.126 1139.76 238.092C1137.01 233.637 1133.49 229.764 1130.38 225.582C1129.78 224.783 1129.02 223.714 1127.78 224.676C1126.33 225.798 1127.46 226.751 1128.16 227.6C1135.39 236.442 1141.34 246.111 1146.9 256.063C1151.89 264.974 1157.49 273.545 1162.31 282.541C1165.31 288.146 1167.21 294.329 1169.88 300.128C1172.61 306.082 1174.56 312.343 1176.67 318.486C1178.79 324.687 1181.25 330.757 1183.35 336.951C1186.17 345.247 1189.42 353.55 1190.84 362.121C1192.32 371.078 1195.54 379.547 1196.91 388.467C1198.71 400.217 1200.81 411.936 1202.13 423.741C1202.85 430.087 1203.45 436.507 1202.89 443.019C1202.58 446.501 1204.09 450.128 1203.45 453.823C1202.72 458.037 1204.02 462.222 1203.61 466.562C1203.27 470.065 1203.46 473.822 1203.36 477.46C1203.23 482.03 1203.01 486.603 1202.63 491.159C1202.08 497.841 1200.67 504.408 1199.74 511.036C1199.44 513.188 1198.34 514.947 1198.02 517.041C1196.87 524.538 1195.82 532.052 1194.62 539.534C1193.68 545.403 1192.99 551.429 1190.36 556.952C1189.86 558.001 1190.35 559.488 1189.97 560.635C1188.5 565.081 1186.52 569.386 1185.39 573.91C1184.44 577.74 1183.09 581.485 1181.86 585.156C1178.64 594.832 1176.04 604.753 1171.38 613.97C1169.32 618.067 1167.67 622.46 1165.86 626.732C1165.67 627.184 1165.71 627.821 1164.97 628C1164.03 626.088 1164.41 624.458 1165.29 622.465C1167.89 616.584 1169.86 610.419 1172.5 604.56C1175.3 598.384 1176.24 591.571 1179.16 585.533C1181.54 580.608 1182.81 575.359 1184.32 570.239C1185.68 565.616 1185.8 560.521 1187.36 555.926C1190.23 547.48 1190.83 538.617 1192.91 530.062C1195.24 520.466 1196.58 510.739 1197.5 500.988C1198.23 493.254 1199.41 485.529 1199.34 477.711C1199.32 474.88 1200.16 472.022 1199.98 469.216C1199.65 464.127 1200.36 459.057 1199.99 454.001C1199.68 449.867 1200.38 445.703 1199.97 441.68C1199.45 436.692 1199.55 431.674 1198.81 426.689C1198.02 421.327 1198.34 415.72 1197.4 410.472C1196.51 405.465 1195.79 400.369 1194.65 395.378C1193.54 390.575 1192.45 385.744 1191.81 380.865C1191.04 374.961 1189.21 369.37 1187.62 363.69C1185.96 357.768 1185.21 351.617 1183.26 345.765C1181.54 340.624 1179.88 335.459 1177.99 330.379C1174.96 322.213 1171.68 314.123 1168.58 306.005C1165.54 298.063 1161.61 290.602 1158.19 282.895C1154.06 273.611 1148.74 264.882 1143.94 255.913C1139.28 247.194 1133.74 239.164 1127.43 231.574C1124.52 228.071 1122.53 223.791 1119.57 220.346C1116.68 216.993 1113.23 214.07 1110.73 210.403C1104.34 201.042 1096.49 192.917 1088.61 184.924C1080.87 177.068 1073.42 168.864 1064.97 161.698C1060.37 157.789 1056.14 153.406 1051.37 149.717C1045.65 145.294 1039.55 141.367 1033.59 137.259C1029.9 134.713 1026.36 131.82 1022.38 129.831C1018.34 127.811 1014.67 125.32 1010.9 122.912C1005.3 119.33 999.372 116.333 993.472 113.289C988.605 110.778 983.539 108.603 978.872 105.768C974.639 103.198 970.281 100.945 965.826 98.8378C957.626 94.9622 949.382 91.1771 940.883 88.0012C936.539 86.3783 932.474 84.1333 927.99 82.795C919.027 80.1202 910.187 77.0603 901.176 74.4925C890.039 71.3186 878.674 69.05 867.588 65.7596C859.414 63.3338 851.059 61.7975 842.73 60.3127C835.582 59.0387 828.548 57.2241 821.357 56.0768C814.743 55.0218 808.064 54.2737 801.498 53.0276C791.694 51.1672 781.747 50.4376 771.966 48.7134C764.99 47.4833 757.934 46.9727 750.978 45.5847C740.311 43.4569 729.32 43.8885 718.6 42.3446C710.014 41.1081 701.422 41.4933 692.856 40.7267C685.942 40.1085 678.946 40.437 672.02 39.9092C663.603 39.2681 655.157 39.829 646.779 39.1604C640.482 38.6581 634.161 38.6435 627.862 38.1055C624.639 37.8304 621.166 38.3856 617.808 38.3633C612.563 38.3289 607.315 38.9058 602.107 38.7772C596.349 38.6358 590.576 39.787 584.937 39.0968C577.671 38.2067 570.611 39.4024 563.485 39.8837C556.169 40.3778 548.854 40.7796 541.532 41.1482C532.064 41.6244 522.654 43.0984 513.186 43.5307C501.853 44.0477 490.571 45.3084 479.397 46.8173C465.797 48.6535 452.172 50.4847 438.598 52.5648C429.658 53.9343 420.751 55.5101 411.831 56.9961C406.89 57.82 401.981 58.8935 397.066 59.8721C387.566 61.7624 378.29 64.4251 368.905 66.7095C354.668 70.177 340.451 73.7093 326.552 78.3642C317.645 81.349 308.865 84.7604 300.142 88.2533C291.871 91.5629 283.397 94.4038 275.489 98.5487C268.339 102.294 261.38 106.397 254.211 110.098C242.706 116.043 231.557 122.54 220.842 129.84C216.799 132.596 213.195 135.89 209.101 138.525C203.938 141.85 198.539 144.883 193.954 148.973C190.064 152.443 185.633 155.168 181.781 158.736C178.451 161.822 174.631 164.465 171.186 167.535C166.08 172.086 161.336 176.998 156.44 181.752C151.398 186.647 146.119 191.306 141.548 196.678C139.167 199.478 136.645 202.157 134.188 204.895C133.436 205.736 132.876 206.857 131.476 206.731L131.533 206.782Z" fill="#DFD4BF"/>
<path d="M134.037 185.172C135.413 185.502 136.234 184.657 136.979 183.73C143.257 175.968 150.502 169.111 157.786 162.373C166.146 154.639 174.518 146.873 183.496 139.82C192.053 133.097 200.495 126.196 209.67 120.34C221.608 112.721 233.998 105.889 246.789 99.7677C255.945 95.3891 264.872 90.5554 273.964 86.0463C279.732 83.1831 285.494 80.2409 291.473 77.8654C304.792 72.5719 318.476 68.308 332.136 63.9588C344.845 59.9119 357.737 56.5916 370.581 53.0738C382.473 49.8172 394.557 47.378 406.604 44.7554C429.13 39.8529 451.901 36.5338 474.671 33.1606C488.343 31.1353 502.095 29.7664 515.879 28.7057C523.233 28.1403 530.555 27.119 537.913 26.6549C551.07 25.8253 564.241 25.235 577.409 24.5952C585.445 24.2049 593.482 23.7751 601.524 23.5994C617.048 23.26 632.581 22.7176 648.098 22.9984C656.136 23.1442 664.217 23.4135 672.273 24.0699C678.693 24.5933 685.243 24.019 691.628 24.9619C697.905 25.8889 704.245 25.2777 710.457 26.2576C714.291 26.8618 718.322 27.3527 721.971 27.2776C726.217 27.191 730.115 28.5299 734.254 28.5363C738.115 28.5427 741.981 29.4423 745.833 30.0185C751.671 30.8914 757.653 30.3222 763.429 31.7147C771.44 33.6458 779.695 33.805 787.792 35.2515C800.136 37.4577 812.375 40.1331 824.674 42.5283C833.04 44.1576 841.305 46.1804 849.594 48.1057C857.612 49.9681 865.523 52.2882 873.511 54.288C881.329 56.2459 889.201 57.9898 897.019 59.9463C904.287 61.766 911.604 63.4189 918.624 66.1363C920.875 67.0073 923.259 67.5408 925.599 68.1673C926.254 68.3424 927.179 68.6417 927.358 67.5695C927.499 66.7246 926.671 66.6889 926.08 66.4973C921.766 65.1029 917.294 64.0549 913.188 62.1977C908.453 60.0552 903.294 59.5923 898.538 57.7192C926.384 63.4322 952.027 75.2206 977.725 86.8403C972.634 84.7768 967.526 82.7508 962.454 80.6414C952.663 76.5698 942.913 72.3975 933.084 68.4201C931.861 67.926 929.331 67.0035 929.088 68.1107C928.702 69.8641 931.212 70.3276 932.609 70.893C939.354 73.6225 946.25 75.9808 952.964 78.7785C961.397 82.2917 969.606 86.3551 978.098 89.7105C985.334 92.5699 992.344 95.8247 999.084 99.6646C1004.65 102.837 1009.88 106.694 1015.66 109.388C1022.76 112.699 1028.89 117.427 1035.3 121.709C1041.8 126.054 1048 130.912 1053.96 136.483C1052.02 137.317 1050.93 136.099 1049.94 135.449C1044.74 132.039 1039.61 128.508 1034.52 124.925C1030.71 122.246 1026.25 120.692 1022.57 117.805C1018.14 114.323 1012.94 112.232 1007.95 109.743C1005.89 108.716 1003.9 107.573 1002.01 106.174C997.816 103.07 993.072 100.833 988.565 98.239C984.949 96.1589 980.664 95.7164 977.426 92.7246C973.968 89.5303 969.026 88.8713 964.753 87.4006C958.682 85.3109 952.991 82.5012 947.137 80.0086C938.058 76.1426 929.151 71.8379 919.933 68.3443C914.076 66.1242 907.853 64.6973 901.677 63.5258C893.986 62.0659 886.467 59.9419 878.832 58.2884C872.589 56.9367 866.412 55.1896 860.297 53.4705C853.015 51.4242 845.476 50.7034 838.226 48.3929C835.194 47.4264 831.535 46.6095 827.936 46.7286C825.033 46.8241 822.331 45.1044 819.373 44.6122C811.197 43.2541 803.124 41.2606 794.936 40.0057C787.672 38.8921 780.306 38.4585 772.99 37.6773C763.855 36.7019 754.867 34.4563 745.677 34.1367C741.64 33.996 737.739 33.0708 733.861 32.4221C731.859 32.0872 730.002 32.3578 728.1 32.1425C718.263 31.0302 708.397 30.363 698.498 30.1586C697.457 30.137 696.422 29.8078 695.384 29.6251C693.157 29.2341 691.132 28.6369 688.654 29.5066C685.869 30.4833 683.028 28.2765 680.035 28.132C673.455 27.8143 666.849 26.8217 660.316 27.5755C658.186 27.8213 655.966 27.9493 653.812 28.2969C652.316 28.5382 651.869 26.532 649.777 26.9185C646.555 27.5131 643.11 29.3984 639.719 27.2413C626.604 29.6614 613.364 27.8627 600.197 28.4351C591.504 28.8126 582.807 28.2893 574.112 28.9597C565.511 29.6231 556.868 30.3184 548.26 30.1586C538.29 29.9733 528.454 31.6224 518.454 31.3683C510.337 31.1614 502.178 33.0435 494.023 33.8578C487.752 34.4843 481.582 35.9474 475.185 35.673C472.407 35.5539 469.581 36.5612 466.775 37.0553C458.278 38.5502 449.694 39.7319 441.287 41.5045C432.53 43.3509 423.707 44.9566 414.9 46.0537C408.485 46.8521 402.3 49.3657 395.685 48.7851C394.261 48.6603 393.567 50.4774 391.966 50.8276C384.043 52.56 376.123 54.3593 368.315 56.54C362.219 58.2425 356.336 60.6944 350.274 62.5281C344.114 64.3911 337.984 66.3139 331.609 67.5319C327.268 68.3615 322.853 69.5929 318.832 71.8678C316.28 73.3118 313.404 74.3521 310.545 75.05C300.628 77.4694 291.708 82.335 282.311 86.0259C272.244 89.9785 262.942 95.3083 253.398 100.247C245.815 104.17 238.36 108.292 231.082 112.726C228.937 114.035 226.473 113.544 224.416 114.995C214.675 121.861 204.615 128.235 195.026 135.355C186.698 141.541 178.727 148.178 170.902 154.882C163.771 160.99 156.85 167.527 150.54 174.617C145.848 179.89 140.761 184.814 135.801 189.845C133.955 191.72 132.789 194.077 131.096 196.097C126.792 201.234 122.309 206.215 118.037 211.355C112.74 217.733 108.455 224.945 103.572 231.678C101.349 234.735 99.172 237.887 96.2687 240.37C94.2694 242.081 93.3908 244.473 92.1302 246.624C88.2463 253.225 83.3693 259.195 79.9566 266.091C75.1941 275.708 70.3743 285.296 65.5864 294.9C62.3965 301.298 59.7607 307.988 57.6787 314.755C55.1956 322.817 53.0307 331.042 50.1465 338.926C48.0391 344.674 46.6765 350.599 44.6455 356.342C41.4556 365.359 39.7303 374.777 37.782 384.132C35.579 394.736 35.3689 405.644 33.1341 416.154C32.0772 421.132 31.4341 426.15 31.5678 430.95C31.6761 434.963 29.0784 437.956 29.4158 441.903C29.6005 444.088 29.6132 446.463 29.575 448.746C29.4922 453.839 29.1929 458.93 28.8746 464.016C28.7154 466.631 28.8555 469.213 29.1802 471.798C29.3521 473.159 29.7086 474.521 29.1165 475.871C28.8045 476.576 29.0083 477.846 27.7541 477.572C27.041 477.414 26.9009 476.509 26.8818 475.712C26.6271 464.3 26.8626 452.895 27.4484 441.497C28.0341 430.164 29.8105 418.973 31.7652 407.822C33.2168 399.521 34.3565 391.16 35.9037 382.897C37.2025 375.934 38.9789 368.991 40.5261 362.058C42.1879 354.575 44.8938 347.436 46.6638 340.002C48.1664 333.725 50.1083 327.498 52.3813 321.38C54.457 315.783 55.915 309.915 58.4108 304.481C62.8358 294.825 66.6114 284.871 71.8514 275.583C76.4483 267.447 80.5168 259.007 85.3111 250.998C90.1309 242.956 95.3327 235.173 101.7 228.135C104.807 224.695 107.283 220.521 110.18 216.782C115.923 209.358 121.768 202.012 127.626 194.673C129.198 192.696 131.058 190.939 132.586 188.928C133.401 187.86 134.954 186.913 134.095 185.118L134.037 185.172Z" fill="#DFD4BF"/>
<path d="M679.159 888.81C681.793 887.243 684.706 887.519 687.403 887.375C693.48 887.051 699.535 886.618 705.564 885.844C716.073 884.496 726.525 882.633 737.143 882.301C744.65 882.067 752.06 880.943 759.466 879.881C770.431 878.309 781.407 876.742 792.238 874.387C797.089 873.33 801.911 872.16 806.786 871.193C813.378 869.887 819.857 867.717 826.499 867.039C834.205 866.252 840.983 862.49 848.467 861.323C856.742 860.033 864.707 857.523 872.814 855.576C882.116 853.343 891.215 850.462 900.278 847.357C906.725 845.148 913.244 843.03 919.78 841.022C924.179 839.672 928.493 837.991 932.662 835.967C935.128 834.772 937.698 833.732 940.313 832.92C943.446 831.947 946.261 829.914 949.36 829.341C954.705 828.353 958.552 824.485 963.695 822.978C968.189 821.66 972.535 819.178 976.841 816.988C981.977 814.376 987.334 812.131 992.227 809.129C996.94 806.237 1001.67 803.374 1006.48 800.651C1014.95 795.851 1022.62 789.854 1030.87 784.747C1037.97 780.352 1044.81 775.586 1051.35 770.488C1056.56 766.425 1061.4 761.748 1066.76 757.914C1077.27 750.403 1085.46 740.398 1095.31 732.181C1098.37 729.624 1102.24 727.668 1104.39 724.137C1110.06 714.829 1118.99 708.247 1124.95 699.165C1127.34 695.516 1130.62 692.352 1133.02 688.828C1136.49 683.754 1139.94 678.604 1143.49 673.582C1148.96 665.826 1153.01 657.34 1157.57 649.104C1160.2 644.358 1163.37 639.913 1166.01 635.171C1167.83 631.896 1169.22 628.374 1170.68 624.907C1174.8 615.069 1178.92 605.227 1182.9 595.33C1183.95 592.723 1184.16 589.759 1185.33 587.223C1189.07 579.095 1190.4 570.243 1193.21 561.835C1195.53 554.908 1197.27 547.767 1198.87 540.631C1199.94 535.887 1200.04 530.929 1201.07 526.174C1201.96 522.036 1201.76 517.684 1203.65 513.709C1204.17 512.606 1203.62 511.02 1203.67 509.659C1203.9 503.545 1205.37 497.579 1206.14 491.533C1207.08 484.12 1206.46 476.771 1206.93 469.412C1207.18 465.459 1207.54 461.491 1207.44 457.541C1207.3 452.329 1206.99 447.095 1206.3 441.93C1205.8 438.143 1205.5 434.169 1205.98 430.633C1206.98 423.227 1204.09 416.676 1203.1 409.735C1202.01 402.036 1200.86 394.342 1199.91 386.625C1199.54 383.623 1198.11 380.854 1198.17 377.73C1200.01 377.601 1200.6 378.763 1200.64 380.271C1200.85 387.906 1204 395.015 1204.62 402.557C1205.18 409.469 1207.22 416.116 1207.46 423.165C1207.61 427.495 1208.08 432.065 1208.29 436.445C1208.68 444.566 1211.05 452.489 1210.09 460.755C1209.02 469.958 1208.47 479.23 1207.96 488.487C1207.5 496.874 1206.26 505.178 1205.54 513.538C1204.71 523.255 1202.73 532.907 1199.89 542.214C1197.85 548.885 1196.58 555.705 1194.64 562.366C1192.36 570.172 1189.84 577.905 1187.58 585.716C1185.12 594.218 1181.83 602.438 1178.55 610.617C1176.5 615.743 1174.15 620.857 1172.14 625.99C1170.36 630.54 1168.09 634.884 1166.09 639.274C1163.91 644.077 1161.5 648.937 1158.55 653.453C1156.33 656.863 1154.85 660.752 1152.82 664.301C1148.22 672.353 1143.09 680.117 1137.16 687.214C1130.02 695.774 1123.62 704.94 1116.13 713.205C1112.48 717.238 1108.46 720.939 1104.79 724.957C1102.01 727.996 1099.34 731.14 1096.21 733.798C1089.73 739.28 1084.9 746.443 1078.08 751.536C1070.15 757.454 1062.69 763.969 1054.44 769.477C1050.67 771.993 1047.6 775.575 1043.77 777.977C1036.24 782.707 1029.75 788.844 1021.86 793.172C1017.08 795.793 1012.43 798.996 1007.77 801.908C997.236 808.484 986.87 815.545 975.244 820.168C969.208 822.57 964.065 826.605 957.877 828.722C945.164 833.074 933.465 839.901 920.391 843.57C912.663 845.739 905.267 849.219 897.403 851.225C888.671 853.452 880.277 856.934 871.4 858.608C864.008 860.002 856.828 862.435 849.217 862.848C846.903 862.973 844.717 864.661 842.372 865.122C833.237 866.915 824.393 869.832 815.36 872.024C807.779 873.862 800.141 875.31 792.563 877.033C784.005 878.98 775.317 880.039 766.756 881.879C760.482 883.228 753.957 883.111 747.579 883.849C741.727 884.525 735.864 883.931 729.939 885.691C724.21 887.392 717.829 886.953 711.745 887.454C707.094 887.837 702.39 887.927 697.748 888.672C691.579 889.661 685.359 888.817 679.159 888.81Z" fill="#DFD4BF"/>
<path d="M134.077 185.123C131.434 185.334 130.242 187.508 128.848 189.226C120.617 199.365 112.852 209.875 104.687 220.058C99.2762 226.805 94.3844 233.921 89.1502 240.784C85.2269 245.928 82.4337 251.945 79.2368 257.63C74.5368 265.989 69.3337 274.139 65.4964 282.883C63.1355 288.262 60.1188 293.366 58.2839 299.015C56.6775 303.963 54.351 308.673 52.5658 313.57C49.3212 322.47 47.059 331.664 44.4867 340.772C41.1065 352.74 37.627 364.696 35.2381 376.875C33.498 385.745 31.8796 394.68 31.0219 403.744C30.2286 412.128 28.1364 420.383 27.147 428.757C26.3492 435.505 25.3611 442.278 25.6788 449.131C25.7348 450.328 25.3203 451.545 24.8791 452.722C23.8368 444.532 24.4366 436.394 25.5031 428.301C26.1518 423.371 25.6546 418.405 26.4632 413.483C27.6386 406.326 28.3325 399.123 30.0191 392.009C31.1607 387.197 32.2215 382.257 32.8104 377.305C33.5725 370.903 35.8793 364.865 36.8935 358.546C38.449 348.864 41.6929 339.632 44.2518 330.22C44.8796 327.91 45.9639 325.781 47.2653 323.674C48.4387 321.774 47.7498 319.106 48.8074 316.783C51.5292 310.804 53.7487 304.59 56.158 298.486C58.289 293.09 60.4143 287.69 62.9254 282.479C68.6391 270.623 75.0417 259.139 82.1949 248.073C86.2558 241.791 89.8735 235.218 94.0406 229.011C99.5308 220.833 105.351 212.917 111.874 205.458C117.906 198.561 123.393 191.158 129.568 184.363C141.019 171.764 152.188 158.906 165.279 147.876C179.182 136.161 193.343 124.762 209.163 115.79C218.401 110.551 227.26 104.707 236.477 99.4361C244.461 94.8697 252.682 90.8273 260.848 86.6805C266.46 83.8307 272.326 81.3158 278.135 78.9683C284.588 76.3597 290.991 73.5475 297.53 71.1153C298.687 70.6842 299.713 70.5295 300.871 71.5763C298.556 73.6493 295.839 74.7387 293.156 75.3162C287.45 76.5431 282.631 79.6311 277.505 82.0607C268.744 86.2113 260.023 90.4453 251.348 94.771C243.619 98.6255 235.716 102.224 228.365 106.713C220.007 111.818 211.23 116.232 203.232 121.941C191.361 130.415 180.041 139.533 169.132 149.236C160.233 157.149 151.763 165.495 143.067 173.607C139.975 176.491 137.088 179.64 134.596 183.101C134.146 183.726 133.863 184.388 134.019 185.177C134.019 185.178 134.077 185.123 134.077 185.123Z" fill="#DFD4BF"/>
<path d="M1124.18 681.955C1140.06 658.135 1154.06 633.5 1164.63 606.702C1175.19 579.966 1182.87 552.619 1189.07 524.685C1187.13 532.313 1187.71 540.355 1184.51 547.801C1182.75 551.904 1182.62 556.694 1181.56 561.15C1179.06 571.661 1176.79 582.181 1172.22 592.089C1170.26 596.334 1169.34 601.044 1167.7 605.453C1166.73 608.056 1165.18 610.436 1164.1 613.006C1163.44 614.603 1163.39 616.467 1162.69 618.038C1159.49 625.154 1156.5 632.35 1152.78 639.251C1147.91 648.291 1142.3 656.803 1136.54 665.278C1133.06 670.404 1130.1 675.893 1126.22 680.769C1125.79 681.312 1125.33 681.839 1124.89 682.373C1124.65 682.233 1124.41 682.095 1124.18 681.955Z" fill="#DFD4BF"/>
<path d="M1189.46 521.896C1188.94 518.976 1189.28 516.164 1189.74 513.347C1190.23 510.443 1190.2 507.3 1191.03 504.64C1193.06 498.153 1191.7 491.375 1193.52 484.867C1194.18 482.501 1193.13 479.488 1193.43 476.664C1194.03 471.116 1194.91 465.571 1194.59 459.946C1194.21 453.344 1193.62 446.736 1193.63 440.132C1193.66 427.559 1192.25 415.117 1190.59 402.707C1189.36 393.601 1186.71 384.766 1184.57 375.84C1184.38 375.036 1183.78 374.27 1184.14 373.396C1184.29 373.038 1184.6 372.632 1184.94 372.494C1185.58 372.232 1185.81 372.696 1185.99 373.275C1186.61 375.285 1187.52 377.234 1187.91 379.283C1189.38 387.032 1190.92 394.781 1191.97 402.592C1192.49 406.405 1193.24 410.182 1192.91 414.229C1192.63 417.597 1193.63 421.321 1194.29 424.801C1196.04 434.006 1195.54 443.215 1195.52 452.465C1195.51 459.281 1195.47 466.114 1195.62 472.937C1195.7 476.838 1195.2 480.988 1194.9 484.984C1194.46 490.737 1194.1 496.517 1193.43 502.244C1192.65 508.885 1192.23 515.644 1189.46 521.896Z" fill="#DFD4BF"/>
<path d="M1078.73 165.747C1077.11 164.585 1075.31 163.67 1073.99 162.296C1066.15 154.141 1056.49 148.345 1047.6 141.557C1038.63 134.71 1029.5 128.123 1019.83 122.284C1019.24 121.927 1017.23 121.678 1018.21 120.271C1018.94 119.207 1019.96 120.507 1020.61 120.998C1025.88 124.989 1031.68 128.257 1037.29 131.645C1044.3 135.886 1051.22 140.289 1057.56 145.348C1063.04 149.725 1069.17 153.557 1073.33 159.531C1074.49 161.19 1076.48 162.262 1078.04 163.651C1078.54 164.099 1079.33 164.514 1078.73 165.747Z" fill="#DFD4BF"/>
<path d="M1210.49 504.301C1210.84 499.597 1211.33 494.899 1211.49 490.19C1211.86 479.873 1212.08 469.551 1212.95 459.258C1213.02 458.53 1212.86 457.778 1212.75 457.045C1212.66 456.443 1211.73 455.758 1212.91 455.315C1213.81 454.977 1214.81 454.693 1215.58 455.493C1216.13 456.08 1216.13 457.095 1215.55 457.525C1214.29 458.469 1214.47 459.753 1214.47 460.962C1214.47 469.163 1213.62 477.328 1213.42 485.503C1213.34 488.742 1213.11 491.939 1212.72 495.121C1212.34 498.227 1211.57 501.284 1210.96 504.362L1210.49 504.301Z" fill="#DFD4BF"/>
<path d="M32.3653 513.144C31.1153 510.589 32.9871 506.167 30.7981 502.235C29.3305 499.609 30.5805 496.276 28.6652 493.389C28.0807 492.509 28.4227 489.07 29.113 486.998C30.9972 481.288 30.1204 475.516 30.2199 469.711C30.3878 459.254 27.9501 448.863 29.4924 438.421C30.6739 430.43 30.2136 422.171 32.3155 414.429C33.5219 409.973 32.8939 405.266 34.9958 400.997C36.0716 398.808 35.1139 396.14 35.6176 393.67C37.2158 385.862 39.013 378.102 40.7355 370.329C42.8747 360.643 44.8708 350.875 47.6257 341.39C49.5659 334.697 51.2263 327.868 53.6578 321.275C58.6575 307.705 64.7766 294.632 70.6967 281.466C74.9378 272.02 80.5158 263.292 85.87 254.462C92.5426 243.451 99.1032 232.364 106.665 221.912C111.559 215.151 116.994 208.846 122.547 202.642C129.288 195.113 135.818 187.375 142.888 180.168C153.572 169.283 164.15 158.296 175.722 148.288C184.08 141.058 193.675 135.558 202.083 128.499C208.326 123.255 215.944 120.234 222.175 115.042C223.637 113.825 225.714 113.381 227.393 112.396C233.711 108.704 239.836 104.661 246.322 101.299C250.227 99.2718 254.437 97.7495 258.417 95.7962C264.362 92.8797 270.189 89.6964 276.252 87.0584C283.696 83.8173 291.283 80.8654 298.913 78.0714C308.483 74.5659 318.271 71.6301 327.767 67.9295C338.171 63.8718 349.203 62.2892 359.793 59.045C366.123 57.106 372.734 56.2609 378.965 54.1397C382.833 52.8251 387.347 53.5738 390.625 50.467C398.416 50.3078 405.841 47.8677 413.49 46.7633C425.61 45.0146 437.606 42.4295 449.695 40.4632C456.454 39.3644 463.419 39.3426 470.067 37.8452C477.05 36.2725 484.071 35.1855 491.129 34.8173C503.162 34.1893 515.146 32.9151 527.141 31.9531C541.438 30.8064 555.772 30.534 570.049 29.4159C575.713 28.9719 581.394 29.0291 587.067 28.3506C595.164 27.3818 603.393 27.2133 611.557 27.6436C622.72 28.2325 633.884 27.9719 645.041 27.9129C649.351 27.8892 653.718 27.9781 658.076 27.643C661.573 27.3743 665.713 28.0658 669.368 28.9377C673.82 29.9998 678.195 29.0913 682.577 29.6385C691.556 30.761 700.683 29.8232 709.601 30.8972C717.757 31.8791 725.963 32.5382 734.098 33.7888C739.892 34.6787 745.784 34.9324 751.634 35.4448C759.452 36.1295 767.169 37.6226 774.953 38.4714C781.276 39.1611 787.423 40.8562 793.943 40.7854C797.732 40.7443 801.744 42.7162 805.769 43.4606C812.749 44.7509 819.578 47.012 826.593 47.9069C832.763 48.6935 838.333 51.2574 844.317 52.4993C849.486 53.5714 854.741 54.521 859.744 56.0905C864.831 57.6862 870.09 58.3839 875.17 59.9747C881.934 62.0933 889.02 63.1872 895.775 65.3295C901.595 67.1758 907.549 68.4593 913.37 70.2528C914.111 70.4816 914.47 71.1134 914.986 71.6065C916.057 72.6301 917.088 73.8651 918.912 72.5076C919.879 71.7887 921.081 72.642 922.152 73.0101C927.327 74.7886 931.767 78.2579 937.111 79.6117C945.757 81.8019 953.603 85.9976 961.515 89.827C970.045 93.9555 979.147 96.7613 987.242 101.983C995.412 107.254 1004.39 111.262 1012.76 116.244C1016.64 118.556 1019.73 122.192 1023.54 124.658C1033.15 130.868 1041.73 138.436 1050.81 145.317C1054.41 148.045 1058.2 151.034 1061.65 154.258C1068.05 160.259 1073.95 166.759 1080.42 172.672C1083.57 175.545 1086.88 178.27 1089.78 181.381C1092.49 184.301 1094.63 187.754 1097.25 190.777C1109.23 204.599 1120.54 218.922 1130.46 234.316C1135.87 242.709 1141.63 250.875 1146.92 259.341C1150.22 264.623 1153.02 270.228 1155.87 275.777C1157.61 279.158 1160.24 281.975 1161.57 285.614C1164 292.228 1168.45 297.856 1169.85 305.099C1171.16 311.908 1174.15 318.357 1177.17 324.727C1178.59 327.72 1179.16 331.314 1180.11 334.637C1181.66 340.045 1183.81 345.268 1185.25 350.661C1186.14 353.975 1187.08 357.33 1187.79 360.713C1188.09 362.161 1188.35 363.547 1189.37 364.674C1189.87 365.224 1190.23 365.809 1190.18 366.61C1189.74 373.114 1192.45 379.064 1193.41 385.31C1194.07 389.668 1194.6 394.094 1195.7 398.32C1196.46 401.209 1195.17 404.547 1197.77 407.135C1198.41 407.776 1197.33 409.587 1197.42 411.083C1197.85 418.428 1198.76 425.715 1199.44 433.031C1199.94 438.443 1199.94 443.902 1200.17 449.339C1200.47 456.587 1201.03 463.836 1200.99 471.081C1200.96 476.759 1200.31 482.447 1199.66 488.1C1199.47 489.753 1199.33 491.388 1199.38 493.024C1199.51 497.408 1198.14 501.544 1197.48 505.797C1196.28 513.633 1195.28 521.507 1194.45 529.393C1193.91 534.559 1191.71 539.33 1191.18 544.458C1190.37 552.345 1186.54 559.432 1185.24 567.145C1184.57 571.119 1182.26 574.764 1182.99 579.027C1183.19 580.247 1181.7 580.906 1181.28 582.133C1177.35 593.624 1173.37 605.1 1169.17 616.491C1165.51 626.402 1160.63 635.75 1155.72 645.105C1153.5 649.338 1151.43 653.752 1149.25 657.998C1147.26 661.866 1145.07 665.785 1142.58 669.47C1138.36 675.715 1134.15 682.013 1130.57 688.633C1124.34 700.149 1115.43 709.656 1107.91 720.19C1105.09 724.129 1100.99 726.762 1098.07 730.642C1092.94 737.461 1086.25 742.954 1081.07 749.764C1079.39 751.962 1076.69 752.819 1074.77 754.697C1069.82 759.537 1064.22 763.619 1058.98 768.118C1055.95 770.717 1053.14 773.586 1050.35 776.443C1047.86 778.982 1044.52 780.214 1041.81 782.444C1035.45 787.682 1028.33 791.881 1021.8 796.927C1018.9 799.17 1015.01 800.751 1012.58 803.053C1009.46 806.012 1004.4 805.501 1002.31 809.772C1002.06 810.287 999.698 810.042 998.219 810.974C990.848 815.616 982.98 819.381 975.214 823.318C967.677 827.139 960.213 831.12 952.55 834.671C946.762 837.353 940.555 839.153 934.967 842.276C925.097 847.792 914.159 850.206 903.541 853.598C896.797 855.751 890.391 858.887 883.512 860.723C879.245 861.861 875.093 863.448 870.812 864.52C862.631 866.568 854.394 868.39 846.182 870.309C836.701 872.524 827.248 874.867 817.732 876.919C811.055 878.358 804.467 880.117 797.69 881.247C788.151 882.838 778.618 884.622 769.116 886.505C764.257 887.468 759.169 887.223 754.203 887.715C744.436 888.683 734.694 889.921 724.919 890.788C716.592 891.528 708.34 892.91 699.975 893.368C693.212 893.737 686.491 894.815 679.733 895.32C674.324 895.724 668.889 895.709 663.464 895.991C651.91 896.591 640.321 896.54 628.777 897.262C624.217 897.548 619.606 897.015 614.989 898.287C613.211 898.778 610.514 897.311 608.184 897.61C601.992 898.404 595.82 898.514 589.633 897.629C581.755 896.503 573.805 897.132 565.889 896.668C556.026 896.09 546.151 895.874 536.307 894.74C529.467 893.952 522.558 893.601 515.655 893.246C507.571 892.831 499.537 891.441 491.471 890.593C482.479 889.648 473.456 889.03 464.489 887.895C459.017 887.202 453.724 885.399 448.19 884.766C439.695 883.793 431.207 882.706 422.768 881.335C418.82 880.694 414.821 879.602 410.941 879.232C404.716 878.638 398.821 876.709 393.068 874.969C386.906 873.104 380.675 871.293 374.487 869.445C365.022 866.617 355.278 864.706 345.876 861.688C340.067 859.82 334.16 858.188 328.407 855.949C322.127 853.503 315.659 851.339 309.267 849.076C299.684 845.687 290.288 841.844 281.009 837.643C272.658 833.86 264.686 829.229 256.092 826.049C250.19 823.864 245.483 819.728 239.817 817.22C233.418 814.385 227.915 810.043 222.063 806.292C218.786 804.191 215.378 802.256 211.902 800.505C208.42 798.752 205.13 796.725 202.506 793.881C199.9 791.056 196.107 790.278 193.246 787.864C187.662 783.153 181.406 779.376 176.033 774.241C171.481 769.893 166.432 765.635 160.381 763.102C159.896 762.898 159.523 762.655 159.212 762.186C153.69 753.872 145.798 747.766 138.747 740.94C135.818 738.111 133.934 734.679 131.16 731.836C126.372 726.923 122.665 721.077 117.635 716.279C115.421 714.168 114.021 710.907 112.15 708.229C109.022 703.758 105.85 699.331 102.443 695.071C98.1331 689.693 94.4766 683.847 91.0874 677.88C87.4371 671.453 83.9921 664.869 80.1801 658.567C76.082 651.791 72.6182 644.69 68.6134 637.877C66.4058 634.128 65.5353 629.675 63.4396 625.766C57.9548 615.517 54.5096 604.443 50.4489 593.604C47.6878 586.249 45.53 578.695 43.5152 571.21C40.8163 561.199 37.5517 551.256 36.8863 540.642C36.5442 535.155 34.5542 529.617 33.8018 524.003C33.3789 520.852 32.9685 517.699 32.3653 513.144Z" fill="#181818"/>
</svg>
