<svg width="308" height="40" viewBox="0 0 308 40" fill="none" xmlns="http://www.w3.org/2000/svg">
<rect x="0.462891" y="18.9204" width="306.628" height="0.648467" fill="#DFD4BF"/>
<path d="M153.732 0.646458C158.857 0.646457 163.427 2.76216 165.315 5.95705L169.019 5.95705L169.019 33.595L165.704 33.595C164.154 37.1943 159.336 39.6646 153.731 39.6646C148.126 39.6646 143.308 37.194 141.759 33.5948L138.443 33.5948L138.443 5.95681L142.148 5.95681C144.036 2.76224 148.607 0.646537 153.732 0.646536L153.732 0.646458Z" fill="#DFD4BF"/>
<path d="M154.27 14.1648C154.27 13.6285 154.621 13.2985 155.446 13.2985H155.714V13.0715H151.382V13.2985H151.65C152.476 13.2985 152.826 13.6285 152.826 14.1648V26.4179C152.826 26.9543 152.476 27.2843 151.65 27.2843H151.382V27.5112H155.714V27.2843H155.446C154.621 27.2843 154.27 26.9543 154.27 26.4179V14.1648Z" fill="#181818"/>
</svg>
