<svg width="765" height="600" viewBox="0 0 765 600" fill="none" xmlns="http://www.w3.org/2000/svg">
<g filter="url(#filter0_d_15_37537)">
<path d="M709.128 270.422C709.555 273.055 709.185 275.73 709.575 278.346C709.69 279.139 709.731 279.92 709.697 280.692C709.592 283.068 709.761 285.362 710.554 287.655C710.893 288.637 710.5 289.865 710.476 290.982C710.425 293.284 710.361 295.564 710.795 297.873C711.052 299.226 710.595 300.718 710.476 302.139C710.158 305.998 710.802 309.912 709.778 313.734C709.514 314.716 709.948 315.774 709.931 316.84C709.88 320.284 708.955 323.576 708.629 326.954C708.511 328.196 708.352 329.491 708.67 330.758C708.731 331.008 708.704 331.322 708.609 331.564C706.701 336.503 706.23 341.781 705.112 346.898C704.441 349.951 703.377 352.884 702.804 355.945C702.164 359.359 701.249 362.718 700.852 366.183C700.74 367.137 700.002 367.966 699.548 368.837C698.053 371.701 697.318 374.835 696.274 377.841C694.421 383.187 692.394 388.418 689.866 393.499C687.626 398.001 685.281 402.492 683.797 407.352C683.394 408.674 682.269 409.689 681.482 410.825C679.371 413.877 677.785 417.226 675.803 420.324C672.489 425.497 669.253 430.717 665.501 435.625C661.974 440.242 658.361 444.788 654.623 449.222C650.882 453.659 646.965 457.978 642.807 462.018C640.665 464.097 638.774 466.372 636.673 468.456C635.382 469.739 633.603 470.515 632.194 471.7C627.931 475.29 623.196 478.297 619.225 482.247C618.767 482.705 618.083 482.931 617.588 483.36C613.976 486.48 609.791 488.725 605.785 491.256C602.874 493.094 599.892 494.823 597.13 496.943C594.165 499.218 590.753 500.917 587.496 502.804C585.741 503.822 583.792 504.659 582.196 505.773C580.36 507.057 578.188 506.842 576.398 508.065C574.616 509.284 572.484 510.026 570.529 511.001C567.266 512.626 563.85 513.896 560.478 515.182C555.934 516.915 551.559 519.122 546.757 520.224C543.921 520.874 541.244 522.197 538.435 522.993C533.48 524.394 528.794 526.604 523.633 527.403C520.159 527.941 516.818 529.296 513.358 529.944C509.227 530.717 505.212 531.942 501.176 533.006C496.028 534.362 490.752 534.832 485.581 535.963C480.918 536.982 476.197 537.795 471.49 538.57C467.417 539.241 463.266 539.589 459.159 540.101C453.523 540.803 447.864 541.265 442.239 542.053C438.847 542.527 435.407 542.664 432.015 543.14C427.684 543.748 423.316 543.886 418.972 544.276C415.177 544.617 411.348 545.021 407.488 544.762C403.452 544.491 399.409 544.885 395.37 545.162C392.346 545.369 389.278 544.928 386.253 545.126C382.707 545.36 379.137 545.403 375.638 545.195C372.179 544.99 368.723 545.176 365.261 544.928C361.635 544.669 357.971 544.612 354.326 544.442C349.737 544.23 345.138 544.333 340.558 543.87C336.152 543.425 331.709 543.261 327.332 542.628C323.765 542.112 320.243 541.727 316.626 541.877C314.944 541.947 313.241 541.244 311.531 541.005C304.171 539.976 296.882 538.324 289.467 537.877C286.596 537.705 284.013 536.795 281.291 536.275C276.873 535.433 272.461 534.62 267.965 534.287C266.98 534.214 266.032 533.717 265.052 533.471C260.993 532.456 256.846 531.661 252.881 530.423C246.559 528.45 240.027 527.236 233.817 524.836C231.382 523.895 228.879 522.968 226.199 522.455C224.319 522.094 222.306 521.028 220.303 520.377C217.486 519.46 214.757 518.266 211.923 517.417C209.166 516.591 206.634 515.269 203.976 514.234C200.815 513.003 197.62 511.857 194.447 510.655C193.147 510.163 191.926 509.43 190.756 508.751C187.977 507.141 184.798 506.606 182.008 505.005C179.134 503.356 176.057 502.049 173.142 500.431C168.909 498.083 164.966 495.28 160.815 492.818C158.348 491.355 156.117 489.623 153.799 487.975C147.85 483.747 142.22 479.115 136.428 474.693C132.112 471.399 128.487 467.395 124.291 464.008C122.333 462.429 120.916 460.224 118.598 459.051C118.454 457.082 116.701 456.275 115.616 455.007C111.453 450.141 107.172 445.389 103.704 439.957C101.481 436.476 98.7567 433.315 96.5368 429.832C93.0576 424.374 89.2873 419.11 86.27 413.331C84.8277 410.568 83.0127 407.854 81.5207 405.118C79.8623 402.076 77.9063 399.123 76.6924 395.785C75.7277 393.133 74.0899 390.733 72.8944 388.155C71.9849 386.194 71.4084 384.078 70.4959 382.12C67.6205 375.951 65.4887 369.497 63.7109 362.971C62.4883 358.482 61.3924 353.928 60.6882 349.263C60.0888 345.29 59.3826 341.243 58.085 337.326C56.8481 333.592 56.8864 329.522 56.3107 325.608C55.9213 322.961 55.8366 320.268 55.5062 317.649C55.067 314.171 55.085 310.657 54.5076 307.167C54.0121 304.174 53.7109 300.942 54.4157 297.799C54.6553 296.73 54.5584 295.555 54.452 294.444C54.1243 291.037 55.455 287.773 55.2951 284.407C55.1307 280.94 56.1101 277.569 55.9464 274.069C55.8962 272.994 56.6258 271.471 56.8556 270.078C57.3019 267.367 57.7838 264.649 58.1877 261.941C58.5625 259.43 59.447 256.998 59.4104 254.421C59.3951 253.374 60.4808 252.449 60.2914 251.573C59.8123 249.354 61.3816 247.634 61.4039 245.473C61.4236 243.61 62.2017 241.6 62.7001 239.673C63.5853 236.25 64.4812 232.792 65.8225 229.534C67.6534 225.085 69.1861 220.53 70.89 216.041C72.9971 210.488 75.5041 205.112 77.7165 199.609C79.1622 196.014 80.6701 192.446 82.0314 188.816C82.1618 188.468 82.1534 186.599 83.5539 188.053C83.822 188.332 84.1547 187.702 84.3469 187.378C86.783 183.263 89.1697 179.118 91.6655 175.04C92.8339 173.13 94.2613 171.38 95.4788 169.497C96.8357 167.4 98.2312 165.307 99.3406 163.077C100.313 161.123 102.209 160.119 103.462 158.441C105.423 155.813 107.955 153.577 109.979 151.035C113.828 146.206 119.213 142.984 122.899 138.104C126.122 133.838 130.091 130.366 133.992 126.815C137.767 123.378 141.841 120.299 146.013 117.345C149.911 114.585 153.681 111.646 157.547 108.84C161.531 105.949 165.818 103.539 170.224 101.374C172.966 100.027 175.416 98.2439 177.966 96.6268C183.712 92.9836 189.849 90.1273 195.923 87.1208C200.711 84.7507 205.623 82.6782 210.656 80.9445C214.317 79.6839 218.04 78.5595 221.734 77.3877C226.863 75.7605 232.212 74.9231 237.23 72.9688C242.257 71.0108 247.511 69.9041 252.714 68.5947C255.115 67.9901 257.478 67.1467 259.914 66.7787C263.94 66.1704 267.939 65.3483 271.876 64.4323C277.872 63.0368 283.989 62.5926 290.019 61.5146C293.245 60.9375 296.581 60.6705 299.848 60.2123C302.88 59.7871 305.922 59.2323 308.951 58.8111C315.351 57.9212 321.773 57.1106 328.235 56.7206C329.916 56.6193 331.579 56.1872 333.26 56.1001C339.47 55.7785 345.694 55.661 351.895 55.2194C355.459 54.9656 359.006 55.0151 362.564 54.9483C366.98 54.865 371.412 54.6437 375.823 54.155C379.098 53.7924 382.413 54.1862 385.702 54.1371C392.569 54.0347 399.406 54.8907 406.288 54.4946C409.338 54.3194 412.439 55.0405 415.536 54.9941C419.165 54.9399 422.774 55.2984 426.397 55.416C430.853 55.5613 435.231 56.3994 439.664 56.7501C444.327 57.1198 448.983 57.6298 453.632 58.0944C457.986 58.5299 462.361 59.0043 466.699 59.6563C470.277 60.1944 473.798 61.0677 477.421 61.3649C484.351 61.9328 491.125 63.4991 497.892 64.9603C501.213 65.677 504.581 66.2006 507.872 67.064C512.155 68.1863 516.513 69.0406 520.735 70.3446C525.252 71.7387 529.902 72.6306 534.341 74.3169C537.099 75.363 540.037 75.9306 542.908 76.6659C548.384 78.0702 553.741 79.7829 558.94 82.0469C562.701 83.684 566.673 84.8483 570.329 86.7206C574.775 88.9964 579.36 90.9714 583.854 93.1409C589.133 95.6888 594.081 98.7749 599.079 101.768C603.295 104.293 607.524 106.832 611.519 109.733C613.122 110.895 615.07 111.475 616.66 112.825C619.205 114.989 621.892 117.006 624.681 118.886C628.818 121.679 632.546 125.034 636.185 128.416C638.9 130.94 641.712 133.311 644.539 135.693C645.471 136.477 645.501 138.013 646.548 139.018C649.371 141.728 651.943 144.701 654.688 147.497C655.965 148.796 656.83 150.372 657.894 151.808C660.374 155.155 663.363 158.101 665.583 161.648C667.968 165.455 671.126 168.689 673.39 172.622C676.132 177.379 679.361 181.852 682.357 186.463C683.78 188.651 684.359 191.217 685.457 193.557C687.226 197.319 689.053 201.075 690.483 204.97C692.421 210.25 694.936 215.286 696.874 220.549C699.005 226.33 701.001 232.179 702.665 238.108C704.017 242.932 704.949 247.881 705.729 252.853C706.362 256.899 707.386 260.883 708.226 264.897C708.609 266.727 708.646 268.611 709.128 270.422Z" fill="#181818"/>
<path d="M703.998 259.47C703.662 260.81 703.821 261.585 704.462 262.274C705.221 263.098 704.692 264.121 704.801 265.046C705.282 269.121 705.743 273.199 706.112 277.285C706.451 281.015 706.556 284.748 706.451 288.506C706.417 289.696 706.431 291.136 706.847 292.313C707.315 293.638 707.058 294.84 706.98 296.122C706.732 300.144 706.461 304.17 706.407 308.197C706.37 310.935 706.007 313.662 705.699 316.339C705.455 318.495 705.644 320.68 705.194 322.817C704.641 325.429 704.194 328.064 703.747 330.697C703.364 332.936 702.944 335.194 702.469 337.384C701.625 341.274 701.605 345.312 700.419 349.09C699.358 352.473 699.301 356.041 698.182 359.377C696.539 364.295 695.763 369.442 693.997 374.345C692.879 377.449 691.744 380.566 690.507 383.609C689.358 386.421 688.006 389.192 686.793 391.985C685.021 396.052 683.16 400.073 681.337 404.113C679.758 407.604 677.979 410.981 676.003 414.249C673.018 419.194 669.904 424.067 666.437 428.685C664.81 430.85 663.611 433.302 661.513 435.192C660.33 436.255 659.792 438.057 658.602 439.354C657.691 440.352 657.084 441.623 656.04 442.614C653.678 444.861 652.126 447.814 649.68 450.039C648.036 451.531 646.715 453.37 645.207 455.012C642.126 458.36 638.893 461.57 635.43 464.507C630.544 468.648 625.566 472.68 620.537 476.65C615.61 480.539 610.489 484.156 605.345 487.725C602.089 489.983 598.771 492.227 595.027 493.714C593.81 494.196 592.875 495.248 591.719 495.948C587.355 498.586 582.942 501.102 578.3 503.232C574.765 504.855 571.356 506.768 567.771 508.273C563.742 509.966 559.604 511.476 555.633 513.249C550.584 515.504 545.243 516.828 540.163 518.93C537.218 520.149 534.104 520.925 530.963 521.602C528.913 522.044 527.005 523.085 524.914 523.577C522.023 524.258 519.204 525.23 516.327 525.966C513.186 526.77 509.966 527.289 506.866 528.219C503.352 529.273 499.732 529.736 496.157 530.434C489.77 531.682 483.345 532.729 476.92 533.797C471.501 534.699 466.079 535.62 460.633 536.335C455.344 537.029 450.081 537.934 444.798 538.574C440.762 539.063 436.699 539.564 432.592 539.711C429.498 539.823 426.38 540.53 423.232 540.715C420.701 540.863 418.156 540.9 415.635 540.93C410.131 540.994 404.665 541.817 399.172 541.626C392.987 541.411 386.793 541.484 380.612 541.036C379.652 540.966 377.981 540.14 377.768 542.248C377.76 542.326 377.375 542.431 377.174 542.414C374.437 542.196 371.69 542.348 368.954 542.333C364.18 542.307 359.449 541.657 354.672 541.617C352.095 541.595 349.453 541.275 346.847 541.03C344.747 540.832 342.649 540.308 340.491 540.655C338.481 540.978 336.47 540.429 334.498 540.211C327.825 539.475 321.151 538.846 314.454 538.373C308.97 537.986 303.516 537.275 298.064 536.51C295.688 536.176 293.673 534.85 291.293 534.755C287.438 534.601 283.7 533.647 279.939 532.916C273.786 531.72 267.648 530.434 261.534 529.054C257.377 528.116 253.264 526.973 249.141 525.883C244.118 524.555 239.121 523.157 234.156 521.597C229.135 520.019 224.192 518.243 219.241 516.483C216.25 515.419 213.37 514.051 210.398 512.931C206.94 511.628 203.319 510.752 199.998 509.092C196.474 507.33 192.882 505.709 189.372 503.911C187.499 502.951 185.439 502.326 183.574 501.273C180.54 499.561 177.269 498.307 174.287 496.478C171.519 494.78 168.661 493.231 165.895 491.528C162.998 489.745 160.215 487.757 157.312 486.009C154.627 484.392 151.893 482.808 149.446 480.904C146.822 478.862 144.235 476.728 141.831 474.374C139.987 472.568 138.013 470.839 135.937 469.243C134.104 467.835 132.501 466.062 130.704 464.637C127.16 461.825 124.351 458.318 121.125 455.219C118.492 452.689 116.008 449.969 113.664 447.111C110.163 442.842 106.951 438.376 103.772 433.885C99.3403 427.623 94.5795 421.577 90.8228 414.856C88.7509 411.15 86.614 407.473 84.7251 403.674C82.3276 398.851 79.8437 394.087 78.0016 388.966C76.5238 384.858 74.5122 380.885 72.9297 376.791C71.9053 374.142 71.0293 371.392 70.1137 368.683C69.3048 366.289 69.1177 363.62 68.0622 361.503C67.0537 359.48 67.5203 357.2 66.2187 355.395C66.0099 355.106 65.8991 354.577 66.012 354.252C66.7826 352.041 65.238 350.364 64.7775 348.439C64.2133 346.079 63.8012 343.682 63.3586 341.294C62.8822 338.726 62.4498 336.15 61.9923 333.578C61.3539 329.99 60.606 326.416 60.0936 322.81C59.3914 317.869 59.2552 312.875 59.1932 307.892C59.1546 304.814 59.3803 301.732 59.5056 298.653C59.6605 294.842 60.0272 291.027 59.9309 287.224C59.8682 284.729 60.5483 282.381 60.6842 279.942C60.8309 277.309 60.9736 274.651 61.4548 272.067C62.2169 267.972 62.1505 263.764 63.3721 259.724C63.8815 258.04 63.7974 256.174 63.9611 254.388C64.115 252.717 64.7483 251.164 65.113 249.564C65.4772 247.964 65.6453 246.303 66.1573 244.711C67.1492 241.625 68.4915 238.637 69.3356 235.533C70.9019 229.774 73.1015 224.23 74.6952 218.475C76.1551 213.203 78.1927 208.025 80.7543 203.154C83.8681 197.232 87.409 191.535 90.5354 185.619C92.955 181.042 95.6782 176.662 98.6189 172.431C102.402 166.99 106.454 161.736 110.606 156.564C113.308 153.2 116.359 150.115 119.044 146.776C121.662 143.518 124.778 140.818 127.631 137.856C131.586 133.749 135.587 129.666 140.036 126.013C144.27 122.538 149.121 119.983 153.268 116.442C158.591 111.898 164.571 108.281 170.276 104.279C175.111 100.888 180.294 98.0773 185.7 95.7299C190.1 93.819 194.582 92.0596 198.937 90.0745C202.761 88.332 206.663 86.7837 210.492 85.0609C213.929 83.5143 217.601 82.6088 221.178 81.4482C225.082 80.1811 228.983 78.8927 232.927 77.7561C237.988 76.2973 243.1 75.0157 248.171 73.5931C252.662 72.3335 257.266 71.6283 261.809 70.6463C267.352 69.4474 272.916 68.322 278.452 67.0776C282.349 66.2016 286.383 66.1176 290.257 65.0735C293.896 64.0928 297.691 64.0562 301.359 63.3798C305.175 62.6757 309.016 62.1006 312.845 61.7221C322.579 60.7597 332.309 59.6777 342.095 59.2602C345.037 59.1345 347.965 58.3405 350.896 58.3591C355.034 58.3859 359.121 57.7309 363.263 57.8193C367.606 57.9115 371.97 57.5052 376.298 57.5272C378.591 57.5384 381.093 56.7282 383.428 58.0033C383.77 58.1904 384.946 57.7254 385.77 57.6478C386.591 57.5702 387.422 57.0189 387.853 58.2365C387.879 58.3127 388.166 58.3551 388.311 58.3225C393.169 57.2385 398.053 57.6994 402.951 57.9366C404.625 58.0179 406.438 58.5875 407.83 58.3917C410.575 58.005 413.273 58.6387 415.96 58.1704C417.573 57.8891 419.04 58.9999 420.718 58.6221C424.052 57.8712 427.424 58.5171 430.779 58.597C431.633 58.6174 432.609 58.3263 433.276 59.2199C433.354 59.3215 433.591 59.3493 433.747 59.3368C438.048 58.9877 442.328 59.6282 446.509 60.2728C450.328 60.861 454.198 61.2317 458.011 61.817C461.362 62.3304 464.72 63.1376 468.136 63.2863C471.084 63.4148 473.86 64.4453 476.764 64.838C479.875 65.2586 483.019 65.4314 486.096 66.1278C489.241 66.8397 492.389 67.5758 495.568 68.1037C497.221 68.3782 498.933 68.404 500.563 68.8171C504.307 69.7649 508.059 70.7198 511.806 71.6006C515.06 72.364 518.194 73.5846 521.552 74.0048C523.701 74.2736 525.754 75.2448 527.883 75.7704C530.621 76.4474 533.42 76.892 536.144 77.6206C539.929 78.6338 543.667 79.8053 547.351 81.1808C550.065 82.1937 552.773 83.2662 555.579 84.0741C558.347 84.8708 561.004 86.0775 563.671 87.1887C566.107 88.2019 568.615 89.1192 570.879 90.4459C576.223 93.5832 582.468 94.9444 587.449 98.6584C589.35 100.073 591.529 100.876 593.475 102.137C596.226 103.922 599.215 105.478 602.031 107.245C604.705 108.922 607.277 110.76 609.903 112.514C611.258 113.418 612.617 114.317 614.003 115.173C614.807 115.669 615.691 116.048 616.006 117.056C616.125 117.431 616.484 117.507 616.786 117.642C619.513 118.856 621.503 121.113 623.939 122.713C628.51 125.711 632.028 129.881 636.162 133.361C638.229 135.1 639.9 137.339 641.859 139.197C644.424 141.632 646.742 144.263 649.022 146.929C653.763 152.468 658.646 157.883 662.865 163.866C667.23 170.054 671.557 176.26 675.573 182.682C677.62 185.956 679.101 189.521 680.995 192.87C684.767 199.534 687.813 206.532 690.741 213.601C692.622 218.137 694.387 222.714 695.844 227.385C697.074 231.322 698.45 235.213 699.44 239.242C700.307 242.773 701.419 246.265 702.215 249.822C702.961 253.151 703.465 256.534 703.998 259.47Z" fill="#DFD4BF"/>
<path d="M66.0366 327.168C65.3555 325.775 66.3755 323.366 65.1827 321.223C64.3829 319.792 65.0641 317.976 64.0203 316.402C63.7018 315.923 63.8882 314.049 64.2643 312.92C65.2911 309.808 64.8133 306.663 64.8675 303.499C64.959 297.801 63.6307 292.139 64.4711 286.448C65.1149 282.094 64.8641 277.594 66.0095 273.375C66.6669 270.946 66.3247 268.382 67.4701 266.055C68.0563 264.862 67.5344 263.409 67.8089 262.062C68.6798 257.807 69.6592 253.579 70.5978 249.343C71.7636 244.065 72.8513 238.742 74.3525 233.573C75.4098 229.926 76.3146 226.205 77.6396 222.612C80.3641 215.217 83.6986 208.094 86.9247 200.919C89.2358 195.771 92.2754 191.015 95.1931 186.203C98.8292 180.203 102.404 174.161 106.525 168.466C109.192 164.781 112.154 161.346 115.18 157.965C118.853 153.862 122.411 149.645 126.264 145.718C132.086 139.787 137.85 133.799 144.157 128.346C148.711 124.406 153.94 121.408 158.521 117.562C161.924 114.704 166.075 113.058 169.47 110.229C170.267 109.566 171.399 109.323 172.314 108.787C175.756 106.775 179.094 104.572 182.629 102.74C184.757 101.635 187.051 100.805 189.22 99.741C192.459 98.1517 195.635 96.417 198.939 94.9795C202.995 93.2133 207.129 91.6047 211.287 90.0822C216.502 88.172 221.836 86.5721 227.011 84.5555C232.68 82.3444 238.692 81.4819 244.463 79.7141C247.912 78.6574 251.515 78.1969 254.91 77.041C257.018 76.3247 259.478 76.7327 261.264 75.0397C265.51 74.9529 269.556 73.6232 273.724 73.0213C280.329 72.0684 286.866 70.6597 293.453 69.5882C297.137 68.9894 300.932 68.9776 304.555 68.1616C308.36 67.3046 312.186 66.7122 316.032 66.5116C322.59 66.1693 329.12 65.475 335.656 64.9508C343.447 64.3259 351.258 64.1775 359.039 63.5682C362.125 63.3262 365.221 63.3574 368.312 62.9877C372.725 62.4597 377.209 62.3679 381.657 62.6024C387.741 62.9233 393.824 62.7813 399.904 62.7491C402.253 62.7363 404.632 62.7847 407.007 62.6021C408.913 62.4557 411.169 62.8325 413.16 63.3076C415.586 63.8864 417.97 63.3913 420.359 63.6895C425.251 64.3012 430.225 63.7901 435.085 64.3754C439.529 64.9105 444.001 65.2697 448.434 65.9511C451.591 66.436 454.802 66.5743 457.99 66.8535C462.25 67.2266 466.456 68.0403 470.697 68.5028C474.143 68.8786 477.492 69.8024 481.046 69.7638C483.11 69.7414 485.297 70.816 487.49 71.2216C491.293 71.9248 495.015 73.1569 498.838 73.6445C502.2 74.0732 505.235 75.4704 508.496 76.1471C511.313 76.7313 514.176 77.2488 516.903 78.1041C519.675 78.9736 522.54 79.3538 525.309 80.2207C528.995 81.3752 532.856 81.9713 536.537 83.1387C539.709 84.1448 542.953 84.8442 546.125 85.8216C546.529 85.9463 546.725 86.2906 547.006 86.5593C547.59 87.1171 548.151 87.79 549.146 87.0503C549.672 86.6586 550.327 87.1235 550.911 87.3241C553.731 88.2933 556.15 90.1838 559.063 90.9216C563.774 92.1151 568.05 94.4014 572.361 96.4882C577.009 98.738 581.97 100.267 586.381 103.112C590.833 105.985 595.723 108.169 600.286 110.883C602.403 112.144 604.083 114.125 606.161 115.469C611.396 118.853 616.074 122.977 621.02 126.726C622.981 128.213 625.05 129.842 626.925 131.599C630.416 134.869 633.631 138.411 637.159 141.633C638.874 143.199 640.678 144.684 642.255 146.379C643.736 147.97 644.902 149.852 646.33 151.499C652.857 159.031 659.017 166.837 664.423 175.225C667.371 179.799 670.514 184.249 673.396 188.862C675.194 191.741 676.72 194.795 678.272 197.819C679.218 199.661 680.653 201.196 681.38 203.179C682.701 206.783 685.128 209.85 685.889 213.797C686.605 217.508 688.234 221.022 689.878 224.493C690.65 226.124 690.961 228.082 691.48 229.894C692.324 232.84 693.497 235.687 694.283 238.625C694.766 240.431 695.28 242.26 695.664 244.103C695.828 244.892 695.974 245.647 696.529 246.261C696.799 246.561 696.997 246.88 696.967 247.317C696.726 250.861 698.206 254.103 698.727 257.506C699.09 259.882 699.378 262.293 699.979 264.596C700.389 266.171 699.686 267.99 701.103 269.4C701.454 269.749 700.865 270.736 700.913 271.551C701.147 275.554 701.646 279.525 702.016 283.511C702.289 286.461 702.287 289.435 702.41 292.398C702.575 296.348 702.883 300.298 702.861 304.246C702.844 307.34 702.486 310.44 702.133 313.52C702.029 314.421 701.955 315.312 701.981 316.204C702.051 318.592 701.304 320.846 700.948 323.164C700.292 327.434 699.745 331.725 699.294 336.022C698.999 338.838 697.803 341.438 697.515 344.232C697.07 348.53 694.987 352.392 694.278 356.595C693.912 358.76 692.653 360.746 693.048 363.07C693.161 363.734 692.348 364.093 692.119 364.762C689.979 371.024 687.81 377.278 685.519 383.485C683.525 388.886 680.865 393.98 678.192 399.078C676.982 401.384 675.854 403.79 674.664 406.104C673.579 408.212 672.387 410.347 671.03 412.355C668.73 415.758 666.433 419.19 664.483 422.798C661.091 429.073 656.235 434.254 652.134 439.994C650.601 442.14 648.366 443.575 646.774 445.69C643.977 449.406 640.333 452.399 637.509 456.11C636.597 457.308 635.125 457.775 634.079 458.798C631.38 461.436 628.329 463.66 625.471 466.111C623.821 467.528 622.29 469.091 620.768 470.648C619.415 472.032 617.591 472.703 616.117 473.918C612.653 476.773 608.769 479.061 605.214 481.81C603.633 483.033 601.515 483.894 600.191 485.149C598.49 486.761 595.733 486.483 594.592 488.81C594.455 489.091 593.168 488.957 592.362 489.465C588.346 491.995 584.058 494.047 579.826 496.192C575.719 498.274 571.652 500.444 567.476 502.379C564.322 503.84 560.939 504.821 557.895 506.523C552.516 509.528 546.556 510.844 540.769 512.692C537.094 513.866 533.603 515.575 529.855 516.575C527.529 517.195 525.267 518.06 522.934 518.644C518.476 519.76 513.987 520.753 509.512 521.799C504.346 523.006 499.194 524.283 494.009 525.401C490.371 526.185 486.78 527.144 483.088 527.759C477.889 528.626 472.695 529.599 467.516 530.625C464.868 531.149 462.096 531.016 459.39 531.284C454.068 531.811 448.759 532.486 443.432 532.959C438.894 533.362 434.398 534.115 429.839 534.364C426.154 534.566 422.492 535.153 418.809 535.428C415.861 535.649 412.899 535.64 409.943 535.794C403.647 536.121 397.332 536.093 391.041 536.487C388.556 536.642 386.044 536.352 383.527 537.045C382.559 537.312 381.089 536.513 379.819 536.676C376.445 537.108 373.082 537.168 369.71 536.687C365.417 536.073 361.085 536.416 356.772 536.163C351.397 535.848 346.016 535.73 340.651 535.112C336.924 534.682 333.159 534.491 329.397 534.298C324.992 534.072 320.614 533.314 316.219 532.852C311.319 532.337 306.402 532.001 301.515 531.382C298.533 531.004 295.649 530.022 292.633 529.677C288.004 529.147 283.379 528.555 278.78 527.807C276.628 527.458 274.449 526.863 272.335 526.661C268.943 526.337 265.73 525.287 262.596 524.338C259.237 523.322 255.842 522.335 252.47 521.328C247.313 519.787 242.002 518.746 236.879 517.101C233.714 516.083 230.494 515.194 227.36 513.974C223.937 512.641 220.413 511.461 216.929 510.228C211.707 508.382 206.587 506.287 201.531 503.998C196.98 501.937 192.636 499.413 187.952 497.68C184.737 496.489 182.171 494.235 179.084 492.869C175.597 491.324 172.598 488.958 169.409 486.914C167.624 485.769 165.767 484.714 163.872 483.761C161.975 482.805 160.182 481.7 158.752 480.151C157.332 478.611 155.265 478.187 153.706 476.872C150.663 474.305 147.254 472.246 144.326 469.448C141.846 467.079 139.094 464.758 135.797 463.378C135.532 463.267 135.329 463.134 135.16 462.879C132.15 458.348 127.85 455.021 124.007 451.301C122.411 449.76 121.385 447.89 119.873 446.34C117.264 443.663 115.244 440.477 112.503 437.863C111.296 436.712 110.534 434.936 109.514 433.476C107.809 431.04 106.081 428.627 104.224 426.306C101.876 423.375 99.8831 420.19 98.0363 416.938C96.0471 413.436 94.1698 409.848 92.0925 406.414C89.8593 402.721 87.9718 398.852 85.7894 395.139C84.5864 393.096 84.112 390.669 82.97 388.539C79.9812 382.954 78.1038 376.92 75.891 371.013C74.3864 367.005 73.2105 362.889 72.1126 358.81C70.6419 353.354 68.8628 347.936 68.5002 342.152C68.3139 339.162 67.2294 336.144 66.8194 333.085C66.589 331.368 66.3653 329.65 66.0366 327.168Z" fill="#181818"/>
<path d="M660.262 421.83C659.937 422.798 659.283 423.557 658.68 424.351C656.352 427.418 654.037 430.497 651.706 433.564C651.299 434.1 650.869 434.621 650.408 435.11C644.718 441.166 639.103 447.294 633.298 453.234C629.771 456.845 626.091 460.345 622.207 463.568C616.731 468.116 611.034 472.389 605.003 476.223C601.736 478.298 598.557 480.546 595.202 482.465C591.326 484.682 587.503 487.035 583.315 488.703C581.797 489.307 580.539 490.534 579.079 491.33C573.45 494.408 567.683 497.181 561.793 499.759C556.303 502.162 550.81 504.557 545.144 506.466C538.658 508.652 532.125 510.715 525.618 512.834C518.773 515.061 511.809 516.842 504.92 518.867C498.214 520.837 491.396 522.486 484.388 523.417C479.637 524.047 474.849 524.826 470.128 525.79C465.486 526.738 460.789 527.177 456.096 527.513C451.717 527.827 447.387 528.465 443.046 528.992C436.834 529.747 430.585 529.914 424.374 530.57C417.288 531.318 410.202 532.078 403.099 532.577C399.309 532.843 395.484 532.889 391.669 532.648C389.142 532.488 386.665 533.341 383.644 532.997C384.774 533.894 385.762 533.355 386.893 534.006C371.036 535.122 355.641 534.397 340.265 532.696C342.25 532.009 344.27 532.42 346.362 532.4C346.173 531.721 345.675 531.759 345.291 531.766C343.656 531.797 342.031 531.718 340.401 531.587C340.099 531.563 338.82 530.805 339.314 532.383C339.399 532.656 338.15 532.822 337.495 532.766C335.086 532.56 332.682 532.294 330.274 532.066C325.845 531.647 321.414 531.258 316.988 530.82C315.197 530.642 313.415 530.379 311.635 530.111C311.522 530.093 310.04 530.344 311.327 529.416C311.579 529.234 310.83 528.993 310.49 528.968C302.961 528.393 295.573 526.869 288.163 525.543C282.517 524.533 276.933 523.18 271.321 521.984C267.926 521.261 264.468 520.836 260.941 519.673C262.159 521 269.32 522.689 273.748 523.348C278.136 524.001 282.424 525.303 286.793 526.117C291.18 526.935 295.613 527.501 300.008 528.328C297.228 528.619 294.511 528.119 291.793 527.713C286.526 526.927 281.261 526.129 276.004 525.277C274.584 525.046 273.214 524.509 271.794 524.276C265.152 523.184 258.733 521.183 252.268 519.4C247.144 517.986 242.074 516.36 237.016 514.694C232.02 513.048 227.081 511.214 222.023 509.728C218.823 508.788 215.74 507.369 212.717 505.93C210.882 505.057 208.917 504.631 207.075 503.791C202.464 501.69 197.654 500.098 193.206 497.535C190.684 496.082 187.787 495.137 185.113 493.827C180.517 491.575 175.964 489.247 171.727 486.367C169.247 484.682 166.796 482.895 164.31 481.276C160.691 478.92 157.044 476.595 153.567 474.035C150.01 471.419 146.49 468.743 143.39 465.559C142.48 464.625 141.274 464.002 140.301 463.091C136.529 459.561 132.583 456.209 128.937 452.556C124.915 448.525 121.016 444.351 117.318 440.023C114.348 436.547 111.742 432.759 108.995 429.095C105.42 424.326 102.207 419.322 98.9221 414.369C96.3535 410.497 94.1921 406.358 92.0948 402.199C91.0094 400.046 89.6631 398.01 88.7353 395.796C87.4171 392.648 85.5272 389.775 84.5729 386.431C84.2015 385.129 83.2351 383.874 82.5705 382.571C80.5719 378.652 79.5044 374.402 77.8995 370.349C76.4729 366.747 75.6321 362.963 74.6301 359.251C73.7975 356.166 73.097 352.997 72.6108 349.795C72.3891 348.334 71.7527 346.818 71.319 345.321C70.1451 341.268 69.6487 337.098 69.0967 332.933C68.6741 329.744 68.0909 326.575 67.672 323.386C67.0329 318.517 66.5009 313.636 66.8608 308.712C66.898 308.204 66.6798 307.552 67.5623 307.135C67.8171 309.711 68.0641 312.209 68.3437 315.033C69.3786 313.94 69.035 313.009 68.9249 312.135C68.8412 311.469 68.6076 310.818 68.5626 310.152C68.5382 309.789 68.2708 309.109 68.9933 309.113C69.5138 309.115 69.6531 309.643 69.6819 310.122C69.8825 313.46 69.9432 316.815 70.3207 320.133C70.747 323.88 70.9628 327.667 71.9852 331.337C72.3891 332.786 72.5358 334.318 72.7121 335.802C73.3698 341.333 75.1357 346.602 76.3268 352.004C77.0781 355.412 78.01 358.789 79.0425 362.123C80.4048 366.523 82.026 370.843 83.3859 375.244C84.7302 379.595 86.7502 383.657 88.4916 387.837C89.7373 390.828 91.1369 393.755 92.3439 396.76C92.9241 398.204 94.162 399.128 94.8394 400.507C96.568 404.025 98.1942 407.647 100.389 410.867C103.351 415.213 105.756 419.897 108.987 424.093C111.836 427.793 114.647 431.526 117.699 435.055C119.315 436.925 120.684 438.95 122.187 440.85C123.009 441.889 124.426 442.823 125.448 443.95C127.93 446.687 130.337 449.499 132.93 452.126C134.733 453.954 136.787 455.535 138.744 457.209C140.819 458.984 142.91 460.741 144.999 462.501C145.299 462.753 145.611 462.994 145.934 463.216C146.514 463.614 147.223 464.023 147.687 463.24C148.128 462.496 147.185 462.404 146.82 462.079C144.235 459.776 141.61 457.519 139.039 455.201C137.664 453.961 136.18 452.86 134.811 451.603C131.01 448.112 127.66 444.234 124.392 440.263C122.417 437.863 120.286 435.589 118.327 433.175C116.017 430.33 113.87 427.352 111.621 424.461C110.006 422.384 108.453 420.279 107.06 418.062C103.787 412.852 100.371 407.721 97.6401 402.193C96.4856 399.856 95.7411 397.283 94.3626 395.099C91.939 391.262 90.4689 386.998 88.4659 382.979C87.0765 380.19 86.0714 377.229 85.3161 374.175C84.9799 372.816 84.1287 371.565 83.5377 370.265C82.4699 367.914 82.0477 365.434 81.3269 363.019C80.0897 358.874 78.6186 354.764 77.827 350.531C77.0212 346.22 75.5091 342.092 74.9012 337.744C74.4813 334.742 74.4095 331.648 73.7365 328.748C73.0476 325.78 72.6921 322.807 72.2776 319.822C71.5003 314.222 70.705 308.63 71.0814 302.936C71.257 300.273 71.118 297.588 71.0946 294.913C71.0841 293.722 71.1641 292.558 71.7368 291.374C72.1004 291.882 72.1353 292.407 72.1069 292.95C71.8883 297.059 72.5287 301.144 72.196 305.288C71.9388 308.49 72.7477 311.755 72.8341 315.025C72.9236 318.402 73.2997 321.795 74.0927 325.093C75.3411 330.283 75.6677 335.621 76.8989 340.833C77.9321 345.209 79.3604 349.479 80.2432 353.863C80.7518 356.391 81.3994 358.898 82.168 361.303C83.0104 363.936 83.9399 366.6 85.0568 369.143C86.2395 371.836 86.7468 374.699 87.6604 377.452C87.7807 377.813 87.8051 378.2 88.0447 378.53C89.6418 380.735 90.1206 383.495 91.4625 385.768C93.4581 389.147 94.5368 392.94 96.7184 396.241C98.3958 398.78 99.4097 401.748 100.853 404.453C102.201 406.98 103.679 409.454 105.218 411.857C109.165 418.021 113.664 423.791 118.202 429.542C120.606 432.587 122.807 435.866 125.377 438.738C129.254 443.073 132.967 447.558 137.081 451.715C140.85 455.522 145.231 458.486 149.168 462.024C150.906 463.586 152.798 465.16 154.934 466.306C156.178 466.973 157.232 467.903 158.258 468.886C160.682 471.208 163.799 472.56 166.427 474.618C169.973 477.397 173.993 479.474 177.71 482.003C178.155 482.306 178.769 482.485 178.871 483.153C178.085 483.957 177.303 483.486 176.562 483.102C174.21 481.884 171.948 480.475 169.852 478.893C168.179 477.629 166.349 476.66 164.598 475.571C160.968 473.312 157.716 470.529 154.093 468.271C153.332 467.797 152.62 467.244 151.835 466.796C150.955 466.293 150.104 465.735 149.64 464.79C149.573 464.739 149.523 464.659 149.513 464.569C149.525 464.577 149.424 464.645 149.425 464.644C149.611 464.685 149.677 464.846 149.776 464.989C151.015 466.658 152.789 467.74 154.417 468.877C157.965 471.355 161.437 473.941 165.061 476.325C169.153 479.017 173.402 481.445 177.486 484.134C182.821 487.647 188.603 490.267 194.325 493.035C200.568 496.055 207.063 498.471 213.452 501.132C219.565 503.677 225.741 506.08 232.113 507.994C236.355 509.268 240.535 510.833 244.742 512.261C248.031 513.377 251.458 514.133 254.833 515.013C259.182 516.148 263.558 517.187 267.92 518.246C276.163 520.249 284.505 521.849 292.953 522.827C296.303 523.215 299.628 523.852 302.938 524.501C305.692 525.04 308.505 525.284 311.21 526.019C315.964 527.312 320.88 527.206 325.707 527.851C332.348 528.737 339.057 528.825 345.725 529.342C352.527 529.868 359.34 529.808 366.134 530.316C368.705 530.507 371.273 529.873 373.88 529.947C376.286 530.014 378.713 530.071 380.525 529.881C373.198 529.726 365.271 530.286 357.351 529.632C356.002 529.521 354.642 529.566 353.289 529.601C349.615 529.697 345.98 529.158 342.324 528.987C337.724 528.772 333.115 528.631 328.536 528.179C323.504 527.683 318.389 527.562 313.463 526.553C307.029 525.237 300.547 524.221 294.105 522.974C291.235 522.418 288.316 522.101 285.451 521.535C279.394 520.338 273.27 519.59 267.275 517.919C259.316 515.7 251.196 514.031 243.293 511.588C235.013 509.029 226.786 506.29 218.739 503.06C216.182 502.033 213.636 500.962 211.159 499.728C208.943 498.624 206.451 498.227 204.191 497.176C198.934 494.729 193.477 492.742 188.336 490.008C185.654 488.582 182.924 487.24 180.336 485.648C179.464 485.111 178.416 484.508 178.837 483.124C182.222 483.933 185.047 485.967 188.157 487.376C191.524 488.901 194.98 490.245 198.285 491.893C202.049 493.769 205.971 495.268 209.782 497.024C213.049 498.529 216.506 499.553 219.777 501.074C225.587 503.776 231.82 505.322 237.901 507.256C244.842 509.463 251.873 511.393 258.894 513.337C264.017 514.756 269.143 516.228 274.353 517.237C277.289 517.805 280.177 518.613 283.172 519.028C286.708 519.519 290.256 520.199 293.776 520.916C297.797 521.735 301.903 521.999 305.916 522.779C309.111 523.401 312.346 523.69 315.546 524.251C319.294 524.909 323.161 524.85 326.95 525.317C331.167 525.837 335.409 525.885 339.632 526.265C342.861 526.556 346.131 526.48 349.338 526.907C353.626 527.479 357.936 527.257 362.213 527.318C365.427 527.363 368.65 527.599 371.864 527.647C375.922 527.708 379.99 527.289 384.083 527.911C385.732 528.161 387.686 527.737 389.506 527.65C396.97 527.289 404.431 526.881 411.893 526.529C412.296 526.51 412.805 526.363 413.201 526.751C413.055 527.435 412.473 527.589 411.937 527.626C407.183 527.954 402.429 528.284 397.671 528.54C394.142 528.73 390.607 528.826 387.073 528.932C386.208 528.957 385.338 528.85 384.47 528.816C384.18 528.805 383.899 528.872 383.774 529.177C383.622 529.548 383.998 529.631 384.159 529.832C384.762 530.585 385.366 531.055 386.459 530.561C387.545 530.07 388.805 530.393 389.936 530.436C397.929 530.743 405.834 529.703 413.774 529.154C416.075 528.995 418.43 529.145 420.667 528.692C422.937 528.232 425.136 528.766 427.352 528.57C431.077 528.241 434.791 527.777 438.511 527.414C443.229 526.954 447.908 526.196 452.642 525.904C456.804 525.647 461.033 525.563 465.076 524.688C468.397 523.97 471.789 523.599 475.079 522.667C477.661 521.934 480.362 521.586 482.999 521.049C486.147 520.409 489.363 520.021 492.406 518.856C494.076 518.216 495.903 518.037 497.645 517.581C504.042 515.906 510.447 514.223 516.92 512.891C521.535 511.94 525.978 510.517 530.437 509.068C533.135 508.192 535.93 507.613 538.668 506.847C539.356 506.654 539.966 506.173 540.658 505.973C545.52 504.564 550.251 502.794 554.88 500.753C557.503 499.598 560.146 498.478 562.711 497.207C564.179 496.48 565.737 496.022 567.205 495.328C572.437 492.855 577.496 490.051 582.674 487.484C585.551 486.06 588.147 484.213 590.95 482.689C594.379 480.827 597.388 478.204 600.784 476.277C604.565 474.135 608.046 471.588 611.492 469.006C616.124 465.537 620.421 461.626 625.067 458.179C628.086 455.938 630.801 453.364 633.722 451.025C635.958 449.238 637.555 446.764 639.818 444.958C641.973 443.237 643.044 440.457 645.599 439.048C646.165 438.738 646.375 437.641 647.006 437.044C650.618 433.606 653.549 429.604 656.494 425.609C657.324 424.483 658.266 423.442 659.151 422.355C659.452 421.985 659.764 421.685 660.293 421.859L660.262 421.83Z" fill="#DFD4BF"/>
<path d="M124.006 164.057C124.067 162.549 125.243 161.65 126.101 160.71C130.259 156.157 134.335 151.499 138.998 147.457C141.594 145.205 143.556 142.36 146.291 140.261C150.933 136.701 155.277 132.698 160.157 129.516C167.789 124.543 175.013 118.955 182.96 114.454C189.402 110.804 195.989 107.413 202.75 104.444C207.416 102.396 212.11 100.347 216.915 98.5894C219.378 97.6873 221.652 96.242 224.136 95.4172C229.148 93.754 234.258 92.3996 239.301 90.8211C246.183 88.6649 253.116 86.7052 260.151 85.0871C267.278 83.4486 274.452 82.1385 281.69 81.1016C286.594 80.3984 291.456 79.4269 296.35 78.6654C298.796 78.2849 301.307 78.2808 303.727 77.7952C307.421 77.0538 311.169 76.8257 314.893 76.5072C319.491 76.1127 324.025 75.0853 328.617 74.9016C336.235 74.597 343.846 74.0771 351.464 73.8043C358.265 73.5607 365.066 72.7603 371.865 73.092C377.017 73.3435 382.144 72.8731 387.3 73.1073C391.368 73.2923 395.5 73.0131 399.606 73.0192C400.573 73.0205 401.479 73.395 402.391 73.4878C404.624 73.7149 406.886 73.6335 409.135 73.7095C415.075 73.9097 421.05 73.6115 426.947 74.4041C430.263 74.8498 433.608 74.4496 436.893 75.1131C437.965 75.3296 439.045 75.1334 440.124 75.7901C440.778 76.1883 441.896 75.6617 442.838 75.6471C446.308 75.5926 449.647 76.519 453.072 76.6634C457.95 76.8694 462.774 77.6529 467.565 78.4537C471.861 79.1717 476.188 79.7397 480.486 80.4401C483.386 80.9129 486.302 81.47 489.217 81.9061C493.537 82.5523 497.759 83.8431 502.033 84.8167C506.616 85.8611 511.202 86.8987 515.803 87.8618C521.331 89.019 526.849 90.1742 532.258 91.8591C535.351 92.8225 538.553 93.485 541.605 94.5853C546.033 96.1824 550.404 97.9418 554.788 99.6616C557.484 100.72 560.084 102.062 562.732 103.148C567.095 104.938 571.43 106.76 575.651 108.852C580.085 111.05 584.597 113.108 588.696 115.929C591.261 117.694 593.881 119.378 596.636 120.833C601.951 123.64 606.572 127.44 611.338 131.035C614.191 133.187 617.128 135.244 619.84 137.563C621.234 138.755 623.14 139.484 623.834 141.452C624.017 141.972 624.758 141.918 625.221 142.209C628.588 144.33 630.926 147.502 633.461 150.407C638.359 156.02 643.443 161.457 648.442 166.975C649.907 168.591 651.082 170.471 652.395 172.225C652.631 172.541 652.879 172.85 653.149 173.137C653.551 173.563 654.033 173.363 654.378 173.121C654.88 172.766 654.401 172.475 654.197 172.165C651.682 168.346 648.73 164.9 645.664 161.505C641.638 157.045 637.283 152.878 633.608 148.095C632.696 146.909 631.001 146.314 630.958 144.473C637.03 147.938 662.245 178.621 661.905 182.238C661.246 181.881 660.961 181.272 660.621 180.721C659.159 178.35 657.285 176.289 655.629 174.063C655.312 173.638 654.907 173.069 654.246 173.581C653.475 174.178 654.076 174.685 654.446 175.137C658.296 179.843 661.462 184.989 664.424 190.286C667.077 195.029 670.06 199.591 672.624 204.379C674.221 207.362 675.232 210.653 676.65 213.739C678.106 216.908 679.146 220.24 680.266 223.51C681.396 226.81 682.704 230.041 683.822 233.338C685.321 237.753 687.052 242.172 687.808 246.734C688.597 251.502 690.309 256.009 691.038 260.756C691.998 267.01 693.115 273.248 693.819 279.531C694.198 282.908 694.522 286.325 694.22 289.791C694.058 291.644 694.86 293.574 694.52 295.541C694.133 297.784 694.824 300.012 694.603 302.321C694.424 304.186 694.525 306.185 694.471 308.122C694.403 310.554 694.288 312.988 694.085 315.413C693.788 318.969 693.038 322.464 692.544 325.992C692.383 327.137 691.801 328.074 691.63 329.188C691.02 333.178 690.46 337.177 689.821 341.16C689.32 344.283 688.954 347.491 687.553 350.43C687.287 350.988 687.55 351.78 687.348 352.39C686.564 354.757 685.509 357.048 684.908 359.456C684.4 361.495 683.682 363.487 683.031 365.441C681.315 370.592 679.931 375.872 677.454 380.777C676.353 382.958 675.476 385.296 674.515 387.57C674.414 387.81 674.434 388.149 674.039 388.244C673.541 387.227 673.741 386.36 674.21 385.299C675.594 382.169 676.641 378.887 678.05 375.769C679.535 372.482 680.035 368.855 681.591 365.642C682.86 363.021 683.535 360.227 684.337 357.502C685.062 355.041 685.128 352.33 685.957 349.884C687.481 345.389 687.805 340.672 688.909 336.118C690.148 331.011 690.861 325.834 691.351 320.644C691.739 316.528 692.372 312.416 692.334 308.255C692.321 306.748 692.769 305.227 692.672 303.734C692.496 301.026 692.876 298.327 692.678 295.636C692.516 293.436 692.888 291.22 692.667 289.078C692.392 286.423 692.443 283.753 692.05 281.099C691.628 278.246 691.802 275.262 691.302 272.468C690.824 269.803 690.443 267.091 689.834 264.435C689.247 261.878 688.665 259.307 688.326 256.71C687.916 253.568 686.943 250.592 686.096 247.569C685.213 244.417 684.814 241.143 683.772 238.029C682.857 235.293 681.974 232.544 680.97 229.84C679.355 225.493 677.611 221.188 675.959 216.867C674.343 212.64 672.253 208.669 670.429 204.567C668.232 199.626 665.403 194.98 662.848 190.206C660.365 185.566 657.417 181.292 654.06 177.252C652.511 175.388 651.453 173.11 649.874 171.276C648.337 169.492 646.503 167.936 645.171 165.984C641.771 161.002 637.591 156.677 633.398 152.424C629.277 148.242 625.314 143.876 620.818 140.062C618.366 137.981 616.117 135.648 613.579 133.685C610.535 131.331 607.286 129.241 604.114 127.054C602.148 125.699 600.267 124.159 598.149 123.101C595.999 122.026 594.043 120.7 592.039 119.418C589.058 117.512 585.902 115.917 582.762 114.296C580.171 112.96 577.475 111.802 574.991 110.294C572.738 108.926 570.419 107.726 568.047 106.605C563.684 104.542 559.296 102.528 554.772 100.837C552.46 99.9737 550.297 98.7788 547.91 98.0665C543.139 96.6429 538.435 95.0143 533.639 93.6477C527.711 91.9584 521.662 90.751 515.762 88.9997C511.412 87.7086 506.964 86.8909 502.531 86.1006C498.727 85.4226 494.983 84.4568 491.156 83.8461C487.636 83.2846 484.081 82.8864 480.586 82.2233C475.368 81.2331 470.074 80.8447 464.869 79.9271C461.155 79.2724 457.4 79.0006 453.698 78.2619C448.021 77.1294 442.171 77.3591 436.465 76.5373C431.895 75.8793 427.322 76.0843 422.763 75.6763C419.083 75.3472 415.36 75.5221 411.673 75.2412C407.194 74.8999 402.698 75.1985 398.239 74.8426C394.887 74.5753 391.523 74.5675 388.171 74.2811C386.455 74.1347 384.607 74.4302 382.82 74.4184C380.028 74.4001 377.235 74.7071 374.463 74.6386C371.398 74.5634 368.326 75.1761 365.325 74.8088C361.457 74.335 357.7 74.9714 353.907 75.2276C350.013 75.4906 346.12 75.7044 342.223 75.9006C337.184 76.1541 332.175 76.9386 327.136 77.1687C321.104 77.4438 315.099 78.1148 309.152 78.9179C301.914 79.8952 294.662 80.8698 287.437 81.9769C282.68 82.7058 277.939 83.5445 273.191 84.3354C270.562 84.7739 267.949 85.3453 265.333 85.8661C260.277 86.8722 255.339 88.2894 250.344 89.5053C242.767 91.3508 235.2 93.2308 227.803 95.7083C223.062 97.2969 218.389 99.1126 213.746 100.972C209.344 102.733 204.834 104.245 200.625 106.451C196.82 108.444 193.116 110.628 189.3 112.598C183.177 115.762 177.243 119.22 171.54 123.106C169.388 124.572 167.47 126.326 165.291 127.728C162.543 129.498 159.669 131.112 157.229 133.289C155.159 135.136 152.8 136.586 150.75 138.485C148.978 140.128 146.945 141.534 145.111 143.168C142.394 145.591 139.869 148.205 137.263 150.735C134.579 153.34 131.77 155.82 129.337 158.679C128.069 160.169 126.727 161.595 125.419 163.053C125.02 163.5 124.721 164.097 123.976 164.03L124.006 164.057Z" fill="#DFD4BF"/>
<path d="M125.339 152.555C126.071 152.731 126.509 152.281 126.905 151.788C130.246 147.656 134.103 144.007 137.979 140.421C142.429 136.305 146.885 132.171 151.663 128.417C156.217 124.839 160.711 121.166 165.594 118.049C171.948 113.994 178.542 110.358 185.35 107.1C190.223 104.769 194.974 102.197 199.813 99.7969C202.883 98.273 205.95 96.707 209.132 95.4427C216.221 92.6253 223.504 90.3559 230.775 88.0411C237.539 85.8872 244.4 84.12 251.236 82.2477C257.566 80.5144 263.997 79.2162 270.409 77.8204C282.398 75.2111 294.518 73.4445 306.637 71.6492C313.914 70.5712 321.233 69.8427 328.57 69.2781C332.484 68.9772 336.381 68.4336 340.297 68.1866C347.299 67.745 354.31 67.4309 361.318 67.0903C365.595 66.8826 369.873 66.6539 374.153 66.5604C382.415 66.3797 390.683 66.091 398.941 66.2405C403.219 66.3181 407.52 66.4614 411.808 66.8108C415.225 67.0893 418.711 66.7837 422.11 67.2855C425.45 67.7789 428.825 67.4536 432.131 67.9751C434.172 68.2967 436.317 68.558 438.259 68.518C440.519 68.4719 442.594 69.1846 444.797 69.188C446.852 69.1914 448.909 69.6702 450.96 69.9769C454.067 70.4415 457.25 70.1385 460.325 70.8796C464.588 71.9074 468.982 71.9921 473.291 72.762C479.862 73.9362 486.375 75.3602 492.921 76.635C497.374 77.5022 501.773 78.5788 506.185 79.6035C510.452 80.5947 514.663 81.8296 518.914 82.894C523.075 83.936 527.265 84.8642 531.426 85.9055C535.294 86.874 539.189 87.7537 542.925 89.2C544.123 89.6636 545.392 89.9476 546.638 90.281C546.986 90.3742 547.478 90.5335 547.573 89.9628C547.649 89.5131 547.208 89.4942 546.893 89.3922C544.597 88.65 542.217 88.0923 540.032 87.1038C537.512 85.9635 534.766 85.7171 532.235 84.7201C547.055 87.7608 560.703 94.0351 574.381 100.219C571.671 99.1212 568.953 98.0429 566.253 96.9202C561.042 94.7531 555.852 92.5325 550.621 90.4156C549.97 90.1526 548.624 89.6616 548.494 90.2509C548.289 91.1841 549.625 91.4308 550.369 91.7317C553.958 93.1845 557.628 94.4397 561.202 95.9287C565.69 97.7986 570.059 99.9612 574.579 101.747C578.431 103.269 582.162 105.001 585.749 107.045C588.712 108.734 591.495 110.786 594.571 112.22C598.352 113.982 601.611 116.499 605.024 118.778C608.486 121.091 611.786 123.676 614.953 126.641C613.921 127.085 613.344 126.437 612.817 126.091C610.047 124.276 607.318 122.397 604.609 120.49C602.583 119.064 600.208 118.237 598.25 116.7C595.889 114.847 593.122 113.734 590.467 112.409C589.372 111.863 588.311 111.254 587.305 110.51C585.074 108.858 582.549 107.667 580.15 106.286C578.226 105.179 575.945 104.944 574.222 103.351C572.381 101.651 569.751 101.3 567.477 100.518C564.245 99.4055 561.216 97.91 558.101 96.5834C553.269 94.5257 548.528 92.2346 543.622 90.3752C540.504 89.1936 537.192 88.4342 533.905 87.8107C529.812 87.0336 525.81 85.9031 521.746 85.0231C518.423 84.3037 515.136 83.3738 511.881 82.4589C508.005 81.3697 503.993 80.9861 500.135 79.7564C498.521 79.2419 496.573 78.8072 494.658 78.8705C493.113 78.9214 491.675 78.0061 490.1 77.7441C485.749 77.0213 481.451 75.9603 477.094 75.2924C473.228 74.6997 469.307 74.4689 465.413 74.0531C460.552 73.534 455.767 72.3388 450.876 72.1687C448.728 72.0938 446.651 71.6014 444.588 71.2561C443.522 71.0778 442.533 71.2219 441.521 71.1073C436.286 70.5153 431.035 70.1602 425.766 70.0514C425.212 70.0399 424.661 69.8647 424.108 69.7674C422.923 69.5594 421.846 69.2415 420.526 69.7044C419.045 70.2242 417.533 69.0497 415.939 68.9728C412.437 68.8037 408.921 68.2754 405.444 68.6766C404.31 68.8074 403.129 68.8755 401.982 69.0605C401.186 69.189 400.948 68.1212 399.835 68.3269C398.12 68.6434 396.286 69.6468 394.481 68.4987C387.501 69.7867 380.455 68.8294 373.446 69.1341C368.82 69.335 364.191 69.0565 359.563 69.4133C354.986 69.7664 350.385 70.1365 345.804 70.0514C340.497 69.9528 335.262 70.8305 329.94 70.6953C325.62 70.5851 321.277 71.5868 316.937 72.0202C313.599 72.3537 310.315 73.1324 306.911 72.9864C305.432 72.923 303.928 73.4591 302.435 73.7221C297.912 74.5177 293.343 75.1467 288.869 76.0901C284.208 77.0728 279.512 77.9275 274.825 78.5113C271.41 78.9363 268.119 80.2741 264.598 79.9651C263.84 79.8987 263.471 80.8658 262.618 81.0522C258.402 81.9743 254.186 82.9319 250.03 84.0925C246.786 84.9987 243.655 86.3037 240.428 87.2796C237.15 88.2712 233.887 89.2946 230.494 89.9428C228.184 90.3844 225.834 91.0398 223.694 92.2505C222.336 93.0191 220.805 93.5728 219.283 93.9442C214.005 95.2319 209.258 97.8216 204.256 99.786C198.898 101.89 193.947 104.726 188.868 107.355C184.832 109.443 180.864 111.637 176.99 113.997C175.848 114.693 174.537 114.432 173.442 115.205C168.258 118.859 162.903 122.251 157.8 126.041C153.368 129.333 149.125 132.866 144.96 136.434C141.165 139.684 137.481 143.164 134.123 146.937C131.626 149.744 128.918 152.365 126.278 155.042C125.295 156.04 124.675 157.295 123.774 158.37C121.483 161.104 119.097 163.755 116.824 166.491C114.004 169.885 111.724 173.724 109.124 177.307C107.942 178.935 106.783 180.612 105.238 181.934C104.174 182.844 103.706 184.117 103.035 185.262C100.968 188.775 98.372 191.953 96.5557 195.623C94.0209 200.742 91.4556 205.845 88.9073 210.956C87.2096 214.362 85.8067 217.922 84.6986 221.524C83.377 225.815 82.2248 230.193 80.6897 234.389C79.568 237.448 78.8428 240.601 77.7618 243.658C76.0641 248.457 75.1458 253.47 74.1088 258.449C72.9363 264.093 72.8245 269.898 71.635 275.492C71.0725 278.142 70.7303 280.812 70.8014 283.367C70.859 285.503 69.4764 287.096 69.656 289.197C69.7543 290.36 69.7611 291.624 69.7408 292.839C69.6967 295.549 69.5374 298.259 69.368 300.966C69.2833 302.358 69.3578 303.732 69.5307 305.108C69.6222 305.832 69.8119 306.557 69.4967 307.276C69.3307 307.651 69.4392 308.327 68.7716 308.181C68.3921 308.097 68.3175 307.615 68.3073 307.191C68.1718 301.117 68.2971 295.047 68.6089 288.981C68.9207 282.949 69.8661 276.992 70.9065 271.057C71.6791 266.639 72.2857 262.19 73.1091 257.792C73.8004 254.086 74.7459 250.39 75.5693 246.7C76.4538 242.718 77.894 238.918 78.8361 234.962C79.6358 231.62 80.6694 228.306 81.8791 225.05C82.9838 222.071 83.7599 218.948 85.0882 216.056C87.4434 210.917 89.4529 205.619 92.2418 200.675C94.6885 196.345 96.8539 191.853 99.4056 187.59C101.971 183.31 104.739 179.168 108.128 175.422C109.782 173.591 111.1 171.369 112.642 169.379C115.699 165.428 118.809 161.518 121.927 157.612C122.764 156.56 123.753 155.625 124.567 154.554C125.001 153.986 125.827 153.482 125.37 152.526L125.339 152.555Z" fill="#DFD4BF"/>
<path d="M415.473 527.057C416.875 526.224 418.425 526.37 419.861 526.293C423.095 526.121 426.318 525.891 429.527 525.479C435.12 524.761 440.683 523.769 446.334 523.593C450.329 523.468 454.274 522.87 458.215 522.305C464.051 521.468 469.893 520.635 475.658 519.381C478.239 518.819 480.806 518.195 483.401 517.681C486.909 516.986 490.358 515.831 493.893 515.47C497.994 515.051 501.602 513.049 505.585 512.428C509.989 511.741 514.228 510.405 518.543 509.369C523.494 508.18 528.337 506.647 533.161 504.994C536.592 503.819 540.062 502.691 543.54 501.623C545.881 500.904 548.177 500.009 550.397 498.933C551.709 498.296 553.077 497.743 554.469 497.311C556.136 496.793 557.634 495.711 559.284 495.406C562.128 494.88 564.176 492.821 566.913 492.019C569.305 491.318 571.618 489.997 573.91 488.831C576.644 487.441 579.495 486.246 582.099 484.648C584.607 483.109 587.126 481.585 589.683 480.136C594.192 477.581 598.278 474.389 602.667 471.671C606.444 469.332 610.087 466.795 613.567 464.082C616.34 461.92 618.913 459.43 621.769 457.39C627.364 453.392 631.72 448.067 636.962 443.693C638.593 442.333 640.651 441.292 641.796 439.412C644.815 434.458 649.569 430.955 652.738 426.122C654.011 424.179 655.756 422.495 657.036 420.62C658.881 417.919 660.719 415.178 662.604 412.505C665.516 408.377 667.675 403.861 670.102 399.477C671.5 396.951 673.19 394.585 674.593 392.061C675.562 390.318 676.304 388.444 677.077 386.599C679.272 381.362 681.464 376.124 683.583 370.857C684.141 369.469 684.252 367.892 684.873 366.542C686.866 362.215 687.574 357.504 689.071 353.029C690.304 349.343 691.231 345.542 692.084 341.744C692.65 339.219 692.705 336.58 693.252 334.049C693.729 331.847 693.621 329.531 694.625 327.415C694.904 326.828 694.608 325.984 694.635 325.259C694.759 322.005 695.54 318.83 695.949 315.612C696.45 311.666 696.122 307.755 696.372 303.838C696.506 301.734 696.699 299.623 696.643 297.52C696.57 294.746 696.405 291.96 696.039 289.212C695.77 287.196 695.611 285.081 695.865 283.199C696.397 279.257 694.859 275.77 694.333 272.076C693.751 267.979 693.143 263.883 692.636 259.776C692.438 258.178 691.678 256.704 691.71 255.042C692.69 254.973 693.003 255.591 693.024 256.394C693.134 260.458 694.814 264.242 695.142 268.256C695.442 271.935 696.526 275.472 696.654 279.224C696.733 281.529 696.984 283.961 697.095 286.292C697.301 290.614 698.565 294.831 698.052 299.231C697.482 304.129 697.189 309.064 696.919 313.991C696.674 318.455 696.017 322.874 695.635 327.324C695.19 332.495 694.134 337.633 692.622 342.586C691.538 346.137 690.863 349.767 689.829 353.312C688.618 357.466 687.275 361.582 686.072 365.739C684.761 370.265 683.01 374.64 681.269 378.993C680.178 381.721 678.926 384.443 677.856 387.175C676.908 389.597 675.698 391.908 674.637 394.245C673.477 396.801 672.192 399.388 670.624 401.792C669.44 403.607 668.654 405.676 667.574 407.566C665.123 411.851 662.394 415.983 659.239 419.761C655.435 424.316 652.033 429.195 648.046 433.594C646.101 435.74 643.962 437.71 642.008 439.849C640.531 441.466 639.111 443.14 637.441 444.554C633.995 447.472 631.424 451.284 627.793 453.995C623.575 457.145 619.603 460.613 615.211 463.544C613.205 464.883 611.57 466.79 609.534 468.068C605.524 470.586 602.068 473.852 597.87 476.155C595.329 477.55 592.853 479.255 590.372 480.805C584.765 484.305 579.248 488.063 573.06 490.524C569.848 491.802 567.11 493.949 563.817 495.076C557.05 497.392 550.824 501.026 543.865 502.979C539.752 504.133 535.816 505.985 531.63 507.053C526.983 508.239 522.515 510.092 517.791 510.982C513.856 511.725 510.035 513.02 505.984 513.239C504.753 513.306 503.589 514.204 502.341 514.449C497.479 515.404 492.771 516.957 487.964 518.123C483.929 519.101 479.864 519.872 475.831 520.789C471.276 521.825 466.652 522.389 462.095 523.369C458.756 524.086 455.283 524.024 451.888 524.417C448.774 524.777 445.653 524.461 442.5 525.397C439.451 526.302 436.055 526.069 432.816 526.335C430.341 526.539 427.837 526.587 425.367 526.984C422.084 527.51 418.773 527.061 415.473 527.057Z" fill="#DFD4BF"/>
<path d="M125.361 152.529C123.954 152.642 123.32 153.799 122.577 154.713C118.197 160.11 114.064 165.703 109.718 171.123C106.838 174.714 104.235 178.501 101.449 182.154C99.3607 184.892 97.8741 188.095 96.1726 191.12C93.6711 195.569 90.9018 199.907 88.8594 204.561C87.6029 207.423 85.9973 210.14 85.0207 213.147C84.1657 215.78 82.9275 218.287 81.9773 220.893C80.2504 225.63 79.0464 230.524 77.6773 235.371C75.8783 241.741 74.0263 248.105 72.7549 254.587C71.8288 259.308 70.9673 264.063 70.5109 268.888C70.0886 273.35 68.9751 277.743 68.4485 282.2C68.0239 285.792 67.498 289.397 67.6671 293.044C67.6969 293.681 67.4763 294.329 67.2414 294.955C66.6867 290.596 67.0059 286.265 67.5735 281.958C67.9188 279.333 67.6542 276.691 68.0846 274.071C68.7101 270.261 69.0795 266.428 69.9772 262.642C70.5848 260.08 71.1493 257.451 71.4628 254.816C71.8684 251.408 73.0961 248.195 73.636 244.831C74.4638 239.678 76.1904 234.765 77.5523 229.755C77.8864 228.526 78.4635 227.393 79.1562 226.272C79.7807 225.26 79.4141 223.84 79.9769 222.604C81.4256 219.422 82.6069 216.114 83.8892 212.865C85.0234 209.993 86.1546 207.119 87.4911 204.346C90.5321 198.035 93.9398 191.923 97.747 186.034C99.9083 182.69 101.834 179.192 104.052 175.888C106.974 171.535 110.071 167.322 113.543 163.353C116.754 159.682 119.674 155.742 122.961 152.125C129.055 145.419 135 138.576 141.967 132.705C149.367 126.47 156.904 120.403 165.324 115.628C170.241 112.84 174.956 109.729 179.862 106.924C184.111 104.493 188.487 102.342 192.833 100.135C195.82 98.6179 198.942 97.2794 202.033 96.03C205.468 94.6416 208.876 93.1448 212.356 91.8503C212.972 91.6209 213.518 91.5386 214.134 92.0957C212.902 93.199 211.456 93.7788 210.028 94.0862C206.991 94.7392 204.427 96.3827 201.698 97.6759C197.035 99.885 192.394 102.138 187.776 104.441C183.663 106.492 179.456 108.407 175.544 110.797C171.095 113.514 166.424 115.863 162.167 118.902C155.849 123.412 149.824 128.265 144.018 133.429C139.282 137.641 134.774 142.083 130.145 146.4C128.5 147.935 126.963 149.611 125.637 151.453C125.397 151.786 125.247 152.138 125.329 152.558C125.329 152.558 125.361 152.529 125.361 152.529Z" fill="#DFD4BF"/>
<path d="M652.328 416.961C660.779 404.283 668.23 391.172 673.861 376.908C679.478 362.679 683.564 348.123 686.869 333.256C685.834 337.316 686.142 341.596 684.441 345.559C683.503 347.743 683.436 350.292 682.871 352.664C681.54 358.258 680.331 363.858 677.897 369.131C676.855 371.39 676.363 373.897 675.491 376.244C674.976 377.629 674.15 378.896 673.578 380.264C673.223 381.114 673.201 382.106 672.825 382.942C671.122 386.729 669.533 390.56 667.553 394.232C664.959 399.044 661.973 403.574 658.909 408.085C657.055 410.813 655.479 413.735 653.414 416.33C653.184 416.619 652.942 416.899 652.706 417.183C652.58 417.109 652.454 417.035 652.328 416.961Z" fill="#DFD4BF"/>
<path d="M687.076 331.772C686.797 330.218 686.977 328.721 687.225 327.222C687.482 325.676 687.469 324.004 687.911 322.588C688.991 319.135 688.264 315.527 689.235 312.064C689.589 310.805 689.026 309.201 689.189 307.698C689.509 304.745 689.977 301.794 689.804 298.8C689.601 295.286 689.287 291.769 689.294 288.254C689.309 281.562 688.56 274.94 687.673 268.335C687.022 263.489 685.613 258.786 684.472 254.035C684.37 253.608 684.049 253.2 684.244 252.735C684.324 252.544 684.49 252.328 684.669 252.255C685.011 252.115 685.132 252.362 685.227 252.67C685.558 253.74 686.042 254.778 686.249 255.868C687.033 259.992 687.848 264.117 688.41 268.274C688.684 270.304 689.086 272.314 688.91 274.468C688.763 276.26 689.291 278.242 689.644 280.095C690.578 284.994 690.31 289.895 690.301 294.818C690.294 298.446 690.272 302.083 690.351 305.714C690.395 307.79 690.129 309.999 689.968 312.126C689.736 315.188 689.546 318.264 689.188 321.312C688.774 324.847 688.55 328.445 687.076 331.772Z" fill="#DFD4BF"/>
<path d="M628.14 142.217C627.274 141.598 626.317 141.111 625.615 140.38C621.445 136.04 616.303 132.955 611.57 129.342C606.796 125.698 601.935 122.192 596.789 119.084C596.474 118.894 595.409 118.762 595.926 118.013C596.317 117.447 596.858 118.138 597.204 118.4C600.013 120.524 603.099 122.263 606.082 124.066C609.816 126.324 613.5 128.667 616.871 131.36C619.788 133.689 623.05 135.729 625.267 138.908C625.883 139.791 626.939 140.362 627.771 141.101C628.04 141.34 628.458 141.56 628.14 142.217Z" fill="#DFD4BF"/>
<path d="M698.267 322.407C698.45 319.904 698.713 317.404 698.801 314.897C698.995 309.406 699.113 303.912 699.578 298.434C699.611 298.047 699.526 297.646 699.469 297.256C699.423 296.936 698.929 296.571 699.556 296.336C700.035 296.156 700.568 296.004 700.974 296.43C701.271 296.743 701.268 297.283 700.961 297.512C700.287 298.014 700.386 298.698 700.386 299.341C700.387 303.706 699.932 308.051 699.826 312.402C699.785 314.127 699.663 315.828 699.455 317.521C699.253 319.175 698.839 320.802 698.519 322.44L698.267 322.407Z" fill="#DFD4BF"/>
<path d="M71.2258 327.114C70.5606 325.754 71.5568 323.401 70.3918 321.308C69.6107 319.91 70.2759 318.136 69.2565 316.599C68.9454 316.131 69.1275 314.301 69.4948 313.198C70.4977 310.159 70.031 307.087 70.0839 303.997C70.1733 298.432 68.8759 292.901 69.6967 287.343C70.3256 283.091 70.0806 278.695 71.1993 274.574C71.8414 272.202 71.5072 269.697 72.6259 267.425C73.1985 266.26 72.6887 264.84 72.9568 263.525C73.8074 259.37 74.764 255.24 75.6808 251.102C76.8193 245.947 77.8817 240.748 79.348 235.7C80.3806 232.138 81.2643 228.503 82.5585 224.994C85.2195 217.772 88.4763 210.814 91.6272 203.807C93.8845 198.779 96.8533 194.134 99.703 189.434C103.254 183.573 106.746 177.672 110.771 172.11C113.376 168.511 116.268 165.156 119.224 161.853C122.812 157.846 126.287 153.728 130.05 149.892C135.736 144.099 141.366 138.251 147.526 132.924C151.974 129.076 157.081 126.149 161.556 122.392C164.879 119.601 168.933 117.993 172.25 115.23C173.027 114.582 174.133 114.345 175.027 113.821C178.389 111.856 181.649 109.705 185.101 107.915C187.18 106.836 189.421 106.026 191.539 104.986C194.703 103.434 197.804 101.74 201.031 100.336C204.993 98.6105 209.031 97.0394 213.092 95.5523C218.186 93.6866 223.395 92.1241 228.449 90.1544C233.987 87.9948 239.858 87.1525 245.495 85.4258C248.864 84.3938 252.382 83.944 255.699 82.8151C257.757 82.1154 260.16 82.5139 261.904 80.8603C266.052 80.7756 270.003 79.4768 274.074 78.889C280.525 77.9583 286.91 76.5825 293.344 75.5359C296.942 74.9511 300.648 74.9395 304.187 74.1425C307.903 73.3055 311.64 72.7269 315.397 72.531C321.801 72.1967 328.179 71.5185 334.564 71.0065C342.173 70.3962 349.802 70.2512 357.401 69.6561C360.415 69.4198 363.439 69.4503 366.458 69.0892C370.768 68.5735 375.148 68.4838 379.493 68.7128C385.434 69.0263 391.376 68.8876 397.314 68.8562C399.608 68.8436 401.932 68.8909 404.252 68.7125C406.113 68.5695 408.317 68.9376 410.262 69.4016C412.631 69.9669 414.96 69.4833 417.292 69.7746C422.071 70.372 426.929 69.8729 431.676 70.4445C436.016 70.9671 440.384 71.318 444.713 71.9835C447.797 72.4572 450.933 72.5922 454.047 72.8649C458.208 73.2293 462.315 74.024 466.458 74.4758C469.824 74.8429 473.095 75.7451 476.565 75.7074C478.582 75.6855 480.717 76.735 482.859 77.1312C486.574 77.818 490.209 79.0214 493.943 79.4977C497.227 79.9164 500.191 81.281 503.376 81.942C506.127 82.5126 508.924 83.018 511.587 83.8534C514.294 84.7026 517.093 85.074 519.797 85.9206C523.397 87.0483 527.169 87.6304 530.764 88.7707C533.861 89.7533 537.031 90.4365 540.128 91.391C540.523 91.5128 540.714 91.8491 540.989 92.1115C541.559 92.6563 542.107 93.3136 543.078 92.5911C543.593 92.2085 544.233 92.6626 544.803 92.8586C547.557 93.8051 549.92 95.6516 552.764 96.3722C557.366 97.5379 561.542 99.771 565.753 101.809C570.293 104.006 575.138 105.5 579.446 108.279C583.794 111.084 588.571 113.218 593.027 115.869C595.095 117.1 596.736 119.035 598.766 120.347C603.878 123.653 608.448 127.681 613.278 131.343C615.194 132.795 617.214 134.386 619.046 136.102C622.455 139.296 625.595 142.755 629.041 145.902C630.716 147.432 632.478 148.882 634.019 150.537C635.465 152.092 636.604 153.929 637.998 155.538C644.373 162.895 650.389 170.518 655.67 178.711C658.549 183.179 661.619 187.525 664.434 192.031C666.19 194.842 667.68 197.825 669.197 200.779C670.12 202.578 671.522 204.077 672.232 206.014C673.522 209.535 675.893 212.53 676.636 216.385C677.335 220.009 678.927 223.441 680.532 226.832C681.286 228.425 681.59 230.337 682.097 232.106C682.921 234.984 684.066 237.764 684.835 240.634C685.306 242.398 685.808 244.184 686.183 245.985C686.344 246.755 686.485 247.493 687.028 248.093C687.292 248.385 687.485 248.697 687.456 249.123C687.221 252.585 688.666 255.752 689.175 259.076C689.53 261.396 689.811 263.751 690.397 266C690.798 267.538 690.111 269.315 691.495 270.692C691.838 271.033 691.263 271.997 691.309 272.793C691.539 276.702 692.026 280.581 692.387 284.475C692.654 287.355 692.652 290.261 692.772 293.155C692.933 297.012 693.234 300.87 693.213 304.727C693.196 307.748 692.846 310.776 692.501 313.784C692.4 314.664 692.328 315.535 692.353 316.405C692.421 318.738 691.692 320.94 691.344 323.204C690.703 327.374 690.169 331.565 689.729 335.762C689.441 338.512 688.273 341.051 687.991 343.78C687.557 347.978 685.522 351.75 684.829 355.855C684.472 357.97 683.242 359.91 683.628 362.179C683.739 362.828 682.944 363.179 682.721 363.832C680.63 369.948 678.512 376.056 676.274 382.119C674.327 387.394 671.729 392.369 669.118 397.348C667.936 399.601 666.835 401.951 665.672 404.211C664.613 406.269 663.448 408.355 662.123 410.316C659.877 413.64 657.634 416.992 655.729 420.516C652.415 426.645 647.673 431.705 643.667 437.312C642.17 439.408 639.987 440.809 638.433 442.874C635.701 446.504 632.141 449.427 629.383 453.052C628.493 454.221 627.055 454.678 626.033 455.677C623.397 458.253 620.417 460.426 617.626 462.82C616.014 464.203 614.519 465.73 613.032 467.251C611.71 468.603 609.93 469.258 608.49 470.445C605.106 473.233 601.313 475.468 597.841 478.153C596.296 479.347 594.227 480.189 592.934 481.414C591.273 482.989 588.58 482.717 587.466 484.99C587.332 485.264 586.076 485.134 585.288 485.63C581.365 488.1 577.178 490.105 573.044 492.2C569.033 494.233 565.06 496.352 560.982 498.242C557.901 499.67 554.597 500.628 551.624 502.29C546.37 505.226 540.549 506.511 534.897 508.316C531.308 509.462 527.898 511.131 524.237 512.108C521.966 512.714 519.756 513.558 517.477 514.129C513.123 515.219 508.739 516.189 504.369 517.21C499.323 518.389 494.291 519.636 489.227 520.728C485.673 521.494 482.166 522.43 478.56 523.032C473.482 523.878 468.409 524.828 463.351 525.83C460.765 526.343 458.057 526.212 455.414 526.474C450.216 526.989 445.031 527.648 439.828 528.11C435.396 528.503 431.004 529.239 426.552 529.483C422.953 529.679 419.376 530.253 415.778 530.522C412.9 530.737 410.007 530.729 407.119 530.879C400.97 531.198 394.802 531.171 388.658 531.556C386.231 531.708 383.777 531.424 381.319 532.101C380.373 532.362 378.938 531.581 377.697 531.741C374.402 532.163 371.117 532.222 367.824 531.751C363.631 531.152 359.4 531.486 355.187 531.239C349.937 530.932 344.682 530.817 339.442 530.213C335.801 529.794 332.124 529.607 328.45 529.418C324.148 529.197 319.872 528.457 315.579 528.006C310.793 527.503 305.99 527.174 301.218 526.57C298.305 526.201 295.489 525.242 292.543 524.905C288.022 524.387 283.504 523.809 279.013 523.079C276.911 522.737 274.783 522.156 272.717 521.959C269.404 521.643 266.267 520.617 263.205 519.69C259.925 518.698 256.609 517.734 253.316 516.75C248.278 515.245 243.092 514.228 238.087 512.622C234.996 511.628 231.852 510.759 228.79 509.567C225.447 508.265 222.005 507.113 218.603 505.909C213.502 504.105 208.501 502.06 203.563 499.824C199.118 497.811 194.875 495.346 190.301 493.653C187.16 492.49 184.655 490.289 181.639 488.954C178.234 487.445 175.305 485.135 172.19 483.138C170.446 482.02 168.632 480.99 166.782 480.058C164.928 479.125 163.178 478.046 161.781 476.533C160.394 475.029 158.375 474.615 156.853 473.33C153.88 470.823 150.551 468.812 147.691 466.079C145.268 463.765 142.581 461.499 139.361 460.151C139.102 460.042 138.904 459.913 138.738 459.663C135.799 455.238 131.599 451.988 127.846 448.355C126.287 446.85 125.284 445.023 123.808 443.51C121.259 440.895 119.287 437.784 116.609 435.23C115.431 434.106 114.686 432.371 113.69 430.945C112.025 428.566 110.337 426.209 108.524 423.942C106.23 421.08 104.284 417.968 102.48 414.793C100.537 411.372 98.7035 407.868 96.6746 404.513C94.4935 400.907 92.6499 397.127 90.5184 393.502C89.3434 391.506 88.8801 389.136 87.7647 387.055C84.8455 381.601 83.0119 375.707 80.8506 369.937C79.3811 366.023 78.2326 362.003 77.1602 358.019C75.7238 352.69 73.9862 347.398 73.632 341.749C73.45 338.829 72.3909 335.881 71.9904 332.894C71.7653 331.216 71.5469 329.538 71.2258 327.114Z" fill="#181818"/>
</g>
<defs>
<filter id="filter0_d_15_37537" x="0.231932" y="0.232052" width="764.408" height="598.865" filterUnits="userSpaceOnUse" color-interpolation-filters="sRGB">
<feFlood flood-opacity="0" result="BackgroundImageFix"/>
<feColorMatrix in="SourceAlpha" type="matrix" values="0 0 0 0 0 0 0 0 0 0 0 0 0 0 0 0 0 0 127 0" result="hardAlpha"/>
<feOffset/>
<feGaussianBlur stdDeviation="26.884"/>
<feComposite in2="hardAlpha" operator="out"/>
<feColorMatrix type="matrix" values="0 0 0 0 0 0 0 0 0 0 0 0 0 0 0 0 0 0 0.25 0"/>
<feBlend mode="normal" in2="BackgroundImageFix" result="effect1_dropShadow_15_37537"/>
<feBlend mode="normal" in="SourceGraphic" in2="effect1_dropShadow_15_37537" result="shape"/>
</filter>
</defs>
</svg>
