<svg width="78" height="58" viewBox="0 0 78 58" fill="none" xmlns="http://www.w3.org/2000/svg">
<mask id="path-1-inside-1_1_7" fill="white">
<path d="M1.12643 32.637C1.04486 32.4702 1.16701 32.1816 1.02416 31.925C0.928386 31.7536 1.00995 31.5361 0.88496 31.3477C0.846813 31.2903 0.869137 31.0658 0.914184 30.9306C1.03715 30.558 0.979924 30.1813 0.986417 29.8025C0.997374 29.1201 0.838293 28.442 0.938939 27.7605C1.01605 27.239 0.986011 26.7 1.12318 26.1948C1.20191 25.904 1.16092 25.5968 1.29809 25.3182C1.3683 25.1753 1.30581 25.0012 1.33868 24.84C1.44297 24.3305 1.56026 23.8241 1.67267 23.3168C1.81228 22.6847 1.94254 22.0472 2.12233 21.4282C2.24894 20.9914 2.3573 20.5458 2.51598 20.1155C2.84227 19.2299 3.2416 18.3768 3.62795 17.5176C3.90472 16.9011 4.26874 16.3315 4.61816 15.7553C5.05361 15.0367 5.48176 14.3131 5.97525 13.6311C6.29463 13.1898 6.64933 12.7784 7.01173 12.3735C7.45165 11.8822 7.87776 11.3772 8.33919 10.9068C9.0364 10.1965 9.72671 9.47943 10.482 8.82633C11.0274 8.35452 11.6536 7.99556 12.2023 7.53487C12.6097 7.19268 13.1068 6.99552 13.5135 6.6567C13.6088 6.57728 13.7444 6.54826 13.854 6.48402C14.2663 6.24308 14.666 5.97925 15.0893 5.75982C15.3442 5.62752 15.6189 5.52818 15.8786 5.40071C16.2666 5.21037 16.6469 5.00263 17.0425 4.83048C17.5283 4.61896 18.0234 4.42632 18.5214 4.24398C19.146 4.01521 19.7847 3.82362 20.4044 3.58212C21.0834 3.31731 21.8033 3.21403 22.4944 3.00231C22.9076 2.87577 23.339 2.82062 23.7456 2.68219C23.998 2.5964 24.2926 2.64526 24.5065 2.44251C25.015 2.43212 25.4996 2.27288 25.9987 2.2008C26.7897 2.08668 27.5725 1.91798 28.3615 1.78966C28.8026 1.71795 29.2571 1.71653 29.691 1.61881C30.1467 1.51617 30.6049 1.44523 31.0655 1.42121C31.8508 1.38022 32.6328 1.29707 33.4156 1.23429C34.3486 1.15945 35.2841 1.14168 36.2158 1.06871C36.5855 1.03973 36.9562 1.04347 37.3264 0.999191C37.8548 0.935963 38.3918 0.924967 38.9246 0.95305C39.6531 0.991482 40.3817 0.974477 41.1098 0.970622C41.3911 0.96908 41.676 0.974882 41.9605 0.953008C42.1887 0.935476 42.4589 0.980606 42.6974 1.0375C42.9879 1.10682 43.2734 1.04752 43.5594 1.08324C44.1454 1.15649 44.741 1.09529 45.323 1.16538C45.8552 1.22946 46.3908 1.27247 46.9217 1.35409C47.2998 1.41216 47.6843 1.42872 48.0661 1.46216C48.5763 1.50684 49.0799 1.60428 49.5879 1.65968C50.0006 1.70468 50.4017 1.81531 50.8272 1.81068C51.0745 1.80801 51.3363 1.93669 51.5989 1.98527C52.0544 2.06948 52.5001 2.21704 52.9579 2.27544C53.3606 2.32677 53.7241 2.4941 54.1146 2.57514C54.4519 2.6451 54.7949 2.70707 55.1214 2.80951C55.4534 2.91364 55.7965 2.95917 56.1281 3.06298C56.5695 3.20125 57.0319 3.27263 57.4728 3.41244C57.8526 3.53293 58.2411 3.61669 58.621 3.73373C58.6694 3.74867 58.6928 3.7899 58.7265 3.82208C58.7964 3.88888 58.8636 3.96948 58.9827 3.88089C59.0458 3.83397 59.1242 3.88965 59.1942 3.91368C59.5319 4.02975 59.8216 4.25616 60.1704 4.3445C60.7346 4.48744 61.2467 4.76125 61.763 5.01116C62.3196 5.28058 62.9137 5.46369 63.4419 5.80446C63.9751 6.14844 64.5608 6.41 65.1072 6.73511C65.3608 6.88603 65.5619 7.12328 65.8108 7.28423C66.4377 7.68953 66.998 8.18338 67.5903 8.63243C67.8251 8.81051 68.0729 9.00555 68.2975 9.21593C68.7155 9.60759 69.1005 10.0318 69.5231 10.4176C69.7284 10.6052 69.9445 10.783 70.1334 10.986C70.3108 11.1766 70.4503 11.4019 70.6213 11.5991C71.403 12.5012 72.1407 13.436 72.7882 14.4405C73.1412 14.9883 73.5176 15.5212 73.8627 16.0737C74.0781 16.4184 74.2608 16.7842 74.4467 17.1463C74.56 17.367 74.7319 17.5508 74.8189 17.7882C74.977 18.2199 75.2678 18.5872 75.3589 19.0599C75.4446 19.5042 75.6398 19.9251 75.8366 20.3408C75.9291 20.5361 75.9663 20.7706 76.0285 20.9875C76.1295 21.3405 76.27 21.6813 76.3642 22.0332C76.422 22.2495 76.4835 22.4685 76.5295 22.6893C76.5492 22.7837 76.5666 22.8742 76.6331 22.9477C76.6655 22.9836 76.6891 23.0218 76.6856 23.0741C76.6568 23.4985 76.834 23.8869 76.8963 24.2944C76.9399 24.5789 76.9744 24.8677 77.0462 25.1435C77.0953 25.332 77.0111 25.5499 77.1809 25.7188C77.2229 25.7606 77.1523 25.8788 77.1581 25.9764C77.1862 26.4557 77.2459 26.9313 77.2902 27.4087C77.3229 27.7619 77.3227 28.1182 77.3374 28.473C77.3571 28.946 77.3941 29.4191 77.3915 29.8919C77.3894 30.2624 77.3465 30.6336 77.3042 31.0025C77.2918 31.1104 77.2829 31.2171 77.2861 31.3239C77.2944 31.61 77.205 31.8799 77.1623 32.1575C77.0837 32.6689 77.0183 33.1827 76.9643 33.6973C76.9289 34.0345 76.7857 34.3459 76.7511 34.6805C76.6979 35.1952 76.4484 35.6577 76.3635 36.161C76.3198 36.4204 76.1689 36.6583 76.2162 36.9365C76.2298 37.0161 76.1323 37.0591 76.105 37.1392C75.8487 37.8891 75.5889 38.638 75.3145 39.3814C75.0757 40.0282 74.7572 40.6382 74.437 41.2487C74.2922 41.525 74.1571 41.8131 74.0145 42.0902C73.8846 42.3426 73.7419 42.5983 73.5794 42.8388C73.3039 43.2464 73.0289 43.6574 72.7954 44.0894C72.3891 44.8409 71.8075 45.4614 71.3164 46.1488C71.1328 46.4059 70.8652 46.5777 70.6746 46.8309C70.3396 47.2759 69.9032 47.6344 69.565 48.0788C69.4558 48.2223 69.2795 48.2782 69.1542 48.4007C68.831 48.7166 68.4655 48.983 68.1234 49.2766C67.9257 49.4462 67.7424 49.6334 67.5601 49.8199C67.398 49.9856 67.1797 50.066 67.0031 50.2115C66.5882 50.5534 66.1232 50.8274 65.6974 51.1567C65.508 51.3031 65.2544 51.4062 65.0958 51.5565C64.8921 51.7496 64.5619 51.7162 64.4253 51.995C64.4089 52.0286 64.2548 52.0126 64.1583 52.0734C63.6773 52.3763 63.1638 52.6221 62.6569 52.879C62.1651 53.1283 61.678 53.3881 61.1779 53.6199C60.8002 53.7949 60.3951 53.9124 60.0305 54.1162C59.3863 54.4761 58.6725 54.6337 57.9796 54.855C57.5394 54.9955 57.1214 55.2002 56.6725 55.32C56.394 55.3943 56.1231 55.4978 55.8436 55.5678C55.3098 55.7015 54.7722 55.8204 54.2363 55.9456C53.6176 56.0902 53.0007 56.2431 52.3797 56.377C51.9439 56.4709 51.514 56.5857 51.0717 56.6594C50.4492 56.7632 49.8271 56.8797 49.207 57.0026C48.8898 57.0654 48.5578 57.0494 48.2337 57.0815C47.5964 57.1447 46.9606 57.2255 46.3227 57.2821C45.7792 57.3303 45.2407 57.4206 44.6948 57.4504C44.2535 57.4745 43.8149 57.5449 43.3738 57.5778C43.0208 57.6042 42.6661 57.6032 42.3121 57.6216C41.5581 57.6608 40.8018 57.6575 40.0484 57.7046C39.7508 57.7232 39.4499 57.6884 39.1486 57.7715C39.0326 57.8035 38.8566 57.7078 38.7045 57.7273C38.3004 57.7791 37.8976 57.7863 37.4939 57.7285C36.9798 57.655 36.461 57.6961 35.9443 57.6658C35.3007 57.6281 34.6562 57.614 34.0138 57.54C33.5674 57.4885 33.1165 57.4656 32.6661 57.4425C32.1385 57.4154 31.6142 57.3247 31.0878 57.2693C30.501 57.2077 29.9121 57.1674 29.3269 57.0933C28.9698 57.0481 28.6244 56.9304 28.2632 56.8891C27.7089 56.8256 27.1549 56.7547 26.6042 56.6652C26.3465 56.6234 26.0856 56.5521 25.8324 56.5279C25.4261 56.4891 25.0414 56.3633 24.666 56.2497C24.2638 56.128 23.8572 56.0098 23.4534 55.8893C22.8357 55.7047 22.1998 55.58 21.5862 55.383C21.2071 55.2611 20.8216 55.1546 20.4462 55.0085C20.0363 54.8488 19.6143 54.7076 19.1971 54.56C18.5717 54.3388 17.9585 54.088 17.353 53.8138C16.808 53.567 16.2877 53.2647 15.7269 53.0572C15.3417 52.9146 15.0345 52.6447 14.6648 52.481C14.2472 52.296 13.8881 52.0127 13.5062 51.7679C13.2923 51.6307 13.0699 51.5045 12.8431 51.3902C12.6158 51.2758 12.4011 51.1435 12.2298 50.9579C12.0598 50.7736 11.8123 50.7228 11.6256 50.5652C11.2611 50.2578 10.8529 50.0113 10.5022 49.6762C10.2052 49.3925 9.87565 49.1145 9.48078 48.9493C9.44912 48.9359 9.42477 48.9201 9.40448 48.8895C9.04411 48.3469 8.52911 47.9484 8.06891 47.503C7.87776 47.3184 7.7548 47.0944 7.5738 46.9088C7.26131 46.5882 7.01944 46.2067 6.69113 45.8936C6.54665 45.7558 6.45534 45.543 6.33318 45.3682C6.12905 45.0764 5.92208 44.7875 5.69969 44.5095C5.41845 44.1586 5.17982 43.7771 4.95865 43.3877C4.72043 42.9682 4.4956 42.5386 4.24683 42.1273C3.97939 41.6851 3.75334 41.2217 3.49199 40.7771C3.34792 40.5324 3.29111 40.2417 3.15434 39.9866C2.79641 39.3178 2.57158 38.5951 2.30657 37.8877C2.12639 37.4078 1.98556 36.9148 1.85407 36.4264C1.67795 35.773 1.46489 35.1241 1.42147 34.4314C1.39915 34.0734 1.26928 33.712 1.22017 33.3456C1.19258 33.1399 1.1658 32.9342 1.12643 32.637Z"/>
</mask>
<path d="M1.12643 32.637C1.04486 32.4702 1.16701 32.1816 1.02416 31.925C0.928386 31.7536 1.00995 31.5361 0.88496 31.3477C0.846813 31.2903 0.869137 31.0658 0.914184 30.9306C1.03715 30.558 0.979924 30.1813 0.986417 29.8025C0.997374 29.1201 0.838293 28.442 0.938939 27.7605C1.01605 27.239 0.986011 26.7 1.12318 26.1948C1.20191 25.904 1.16092 25.5968 1.29809 25.3182C1.3683 25.1753 1.30581 25.0012 1.33868 24.84C1.44297 24.3305 1.56026 23.8241 1.67267 23.3168C1.81228 22.6847 1.94254 22.0472 2.12233 21.4282C2.24894 20.9914 2.3573 20.5458 2.51598 20.1155C2.84227 19.2299 3.2416 18.3768 3.62795 17.5176C3.90472 16.9011 4.26874 16.3315 4.61816 15.7553C5.05361 15.0367 5.48176 14.3131 5.97525 13.6311C6.29463 13.1898 6.64933 12.7784 7.01173 12.3735C7.45165 11.8822 7.87776 11.3772 8.33919 10.9068C9.0364 10.1965 9.72671 9.47943 10.482 8.82633C11.0274 8.35452 11.6536 7.99556 12.2023 7.53487C12.6097 7.19268 13.1068 6.99552 13.5135 6.6567C13.6088 6.57728 13.7444 6.54826 13.854 6.48402C14.2663 6.24308 14.666 5.97925 15.0893 5.75982C15.3442 5.62752 15.6189 5.52818 15.8786 5.40071C16.2666 5.21037 16.6469 5.00263 17.0425 4.83048C17.5283 4.61896 18.0234 4.42632 18.5214 4.24398C19.146 4.01521 19.7847 3.82362 20.4044 3.58212C21.0834 3.31731 21.8033 3.21403 22.4944 3.00231C22.9076 2.87577 23.339 2.82062 23.7456 2.68219C23.998 2.5964 24.2926 2.64526 24.5065 2.44251C25.015 2.43212 25.4996 2.27288 25.9987 2.2008C26.7897 2.08668 27.5725 1.91798 28.3615 1.78966C28.8026 1.71795 29.2571 1.71653 29.691 1.61881C30.1467 1.51617 30.6049 1.44523 31.0655 1.42121C31.8508 1.38022 32.6328 1.29707 33.4156 1.23429C34.3486 1.15945 35.2841 1.14168 36.2158 1.06871C36.5855 1.03973 36.9562 1.04347 37.3264 0.999191C37.8548 0.935963 38.3918 0.924967 38.9246 0.95305C39.6531 0.991482 40.3817 0.974477 41.1098 0.970622C41.3911 0.96908 41.676 0.974882 41.9605 0.953008C42.1887 0.935476 42.4589 0.980606 42.6974 1.0375C42.9879 1.10682 43.2734 1.04752 43.5594 1.08324C44.1454 1.15649 44.741 1.09529 45.323 1.16538C45.8552 1.22946 46.3908 1.27247 46.9217 1.35409C47.2998 1.41216 47.6843 1.42872 48.0661 1.46216C48.5763 1.50684 49.0799 1.60428 49.5879 1.65968C50.0006 1.70468 50.4017 1.81531 50.8272 1.81068C51.0745 1.80801 51.3363 1.93669 51.5989 1.98527C52.0544 2.06948 52.5001 2.21704 52.9579 2.27544C53.3606 2.32677 53.7241 2.4941 54.1146 2.57514C54.4519 2.6451 54.7949 2.70707 55.1214 2.80951C55.4534 2.91364 55.7965 2.95917 56.1281 3.06298C56.5695 3.20125 57.0319 3.27263 57.4728 3.41244C57.8526 3.53293 58.2411 3.61669 58.621 3.73373C58.6694 3.74867 58.6928 3.7899 58.7265 3.82208C58.7964 3.88888 58.8636 3.96948 58.9827 3.88089C59.0458 3.83397 59.1242 3.88965 59.1942 3.91368C59.5319 4.02975 59.8216 4.25616 60.1704 4.3445C60.7346 4.48744 61.2467 4.76125 61.763 5.01116C62.3196 5.28058 62.9137 5.46369 63.4419 5.80446C63.9751 6.14844 64.5608 6.41 65.1072 6.73511C65.3608 6.88603 65.5619 7.12328 65.8108 7.28423C66.4377 7.68953 66.998 8.18338 67.5903 8.63243C67.8251 8.81051 68.0729 9.00555 68.2975 9.21593C68.7155 9.60759 69.1005 10.0318 69.5231 10.4176C69.7284 10.6052 69.9445 10.783 70.1334 10.986C70.3108 11.1766 70.4503 11.4019 70.6213 11.5991C71.403 12.5012 72.1407 13.436 72.7882 14.4405C73.1412 14.9883 73.5176 15.5212 73.8627 16.0737C74.0781 16.4184 74.2608 16.7842 74.4467 17.1463C74.56 17.367 74.7319 17.5508 74.8189 17.7882C74.977 18.2199 75.2678 18.5872 75.3589 19.0599C75.4446 19.5042 75.6398 19.9251 75.8366 20.3408C75.9291 20.5361 75.9663 20.7706 76.0285 20.9875C76.1295 21.3405 76.27 21.6813 76.3642 22.0332C76.422 22.2495 76.4835 22.4685 76.5295 22.6893C76.5492 22.7837 76.5666 22.8742 76.6331 22.9477C76.6655 22.9836 76.6891 23.0218 76.6856 23.0741C76.6568 23.4985 76.834 23.8869 76.8963 24.2944C76.9399 24.5789 76.9744 24.8677 77.0462 25.1435C77.0953 25.332 77.0111 25.5499 77.1809 25.7188C77.2229 25.7606 77.1523 25.8788 77.1581 25.9764C77.1862 26.4557 77.2459 26.9313 77.2902 27.4087C77.3229 27.7619 77.3227 28.1182 77.3374 28.473C77.3571 28.946 77.3941 29.4191 77.3915 29.8919C77.3894 30.2624 77.3465 30.6336 77.3042 31.0025C77.2918 31.1104 77.2829 31.2171 77.2861 31.3239C77.2944 31.61 77.205 31.8799 77.1623 32.1575C77.0837 32.6689 77.0183 33.1827 76.9643 33.6973C76.9289 34.0345 76.7857 34.3459 76.7511 34.6805C76.6979 35.1952 76.4484 35.6577 76.3635 36.161C76.3198 36.4204 76.1689 36.6583 76.2162 36.9365C76.2298 37.0161 76.1323 37.0591 76.105 37.1392C75.8487 37.8891 75.5889 38.638 75.3145 39.3814C75.0757 40.0282 74.7572 40.6382 74.437 41.2487C74.2922 41.525 74.1571 41.8131 74.0145 42.0902C73.8846 42.3426 73.7419 42.5983 73.5794 42.8388C73.3039 43.2464 73.0289 43.6574 72.7954 44.0894C72.3891 44.8409 71.8075 45.4614 71.3164 46.1488C71.1328 46.4059 70.8652 46.5777 70.6746 46.8309C70.3396 47.2759 69.9032 47.6344 69.565 48.0788C69.4558 48.2223 69.2795 48.2782 69.1542 48.4007C68.831 48.7166 68.4655 48.983 68.1234 49.2766C67.9257 49.4462 67.7424 49.6334 67.5601 49.8199C67.398 49.9856 67.1797 50.066 67.0031 50.2115C66.5882 50.5534 66.1232 50.8274 65.6974 51.1567C65.508 51.3031 65.2544 51.4062 65.0958 51.5565C64.8921 51.7496 64.5619 51.7162 64.4253 51.995C64.4089 52.0286 64.2548 52.0126 64.1583 52.0734C63.6773 52.3763 63.1638 52.6221 62.6569 52.879C62.1651 53.1283 61.678 53.3881 61.1779 53.6199C60.8002 53.7949 60.3951 53.9124 60.0305 54.1162C59.3863 54.4761 58.6725 54.6337 57.9796 54.855C57.5394 54.9955 57.1214 55.2002 56.6725 55.32C56.394 55.3943 56.1231 55.4978 55.8436 55.5678C55.3098 55.7015 54.7722 55.8204 54.2363 55.9456C53.6176 56.0902 53.0007 56.2431 52.3797 56.377C51.9439 56.4709 51.514 56.5857 51.0717 56.6594C50.4492 56.7632 49.8271 56.8797 49.207 57.0026C48.8898 57.0654 48.5578 57.0494 48.2337 57.0815C47.5964 57.1447 46.9606 57.2255 46.3227 57.2821C45.7792 57.3303 45.2407 57.4206 44.6948 57.4504C44.2535 57.4745 43.8149 57.5449 43.3738 57.5778C43.0208 57.6042 42.6661 57.6032 42.3121 57.6216C41.5581 57.6608 40.8018 57.6575 40.0484 57.7046C39.7508 57.7232 39.4499 57.6884 39.1486 57.7715C39.0326 57.8035 38.8566 57.7078 38.7045 57.7273C38.3004 57.7791 37.8976 57.7863 37.4939 57.7285C36.9798 57.655 36.461 57.6961 35.9443 57.6658C35.3007 57.6281 34.6562 57.614 34.0138 57.54C33.5674 57.4885 33.1165 57.4656 32.6661 57.4425C32.1385 57.4154 31.6142 57.3247 31.0878 57.2693C30.501 57.2077 29.9121 57.1674 29.3269 57.0933C28.9698 57.0481 28.6244 56.9304 28.2632 56.8891C27.7089 56.8256 27.1549 56.7547 26.6042 56.6652C26.3465 56.6234 26.0856 56.5521 25.8324 56.5279C25.4261 56.4891 25.0414 56.3633 24.666 56.2497C24.2638 56.128 23.8572 56.0098 23.4534 55.8893C22.8357 55.7047 22.1998 55.58 21.5862 55.383C21.2071 55.2611 20.8216 55.1546 20.4462 55.0085C20.0363 54.8488 19.6143 54.7076 19.1971 54.56C18.5717 54.3388 17.9585 54.088 17.353 53.8138C16.808 53.567 16.2877 53.2647 15.7269 53.0572C15.3417 52.9146 15.0345 52.6447 14.6648 52.481C14.2472 52.296 13.8881 52.0127 13.5062 51.7679C13.2923 51.6307 13.0699 51.5045 12.8431 51.3902C12.6158 51.2758 12.4011 51.1435 12.2298 50.9579C12.0598 50.7736 11.8123 50.7228 11.6256 50.5652C11.2611 50.2578 10.8529 50.0113 10.5022 49.6762C10.2052 49.3925 9.87565 49.1145 9.48078 48.9493C9.44912 48.9359 9.42477 48.9201 9.40448 48.8895C9.04411 48.3469 8.52911 47.9484 8.06891 47.503C7.87776 47.3184 7.7548 47.0944 7.5738 46.9088C7.26131 46.5882 7.01944 46.2067 6.69113 45.8936C6.54665 45.7558 6.45534 45.543 6.33318 45.3682C6.12905 45.0764 5.92208 44.7875 5.69969 44.5095C5.41845 44.1586 5.17982 43.7771 4.95865 43.3877C4.72043 42.9682 4.4956 42.5386 4.24683 42.1273C3.97939 41.6851 3.75334 41.2217 3.49199 40.7771C3.34792 40.5324 3.29111 40.2417 3.15434 39.9866C2.79641 39.3178 2.57158 38.5951 2.30657 37.8877C2.12639 37.4078 1.98556 36.9148 1.85407 36.4264C1.67795 35.773 1.46489 35.1241 1.42147 34.4314C1.39915 34.0734 1.26928 33.712 1.22017 33.3456C1.19258 33.1399 1.1658 32.9342 1.12643 32.637Z" stroke="#DFD4BF" stroke-width="2" mask="url(#path-1-inside-1_1_7)"/>
<path d="M60.9307 29.6921L60.9307 29.2623L35.3793 19.9492C27.6422 17.1313 27.3557 16.8925 27.3557 13.4538L26.496 13.4538L26.496 23.961L27.3557 23.961C27.3557 20.4267 27.3557 19.6626 33.9465 22.0983L37.9106 23.5789L55.6294 30.0264L33.3256 38.7664C28.7885 40.5813 27.3557 40.7246 27.3557 35.5188L26.496 35.5188L26.496 45.2617L27.3079 45.2617C27.3079 41.9663 29.6959 41.3454 33.66 39.7694L56.9189 30.504L59.2113 31.3159C59.3546 30.6473 60.3098 29.8831 60.9307 29.6921Z" fill="#DFD4BF"/>
<rect width="0.85683" height="12.1841" transform="matrix(1 0 0 -1 26.4971 35.5732)" fill="#C4C4C4"/>
</svg>
