<svg width="28" height="15" viewBox="0 0 28 15" fill="none" xmlns="http://www.w3.org/2000/svg">
<path d="M10.3187 4.95541C8.61147 3.15596 6.21645 2.00922 4.20595 3.98527C3.54897 4.62905 3.07875 5.50531 2.87221 6.44416C2.62611 7.55736 2.81068 8.57445 3.26552 9.4127C3.66982 10.1593 4.28725 10.7696 5.01454 11.1898C5.74403 11.6123 6.5746 11.8403 7.39857 11.8157C8.30385 11.7889 9.20912 11.4491 9.96938 10.7181C11.0438 9.68318 11.9821 8.13632 12.8983 6.62746C13.9003 4.97777 14.8759 3.37055 16.0734 2.28417C16.9281 1.5085 17.8422 1.00779 18.7694 0.732837C20.101 0.339416 21.4325 0.426594 22.6432 0.855782C23.8341 1.27603 24.902 2.02263 25.7238 2.96148C26.4225 3.75727 26.9542 4.70506 27.2443 5.71767C27.6662 7.193 27.4113 8.96116 26.6422 10.508C26.0973 11.6011 25.2887 12.6048 24.2736 13.329C23.2299 14.0734 21.973 14.5227 20.5668 14.4802C18.9584 14.4311 17.183 13.7426 15.3527 12.1108L16.8754 10.3404C18.2619 11.5765 19.5297 12.0951 20.6305 12.1287C21.505 12.1555 22.2916 11.8716 22.9508 11.4022C23.6386 10.9126 24.1945 10.2174 24.5768 9.44847C25.0954 8.4068 25.2799 7.269 25.025 6.37486C24.8361 5.7132 24.4757 5.08059 23.9945 4.5307C23.4232 3.87798 22.6937 3.36385 21.8939 3.07996C21.1139 2.80501 20.2592 2.74465 19.4154 2.99501C18.8156 3.1716 18.2069 3.51138 17.6159 4.04786C16.6557 4.91965 15.7724 6.37263 14.8671 7.86584C13.8695 9.50882 12.8478 11.192 11.5646 12.426C10.3605 13.5861 8.91249 14.1248 7.4623 14.1695C6.20766 14.2075 4.95741 13.87 3.87196 13.2396C2.78212 12.6093 1.85048 11.6838 1.23524 10.5483C0.52333 9.23611 0.235489 7.65125 0.615616 5.92779C0.921036 4.54635 1.62196 3.25208 2.60414 2.28864C3.26552 1.64039 4.05434 1.13744 4.93983 0.853546C5.83192 0.567422 6.81191 0.507067 7.84901 0.744014C9.18495 1.05026 10.5978 1.85275 11.9909 3.32361L10.3187 4.95541Z" fill="#DFD4BF"/>
</svg>
